<?xml version="1.0" encoding="UTF-8"?> <!-- Creator: CorelDRAW 2021.5 --> <svg xmlns="http://www.w3.org/2000/svg" xmlns:xlink="http://www.w3.org/1999/xlink" xmlns:xodm="http://www.corel.com/coreldraw/odm/2003" xml:space="preserve" width="15.4013mm" height="16.9137mm" style="shape-rendering:geometricPrecision; text-rendering:geometricPrecision; image-rendering:optimizeQuality; fill-rule:evenodd; clip-rule:evenodd" viewBox="0 0 330.99 363.5"> <defs> <style type="text/css"> <![CDATA[ .fil0 {fill:#007336} ]]> </style> </defs> <g id="Layer_x0020_1"> <metadata id="CorelCorpID_0Corel-Layer"></metadata> <path class="fil0" d="M330.96 233.94c-34.86,74.94 -113.38,129.56 -195.62,129.56 -61.03,0 -110.04,-30.08 -135.34,-76.23 31.25,33.98 77.05,54.74 131.15,54.74 78.49,0 154.03,-43.68 199.81,-108.06zm-135.32 -233.94c61.03,0 110.04,30.09 135.35,76.23 -31.25,-33.98 -77.05,-54.74 -131.15,-54.74 -78.49,0 -154.03,43.68 -199.81,108.06 34.86,-74.93 113.38,-129.55 195.61,-129.55z"></path> <path class="fil0" d="M165.52 142.15c-56.41,0 -100.63,54.38 -102.44,56.86 -1.81,2.26 -1.81,5.64 0,8.12 1.8,2.26 46.03,56.64 102.44,56.64 56.41,0 100.64,-54.38 102.44,-56.86 1.8,-2.26 1.8,-5.64 0,-8.12 -1.81,-2.03 -46.03,-56.64 -102.44,-56.64zm0 108.76c-41.74,0 -77.85,-35.65 -89.13,-48.06 11.06,-12.18 47.16,-48.06 89.13,-48.06 41.74,0 77.85,35.65 89.13,48.06 -11.28,12.41 -47.38,48.06 -89.13,48.06zm0 -88c-22.11,0 -40.16,18.05 -40.16,40.16 0,22.11 18.05,40.16 40.16,40.16 22.11,0 40.16,-18.05 40.16,-40.16 0,-22.34 -18.05,-40.16 -40.16,-40.16zm0 69.04c-16.02,0 -28.88,-12.86 -28.88,-28.88 0,-16.02 12.86,-29.11 28.88,-29.11 16.02,0 28.88,12.86 28.88,28.88 0,16.02 -12.86,29.11 -28.88,29.11zm0 -48.51c-2.03,0 -4.06,0.45 -6.09,1.13 2.94,1.58 5.19,4.74 5.19,8.35 0,5.19 -4.06,9.25 -9.25,9.25 -3.61,0 -6.77,-2.03 -8.35,-5.19 -0.68,1.81 -1.13,3.83 -1.13,6.09 0,10.83 8.8,19.63 19.63,19.63 10.83,0 19.63,-8.8 19.63,-19.63 0,-10.83 -8.8,-19.63 -19.63,-19.63zm0 -50.54c3.61,0 6.32,-2.93 6.32,-6.32l0 -20.53c0,-3.61 -2.93,-6.32 -6.32,-6.32 -3.38,0 -6.32,2.93 -6.32,6.32l0 20.53c0,3.39 2.71,6.32 6.32,6.32zm-32.26 4.29l1.13 0c3.38,-0.68 5.87,-3.84 5.19,-7.45l-3.38 -20.08c-0.68,-3.38 -3.84,-5.87 -7.45,-5.19 -3.38,0.68 -5.87,3.84 -5.19,7.45l3.38 20.08c0.45,2.93 3.16,5.19 6.32,5.19l0 0zm-37.01 8.12c0.9,2.71 3.38,4.29 6.09,4.29 0.67,0 1.35,-0.23 2.03,-0.45 3.38,-1.13 5.19,-4.74 3.84,-8.12l-6.54 -18.73c-1.13,-3.38 -4.96,-5.19 -8.12,-3.83 -3.38,1.13 -5.19,4.74 -3.84,8.12l6.54 18.73zm-21.89 24.82c1.13,0 2.26,-0.23 3.16,-0.9 3.16,-1.81 4.06,-5.64 2.26,-8.8l-9.48 -16.47c-1.81,-3.16 -5.64,-4.06 -8.8,-2.26 -3.16,1.81 -4.06,5.64 -2.26,8.8l9.48 16.47c1.13,2.03 3.38,3.16 5.64,3.16l0 0zm195.18 -28.43c-3.16,-1.8 -6.99,-0.67 -8.8,2.26l-9.48 16.47c-1.81,3.16 -0.68,7 2.25,8.8 0.9,0.68 2.03,0.9 3.16,0.9 2.26,0 4.29,-1.13 5.64,-3.16l9.48 -16.47c1.8,-3.16 0.68,-7.22 -2.26,-8.8l0 0zm-43.1 7.67c0.68,0.23 1.35,0.45 2.03,0.45 2.71,0 5.19,-1.58 6.09,-4.29l6.54 -18.73c1.13,-3.38 -0.68,-6.99 -3.84,-8.12 -3.38,-1.13 -7,0.68 -8.12,3.84l-6.54 18.73c-1.13,3.16 0.45,7 3.83,8.12l0 0zm-29.78 -12.41l1.13 0c3.16,0 5.87,-2.26 6.32,-5.42l3.38 -20.08c0.67,-3.38 -1.81,-6.77 -5.19,-7.45 -3.61,-0.67 -6.77,1.81 -7.44,5.19l-3.38 20.08c-0.68,3.84 1.8,7.22 5.19,7.67l0 0z"></path> </g> </svg> 