<?xml version="1.0" encoding="UTF-8"?> <!-- Creator: CorelDRAW 2021.5 --> <svg xmlns="http://www.w3.org/2000/svg" xmlns:xlink="http://www.w3.org/1999/xlink" xmlns:xodm="http://www.corel.com/coreldraw/odm/2003" xml:space="preserve" width="15.4013mm" height="16.9137mm" style="shape-rendering:geometricPrecision; text-rendering:geometricPrecision; image-rendering:optimizeQuality; fill-rule:evenodd; clip-rule:evenodd" viewBox="0 0 193.49 212.49"> <defs> <style type="text/css"> <![CDATA[ .fil0 {fill:#007336} ]]> </style> </defs> <g id="Layer_x0020_1"> <metadata id="CorelCorpID_0Corel-Layer"></metadata> <path class="fil0" d="M136.62 78.61l-9.02 27.07 8.88 62.13c0.37,2.33 -1.03,3.07 -2.84,3.96l-6.72 2.71 -0.1 0.02c-1.6,0.27 -2.94,-0.91 -3.39,-2.37l-11.81 -34.7 -18.38 46.98c-0.51,1.3 -1.76,2.15 -3.15,2.15l-7.29 0c-1.03,0 -2.01,-0.47 -2.65,-1.29 -0.64,-0.81 -0.87,-1.87 -0.63,-2.88l11.67 -49.01 -13.28 13.29c-0.88,0.88 -2.18,1.2 -3.37,0.84 -1.19,-0.36 -2.09,-1.35 -2.34,-2.57l-0.87 -4.36c-0.97,-4.86 -3.61,-9.22 -7.44,-12.36 -3.83,-3.14 -8.63,-4.87 -13.58,-4.87 -4.44,-0.01 -8.66,-1.9 -11.59,-5.23 -2.91,-3.3 -4.3,-7.79 -3.75,-12.15 0.34,-2.66 -0.59,-5.34 -2.48,-7.24l-12.84 -12.84c-0.74,-0.74 -1.1,-1.8 -0.96,-2.84 0.14,-1.05 0.76,-1.96 1.67,-2.49l5.78 -3.3c7.97,-4.55 17.72,-5.03 26.11,-1.32 5.57,2.46 11.91,2.55 17.54,0.21l18.99 -7.91 12.9 -5.53c-0.24,-0.91 -0.37,-1.84 -0.37,-2.78l0 -10.46c0,-1.13 0.57,-2.18 1.51,-2.81l5.88 -3.92c1.81,-1.21 4,-1.71 6.16,-1.43 2.16,0.29 4.14,1.35 5.57,2.98 1.43,1.64 2.23,3.74 2.23,5.92l0 7.21 16.94 -3.77 16.38 -14.04c1.34,-1.15 3.34,-1.07 4.59,0.18l4.86 4.86c1.14,1.14 1.31,2.93 0.42,4.26l-14.59 21.88c-0.33,0.49 -0.78,0.89 -1.3,1.15l-13.34 6.67zm-114.66 -9.72l7.43 -4.25 3.35 5.87 -7.43 4.24 -3.35 -5.87zm29.97 1.08c-4.55,-2.01 -9.66,-2.45 -14.49,-1.23l-0.92 0.23 -1.67 -6.55 0.92 -0.23c6.29,-1.59 12.96,-1.03 18.89,1.6 5.57,2.46 11.92,2.55 17.54,0.21l2.87 -1.2 2.6 6.24 -2.87 1.2c-7.34,3.06 -15.62,2.95 -22.88,-0.27zm51.25 4.43l-1.13 -4.5 -2.64 1.13 3.5 3.5 0.26 -0.13zm12.71 -18.39l-7.83 0 0 3.91c0,1.4 0.74,2.69 1.96,3.39 1.21,0.7 2.7,0.7 3.92,0 1.21,-0.7 1.96,-1.99 1.96,-3.39l0 -3.91zm12.16 7.12l-2.93 0.65 2.46 3.28 0.47 -0.24 0 -3.69zm-16.95 -13.88l4.58 0c-0.2,-0.42 -0.53,-0.78 -0.96,-1.01 -0.72,-0.38 -1.6,-0.34 -2.28,0.11l-1.35 0.9zm-33.56 88.23l14.05 -14.05 0 -3.46c0,-0.36 0.06,-0.72 0.17,-1.07l1.36 -4.09 -18.68 -6.23c-1.38,-0.46 -2.31,-1.75 -2.31,-3.21l0 -12.16c0,-0.67 0.2,-1.32 0.57,-1.87l8.4 -12.59 -8.72 3.63c-7.34,3.06 -15.61,2.95 -22.88,-0.27 -6.43,-2.84 -13.9,-2.48 -20.01,1.01l-1.94 1.11 9.71 9.71c3.36,3.36 5.01,8.13 4.41,12.86 -0.31,2.46 0.47,4.98 2.11,6.84 1.65,1.87 4.03,2.94 6.53,2.94 6.5,0.01 12.79,2.27 17.82,6.38 4.58,3.75 7.87,8.83 9.41,14.51zm15.08 -40.36l1.6 0.96 -0.64 -2.25 -0.96 1.28zm3.14 9.77l-2.03 -1.22 -0.95 1.91 2.47 0.83 0.51 -1.52zm32.87 59.31l0.73 -0.28 -8.12 -57.16 -18.97 0 -3.92 11.76 0 11.61c0,0.26 -0.03,0.53 -0.09,0.78l-11.16 46.89 0.71 0 21.04 -53.77c0.52,-1.34 1.84,-2.2 3.28,-2.14 1.44,0.06 2.68,1.02 3.1,2.38l13.42 39.93zm17.5 -99.9l5.75 -8.62 -3.05 -3.05 -5.48 4.69c-0.42,0.36 -0.93,0.61 -1.47,0.73l-7.08 1.57 0 7.29c0,1.28 -0.72,2.45 -1.87,3.02l-4.86 2.43c-1.46,0.73 -3.24,0.31 -4.21,-0.99l-4.39 -5.85c-1.42,1.4 -3.2,2.38 -5.16,2.82 -1.73,0.39 -3.52,0.33 -5.21,-0.14l1.3 5.19c0.38,1.53 -0.35,3.13 -1.77,3.84l-4.86 2.43c-1.3,0.65 -2.87,0.39 -3.9,-0.63l-7.13 -7.13 -0.38 0.16 -13.46 20.2 0 8.7 7.41 2.47 1.62 -3.24 -1.99 -1.2c-0.82,-0.49 -1.39,-1.31 -1.58,-2.25 -0.18,-0.94 0.04,-1.91 0.61,-2.68l7.29 -9.73c0.77,-1.02 2.06,-1.53 3.32,-1.3 1.26,0.23 2.28,1.16 2.63,2.39l4.16 14.57 19.32 0 8.96 -26.86c0.28,-0.85 0.89,-1.55 1.69,-1.95l13.79 -6.89zm9.57 -14.35l2.98 -4.48 -0.69 -0.69 -4.02 3.44 1.72 1.72z"></path> <path class="fil0" d="M193.47 136.75c-20.38,43.81 -66.28,75.73 -114.35,75.73 -35.68,0 -64.33,-17.59 -79.12,-44.56 18.27,19.86 45.04,32 76.67,32 45.88,0 90.04,-25.54 116.8,-63.17zm-79.1 -136.75c35.68,0 64.33,17.59 79.12,44.56 -18.27,-19.86 -45.04,-32 -76.67,-32 -45.88,0 -90.04,25.53 -116.8,63.17 20.38,-43.8 66.28,-75.73 114.35,-75.73z"></path> </g> </svg> 