<?xml version="1.0" encoding="UTF-8"?> <!-- Creator: CorelDRAW 2021.5 --> <svg xmlns="http://www.w3.org/2000/svg" xmlns:xlink="http://www.w3.org/1999/xlink" xmlns:xodm="http://www.corel.com/coreldraw/odm/2003" xml:space="preserve" width="15.4013mm" height="16.9137mm" style="shape-rendering:geometricPrecision; text-rendering:geometricPrecision; image-rendering:optimizeQuality; fill-rule:evenodd; clip-rule:evenodd" viewBox="0 0 197.94 217.38"> <defs> <style type="text/css"> <![CDATA[ .fil0 {fill:#007336} ]]> </style> </defs> <g id="Layer_x0020_1"> <metadata id="CorelCorpID_0Corel-Layer"></metadata> <path class="fil0" d="M197.92 139.9c-20.85,44.81 -67.81,77.48 -116.98,77.48 -36.5,0 -65.81,-17.99 -80.94,-45.59 18.69,20.32 46.08,32.73 78.43,32.73 46.94,0 92.11,-26.12 119.49,-64.62z"></path> <path class="fil0" d="M117 0c36.5,0 65.81,17.99 80.94,45.59 -18.69,-20.32 -46.08,-32.74 -78.43,-32.74 -46.94,0 -92.11,26.12 -119.49,64.62 20.85,-44.81 67.81,-77.47 116.98,-77.47z"></path> <path class="fil0" d="M156.28 109.86c-1.83,-1.83 -4.12,-2.9 -6.41,-3.2 0.46,-3.51 -0.61,-7.02 -3.2,-9.76 -1.68,-1.68 -3.97,-2.75 -6.25,-3.2 0.15,-0.61 0.15,-1.07 0.15,-1.68 0,-3.05 -1.22,-6.1 -3.36,-8.24 -1.07,-1.07 -2.29,-1.83 -3.66,-2.44l12.35 -12.35c4.58,-4.58 4.58,-11.9 0,-16.47 -4.58,-4.58 -11.9,-4.58 -16.47,0l-43.16 43.17c-1.68,-3.36 -4.42,-8.09 -7.93,-12.35 -2.29,-2.9 -5.34,-5.64 -9,-8.24 -5.34,-3.81 -12.35,-3.81 -17.54,0 -4.27,3.05 -5.34,8.69 -2.44,13.12l6.41 9.91c3.36,5.18 5.03,11.29 4.88,17.54l-0.46 18.91c0,1.83 -0.76,3.51 -2.13,4.88l-8.69 8.69c-1.37,1.37 -1.37,3.66 0,5.18 0.76,0.76 1.68,1.07 2.59,1.07 0.92,0 1.83,-0.31 2.59,-1.07l8.69 -8.69c2.59,-2.59 4.12,-6.1 4.27,-9.91l0.46 -18.91c0.15,-7.63 -1.98,-15.25 -6.1,-21.66l-6.41 -9.91c-0.76,-1.07 -0.46,-2.44 0.61,-3.2 2.75,-1.98 6.41,-1.98 9,0 3.05,2.13 5.64,4.58 7.47,6.86 5.49,6.86 9.15,15.4 9.15,15.4 0.46,1.07 1.53,1.98 2.59,2.14 1.22,0.3 2.44,-0.15 3.36,-1.07l46.83 -46.82c1.68,-1.68 4.42,-1.68 6.1,0 1.68,1.68 1.68,4.42 0,6.1l-35.54 36c-2.9,2.9 -3.97,6.86 -3.2,10.52 3.36,15.56 -8.54,22.73 -9,23.03 -1.68,1.07 -2.29,3.2 -1.37,5.03 0.61,1.22 1.83,1.83 3.2,1.83 0.61,0 1.22,-0.15 1.83,-0.46 4.58,-2.59 11.75,-9.76 13.12,-20.74 1.22,0.46 2.44,0.61 3.81,0.61 0.61,0 1.22,-0.15 1.68,-0.15 0.46,2.29 1.53,4.42 3.2,6.25 2.29,2.29 5.19,3.36 8.24,3.36 0.46,0 0.92,-0.15 1.53,-0.15 0.31,2.29 1.37,4.58 3.2,6.41 1.22,1.22 2.75,2.13 4.27,2.74 -6.1,8.54 -13.42,16.32 -18.91,21.81 -4.88,4.73 -11.59,6.71 -18.3,5.19l-3.96 -0.92c-1.22,-0.3 -2.44,0.15 -3.36,0.92l-12.2 12.2c-1.37,1.37 -1.37,3.66 0,5.18 0.76,0.76 1.68,1.07 2.59,1.07 0.92,0 1.83,-0.3 2.59,-1.07l10.68 -10.68 1.98 0.46c9,2.14 18.46,-0.61 25.01,-7.02 6.86,-6.71 16.17,-16.78 23.03,-27.61 1.07,-0.61 2.14,-1.22 2.9,-2.14l8.85 -8.85c2.13,-2.13 3.35,-5.19 3.35,-8.24 0,-3.2 -1.22,-6.1 -3.51,-8.39l-0 0zm-39.96 1.07c-1.68,1.68 -4.42,1.68 -6.1,0 -1.68,-1.68 -1.68,-4.42 0,-6.1l15.71 -15.71c1.68,-1.68 4.42,-1.68 6.1,0 0.76,0.76 1.22,1.98 1.22,3.05 0,1.22 -0.46,2.29 -1.22,3.05l-15.71 15.71zm13.12 9.46c-1.68,1.68 -4.42,1.68 -6.1,0 -1.68,-1.68 -1.68,-4.42 0,-6.1l12.05 -12.05c0.92,-0.92 1.98,-1.22 3.05,-1.22 1.07,0 2.29,0.46 3.05,1.22 1.68,1.68 1.68,4.42 0,6.1l-12.05 12.05zm21.66 0.92l-8.85 8.85c-1.68,1.68 -4.42,1.68 -6.1,0 -1.68,-1.68 -1.68,-4.42 0,-6.1l8.85 -8.85c1.68,-1.68 4.42,-1.68 6.1,0 0.76,0.76 1.22,1.98 1.22,3.05 0.15,1.07 -0.3,2.13 -1.22,3.05l0 0zm-67.11 -65.58c1.98,0 3.66,-1.68 3.66,-3.66l0 -10.07c0,-1.98 -1.68,-3.66 -3.66,-3.66 -1.98,0 -3.66,1.68 -3.66,3.66l0 10.07c0,1.98 1.68,3.66 3.66,3.66l0 0zm-18.46 5.49c0.76,0.76 1.68,1.07 2.59,1.07 0.92,0 1.83,-0.3 2.59,-1.07 1.37,-1.37 1.37,-3.66 0,-5.19l-7.17 -7.17c-1.37,-1.37 -3.81,-1.37 -5.19,0 -1.37,1.37 -1.37,3.66 0,5.18l7.17 7.17zm34.32 1.07c0.92,0 1.83,-0.31 2.59,-1.07l7.17 -7.17c1.37,-1.37 1.37,-3.66 0,-5.19 -1.37,-1.37 -3.81,-1.37 -5.19,0l-7.17 7.17c-1.37,1.37 -1.37,3.66 0,5.19 0.76,0.76 1.68,1.07 2.59,1.07l0 0z"></path> </g> </svg> 