<?xml version="1.0" encoding="UTF-8"?> <!-- Creator: CorelDRAW 2021.5 --> <svg xmlns="http://www.w3.org/2000/svg" xmlns:xlink="http://www.w3.org/1999/xlink" xmlns:xodm="http://www.corel.com/coreldraw/odm/2003" xml:space="preserve" width="15.4013mm" height="16.9137mm" style="shape-rendering:geometricPrecision; text-rendering:geometricPrecision; image-rendering:optimizeQuality; fill-rule:evenodd; clip-rule:evenodd" viewBox="0 0 886.74 973.82"> <defs> <style type="text/css"> <![CDATA[ .fil0 {fill:#007336} ]]> </style> </defs> <g id="Layer_x0020_1"> <metadata id="CorelCorpID_0Corel-Layer"></metadata> <path class="fil0" d="M886.66 626.74c-93.39,200.76 -303.76,347.08 -524.07,347.08 -163.5,0 -294.8,-80.59 -362.6,-204.22 83.71,91.03 206.42,146.65 351.36,146.65 210.28,0 412.64,-117.03 535.31,-289.51zm-362.52 -626.74c163.5,0 294.81,80.6 362.6,204.23 -83.71,-91.03 -206.42,-146.65 -351.36,-146.65 -210.28,0 -412.64,117.02 -535.3,289.49 93.39,-200.75 303.76,-347.07 524.06,-347.07z"></path> <path class="fil0" d="M518.16 368.94c61.99,14.09 124.2,47.83 159.16,102.17 3.03,-4.53 5.71,-9.26 8.03,-14.21 -20.29,-10.81 -40.07,-30.16 -40.07,-54.47 0,-23.14 18.82,-41.96 41.96,-41.96 23.14,0 41.96,18.82 41.96,41.96 0,11.43 -1.01,22.87 -3.23,34.08 4.17,0.65 8.39,0.97 12.61,0.97 8.99,0 16.29,7.28 16.29,16.28 0.01,9 -7.29,16.28 -16.29,16.28 -7.51,0 -15.03,-0.75 -22.4,-2.23 -5.7,12.96 -13.25,24.82 -22.55,35.51 6.39,17.04 9.89,34.87 9.89,53.12 0,56.91 -32.62,105.96 -77.02,139.15l0 66.22c0,8.99 -7.29,16.28 -16.28,16.28l-51.34 0c-6.17,0 -11.81,-3.48 -14.57,-9l-13.93 -27.86c-55.84,14.86 -118.2,14.86 -174.05,0l-13.93 27.86c-2.76,5.52 -8.4,9 -14.57,9l-51.34 0c-8.99,0 -16.28,-7.29 -16.28,-16.28l0 -65.01 -88.01 -54.84c-25.26,-15.74 -40.34,-42.93 -40.34,-72.69 0,-30.22 24.57,-54.79 54.79,-54.79l2.81 0c6.7,-23 18.69,-44.13 34,-62.48 -9.44,-14.81 -14.59,-31.98 -14.59,-49.59 0,-9 7.28,-16.28 16.28,-16.28 19.81,0 38.88,6.25 54.81,17.9 33.35,-20.35 71.3,-33.23 109.84,-39.34 -17.05,-17.31 -26.91,-40.35 -26.91,-64.97 0,-49.12 38.36,-89.49 87.04,-92.77 15.73,-31.53 47.75,-51.87 83.28,-51.87 51.44,0 93.3,41.86 93.3,93.3 0,49.24 -38.53,89.69 -87.34,92.81 -5.23,10.5 -12.34,19.9 -21.02,27.74zm15.06 -181.28c-33.48,0 -60.73,27.25 -60.73,60.73 0,33.49 27.24,60.73 60.73,60.73 33.49,0 60.73,-27.24 60.73,-60.73 0,-33.48 -27.24,-60.73 -60.73,-60.73zm0 18.78c8.99,0 16.28,7.28 16.28,16.28l0 51.35c0,9 -7.28,16.29 -16.28,16.29 -9,0 -16.29,-7.28 -16.29,-16.29l0 -51.35c0,-8.99 7.29,-16.28 16.29,-16.28zm-92.77 34.93c-26.25,7.09 -44.98,30.68 -44.98,58.37 0,33.48 27.26,60.73 60.74,60.73 18.9,0 36.39,-9.07 47.71,-23.9 -11.52,-3.8 -22.22,-9.71 -31.42,-17.55l0 6.4c0,8.99 -7.28,16.28 -16.28,16.28 -9,0 -16.28,-7.28 -16.28,-16.28l0 -51.35c0,-2.6 0.73,-5 1.92,-7.24 -1.23,-6.07 -1.92,-12.23 -1.92,-18.44 0,-2.38 0.23,-4.7 0.52,-7.02zm-195.69 180.6c2.61,7.45 6.71,14.26 11.96,20.24 5.57,6.34 5.35,15.91 -0.48,22 -18.51,19.33 -32.85,43.22 -38,69.68 -1.49,7.65 -8.2,13.17 -15.98,13.17l-15.6 0c-12.25,0 -22.22,9.97 -22.22,22.22 0,18.46 9.34,35.29 25.02,45.06l95.68 59.62c4.77,2.97 7.67,8.19 7.67,13.82l0 57.76 24.99 0 15.5 -31c3.58,-7.15 11.83,-10.65 19.45,-8.26 57.39,17.99 123.89,18.05 181.27,0.01 7.62,-2.4 15.88,1.1 19.45,8.25l15.5 31 24.99 0 0 -58.29c0,-5.34 2.62,-10.35 7.01,-13.39 39.5,-27.37 70,-67.71 70,-117.41 0,-47.9 -28.61,-87.91 -66.32,-115.14 -45.97,-33.2 -105.07,-48.28 -161.28,-48.28 -54.11,0 -110.44,14.03 -155.52,44.66 -6.39,4.33 -14.95,3.59 -20.49,-1.78 -6.47,-6.27 -14.15,-11.03 -22.6,-13.94zm198.61 -9.9c31.17,0 65.22,3.66 94.93,13.4 8.54,2.8 13.2,11.99 10.4,20.54 -2.19,6.7 -8.45,11.21 -15.48,11.21 -1.73,0 -3.44,-0.26 -5.08,-0.81 -48.03,-15.78 -121.51,-15.82 -169.54,0 -8.53,2.81 -17.75,-1.88 -20.55,-10.4 -2.81,-8.54 1.86,-17.74 10.4,-20.54 29.71,-9.74 63.76,-13.4 94.93,-13.4zm-179.69 76.75c16.06,0 29.12,13.06 29.12,29.12 0,16.06 -13.07,29.12 -29.12,29.12 -16.05,0 -29.12,-13.06 -29.12,-29.12 0,-16.06 13.06,-29.12 29.12,-29.12zm431.29 -64.19c1.14,-7.34 1.66,-14.77 1.66,-22.21 0,-5.18 -4.2,-9.39 -9.38,-9.39 -5.18,0 -9.39,4.21 -9.39,9.39 0,8.31 9.51,17.02 17.11,22.21z"></path> </g> </svg> 