<?xml version="1.0" encoding="UTF-8"?> <!-- Creator: CorelDRAW 2021.5 --> <svg xmlns="http://www.w3.org/2000/svg" xmlns:xlink="http://www.w3.org/1999/xlink" xmlns:xodm="http://www.corel.com/coreldraw/odm/2003" xml:space="preserve" width="15.4013mm" height="16.9137mm" style="shape-rendering:geometricPrecision; text-rendering:geometricPrecision; image-rendering:optimizeQuality; fill-rule:evenodd; clip-rule:evenodd" viewBox="0 0 1167.38 1282.02"> <defs> <style type="text/css"> <![CDATA[ .fil0 {fill:#007336} ]]> </style> </defs> <g id="Layer_x0020_1"> <metadata id="CorelCorpID_0Corel-Layer"></metadata> <path class="fil0" d="M1167.27 825.09c-122.95,264.29 -399.89,456.93 -689.92,456.93 -215.25,0 -388.1,-106.1 -477.35,-268.85 110.2,119.84 271.74,193.06 462.55,193.06 276.84,0 543.23,-154.07 704.72,-381.13zm-477.25 -825.09c215.25,0 388.11,106.11 477.36,268.86 -110.2,-119.84 -271.75,-193.06 -462.56,-193.06 -276.84,0 -543.23,154.06 -704.71,381.11 122.95,-264.28 399.89,-456.91 689.92,-456.91z"></path> <path class="fil0" d="M402.31 327.79c13.67,13.67 21.36,32.22 21.36,51.57 0,42.3 -42.3,99.42 -72.92,134.18l-0.02 -0.02 -0.02 0.02c-30.62,-34.76 -72.92,-91.88 -72.92,-134.18 0,-19.34 7.69,-37.89 21.36,-51.57 28.46,-28.48 74.7,-28.48 103.16,0zm54.79 114.4l82.51 0c11.73,0 22.4,-4.81 30.15,-12.54l0.08 0c7.74,-7.74 12.54,-18.45 12.54,-30.24l0 -111.06 313.37 0 0 217.02 -284.47 0c-11.79,0 -22.5,4.81 -30.24,12.54l0 0.08c-7.74,7.75 -12.54,18.43 -12.54,30.15l0 163.56 -192.17 0c-11.7,0 -22.37,4.81 -30.14,12.55l-0.08 0.08c-7.75,7.78 -12.55,18.46 -12.55,30.14l0 142.86c0,11.73 4.81,22.41 12.54,30.15l0.08 0.08c7.75,7.73 18.43,12.54 30.15,12.54l343.88 0c35.44,73.05 237.8,65.31 237.8,-23.23 0.01,-26.98 -21.87,-48.61 -56.88,-62.46l0.01 0c27.71,-36.95 56.88,-86.77 56.88,-131.99 0,-43.42 -23.17,-83.55 -60.77,-105.26 -37.41,-21.61 -84.17,-21.61 -121.58,0 -37.6,21.71 -60.77,61.84 -60.77,105.26 0,45.22 29.17,95.04 56.88,131.99l0.01 0c-26.08,10.32 -44.87,24.97 -52.76,42.92l-342.7 0 0 -142.86 192.17 0c11.73,0 22.4,-4.81 30.15,-12.54l0.08 0c7.74,-7.74 12.54,-18.45 12.54,-30.24l0 -163.56 284.47 0c11.79,0 22.5,-4.81 30.24,-12.54 7.74,-7.74 12.54,-18.45 12.54,-30.24l0 -217.02c0,-11.73 -4.81,-22.4 -12.54,-30.15l0 -0.08c-7.74,-7.74 -18.45,-12.54 -30.24,-12.54l-313.37 0c-11.79,0 -22.5,4.81 -30.24,12.54l0 0.08c-7.74,7.75 -12.54,18.43 -12.54,30.15l0 111.06 -69.1 0c1.14,-6.75 1.77,-13.45 1.77,-20.05 0,-43.42 -23.17,-83.55 -60.77,-105.26 -37.41,-21.61 -84.17,-21.61 -121.58,0 -37.6,21.71 -60.77,61.84 -60.77,105.26 0,45.22 29.17,95.04 56.88,131.99l0.01 0c-35.01,13.86 -56.89,35.49 -56.88,62.46 0,97.04 243.1,97.04 243.1,0 0.01,-26.98 -21.87,-48.61 -56.88,-62.46l0.01 0c15.12,-20.17 30.68,-44.17 41.7,-69.17zm430.95 228.68c13.67,13.67 21.36,32.22 21.36,51.57 0,42.3 -42.3,99.42 -72.92,134.18l-0.02 -0.02 -0.02 0.02c-30.62,-34.76 -72.92,-91.88 -72.92,-134.18 0,-19.34 7.69,-37.89 21.36,-51.57 28.46,-28.48 74.7,-28.48 103.16,0zm-51.58 246.32l0.02 0c7.25,0 14.11,-3.22 18.72,-8.8l11.91 -12.89c28.92,5.59 42.3,17.74 42.3,21.39 0,31.87 -145.88,31.87 -145.88,0 0,-3.65 13.37,-15.8 42.3,-21.39l11.91 12.89c4.62,5.58 11.48,8.8 18.72,8.8l0.02 0zm0 -170.43c-13.43,0 -24.32,-10.88 -24.32,-24.31 0,-13.42 10.88,-24.31 24.32,-24.31 13.43,0 24.32,10.88 24.32,24.31 0,13.42 -10.88,24.31 -24.32,24.31zm-485.75 -172.65l0.02 0c7.25,0 14.11,-3.22 18.72,-8.8l11.91 -12.89c28.92,5.59 42.3,17.74 42.3,21.39 0,31.87 -145.88,31.87 -145.88,0 0,-3.65 13.37,-15.8 42.3,-21.39l11.91 12.89c4.62,5.58 11.48,8.8 18.72,8.8l0.02 0zm0 -170.43c-13.43,0 -24.32,-10.88 -24.32,-24.31 0,-13.42 10.88,-24.31 24.32,-24.31 13.43,0 24.32,10.88 24.32,24.31 0,13.42 -10.88,24.31 -24.32,24.31z"></path> </g> </svg> 