<?xml version="1.0" encoding="UTF-8"?> <!-- Creator: CorelDRAW 2021.5 --> <svg xmlns="http://www.w3.org/2000/svg" xmlns:xlink="http://www.w3.org/1999/xlink" xmlns:xodm="http://www.corel.com/coreldraw/odm/2003" xml:space="preserve" width="15.4013mm" height="16.9137mm" style="shape-rendering:geometricPrecision; text-rendering:geometricPrecision; image-rendering:optimizeQuality; fill-rule:evenodd; clip-rule:evenodd" viewBox="0 0 331.15 363.67"> <defs> <style type="text/css"> <![CDATA[ .fil0 {fill:#007336} ]]> </style> </defs> <g id="Layer_x0020_1"> <metadata id="CorelCorpID_0Corel-Layer"></metadata> <path class="fil0" d="M331.12 234.05c-34.88,74.97 -113.44,129.62 -195.71,129.62 -61.06,0 -110.09,-30.1 -135.41,-76.27 31.26,33.99 77.08,54.76 131.21,54.76 78.53,0 154.1,-43.7 199.91,-108.12zm-135.38 -234.05c61.06,0 110.09,30.1 135.41,76.27 -31.26,-34 -77.09,-54.77 -131.21,-54.77 -78.53,0 -154.1,43.7 -199.91,108.11 34.88,-74.97 113.44,-129.61 195.71,-129.61z"></path> <path class="fil0" d="M140.01 148.56c3.23,-3.03 6.34,-6.18 9.43,-9.35 1.29,-1.32 2.59,-2.61 3.89,-3.92 4.32,-4.32 7.34,-9.78 7.34,-16.01 0,-6.23 -3.01,-11.68 -7.34,-16.01l-12.64 -12.64c-1.43,-1.43 -2.84,-2.88 -4.24,-4.33l-0.06 -0.06c-2.8,-2.9 -5.65,-5.77 -8.63,-8.54 -4.3,-4.2 -9.62,-6.83 -15.65,-6.83 -6.08,0 -11.48,2.72 -15.79,6.85l-15.91 15.91c-5.95,5.95 -9.38,13.11 -10.06,21.5 -0.96,11.75 1.91,23.41 5.96,34.36 8.16,22.07 20.39,41.13 35.42,59.13l0.5 0.6 8.83 -8.83c-13.94,-16.79 -25.41,-34.59 -33.03,-55.14 -3.41,-9.18 -6.06,-19.18 -5.24,-29.05 0.45,-5.47 2.57,-9.92 6.44,-13.8l15.78 -15.78c1.92,-1.84 4.36,-3.32 7.07,-3.32 2.69,0 5.07,1.51 6.89,3.37l0.08 0.09c2.44,2.26 4.81,4.68 7.19,7.1l1.11 1.13c0.75,0.76 1.5,1.52 2.22,2.26 0.73,0.72 1.46,1.48 2.18,2.22l12.67 12.67c1.89,1.89 3.67,4.42 3.67,7.2 0,2.78 -1.78,5.31 -3.67,7.2 -0.66,0.66 -1.31,1.31 -1.96,1.98 -0.66,0.68 -1.33,1.35 -2,2.02l-0.9 0.9c-3.53,3.52 -7.02,7.08 -10.68,10.36l-0.31 0.31c-3.14,3.14 -3.73,6.41 -2.36,10.54 0.05,0.16 0.08,0.25 0.08,0.25l0.05 0.12c3.69,9 9,16.86 14.97,24.38l0.01 0.01 1.22 1.49 8.92 -8.92 -0.3 -0.36c-4.54,-5.61 -8.59,-11.51 -11.72,-18.03l-0.83 -1.73 1.4 -1.31zm-1.93 86.73c14,11.94 29.46,22.06 46.22,30.19l0.33 0.16 -0.02 0.06c12.61,5.91 26.08,10.91 40.4,11.84l0.17 0c1,0.04 1.93,0.08 2.87,0.08 10.69,0 19.43,-3.58 26.67,-11.43 0.08,-0.1 0.21,-0.22 0.36,-0.42 2.33,-2.78 4.87,-5.27 7.43,-7.72l0.6 -0.58c2.03,-1.95 4.05,-3.92 6,-5.96 4.23,-4.41 7.07,-9.89 7.05,-16.09 -0.01,-6.16 -2.85,-11.56 -7.15,-15.86l-25.47 -25.49c-4.22,-4.38 -9.54,-7.17 -15.67,-7.17 -6.15,0 -11.55,2.84 -15.84,7.13l-14.61 14.6 -1.7 -0.87c-0.62,-0.32 -1.24,-0.63 -1.86,-0.94 -1.55,-0.77 -3.12,-1.56 -4.58,-2.49 -4.12,-2.61 -8.07,-5.42 -11.85,-8.42l-8.94 8.94c4.45,3.6 9.1,6.96 13.99,10.08 1.53,0.98 3.13,1.82 4.76,2.62 0.35,0.18 0.71,0.34 1.05,0.54l0.37 0.21 -0.09 0.04c1.16,0.47 2.72,1.26 4.12,2.15l0.29 0.16c0.1,0.05 0.22,0.13 0.34,0.19 1.43,0.73 2.97,1.17 4.58,1.17 2.79,0 5.09,-1.23 7.04,-3.19l15.87 -15.87c1.87,-1.87 4.29,-3.46 7.03,-3.46 2.65,0 4.99,1.57 6.71,3.41l25.63 25.59c4.83,4.82 4.51,9.7 -0.15,14.55l-0.03 0.03c-1.77,1.9 -3.66,3.73 -5.56,5.56l-0.51 0.49c-2.91,2.8 -5.79,5.63 -8.43,8.79 -4.86,5.21 -10.39,7.36 -17.42,7.36 -0.71,0 -1.43,-0.05 -2.14,-0.09 -12.68,-0.82 -24.85,-5.37 -36.19,-10.84 -15.55,-7.5 -29.89,-16.84 -42.89,-27.85l-8.79 8.79z"></path> <path class="fil0" d="M236.77 110.43l0.22 0.22c2.36,2.36 2.36,6.22 0,8.58l-149.19 149.19c-2.36,2.36 -6.22,2.36 -8.58,0l-0.22 -0.22c-2.36,-2.36 -2.36,-6.22 0,-8.58l149.19 -149.19c2.36,-2.36 6.22,-2.36 8.58,0z"></path> </g> </svg> 