<?xml version="1.0" encoding="UTF-8"?> <!-- Creator: CorelDRAW 2021.5 --> <svg xmlns="http://www.w3.org/2000/svg" xmlns:xlink="http://www.w3.org/1999/xlink" xmlns:xodm="http://www.corel.com/coreldraw/odm/2003" xml:space="preserve" width="28.6125mm" height="28.2222mm" style="shape-rendering:geometricPrecision; text-rendering:geometricPrecision; image-rendering:optimizeQuality; fill-rule:evenodd; clip-rule:evenodd" viewBox="0 0 1237.41 1220.53"> <defs> <style type="text/css"> <![CDATA[ .fil0 {fill:#007336} .fil1 {fill:white} ]]> </style> </defs> <g id="Layer_x0020_1"> <metadata id="CorelCorpID_0Corel-Layer"></metadata> <circle class="fil0" transform="matrix(0.64412 -0 -0.106853 0.644119 618.701 610.262)" r="947.43"></circle> <path class="fil1" d="M948.52 895.65l-659.63 0c-22.42,0 -41.66,-11.12 -52.87,-30.54 -11.2,-19.42 -11.18,-41.65 0.04,-61.05l329.81 -570.06c11.21,-19.38 30.43,-30.47 52.82,-30.47 22.39,0 41.61,11.09 52.82,30.47l329.82 570.06c11.23,19.4 11.24,41.63 0.04,61.05 -11.2,19.42 -30.45,30.54 -52.87,30.54z"></path> <polygon class="fil0" points="618.71,257.23 282.58,839.32 954.82,839.32 "></polygon> <path class="fil1" d="M661.89 407.67l0 268.03c0,24.4 -86.38,28.17 -86.38,0l0 -268.03c0,-28.17 86.38,-24.4 86.38,0z"></path> <circle class="fil1" cx="618.7" cy="764.21" r="38.14"></circle> </g> </svg> 