<?xml version="1.0" encoding="UTF-8"?> <!-- Creator: CorelDRAW 2021.5 --> <svg xmlns="http://www.w3.org/2000/svg" xmlns:xlink="http://www.w3.org/1999/xlink" xmlns:xodm="http://www.corel.com/coreldraw/odm/2003" xml:space="preserve" width="144.773mm" height="50.3388mm" style="shape-rendering:geometricPrecision; text-rendering:geometricPrecision; image-rendering:optimizeQuality; fill-rule:evenodd; clip-rule:evenodd" viewBox="0 0 823.7 286.41"> <defs> <style type="text/css"> <![CDATA[ .fil2 {fill:#FEFEFE} .fil0 {fill:#007336} .fil1 {fill:#007336;fill-rule:nonzero} ]]> </style> </defs> <g id="Layer_x0020_1"> <metadata id="CorelCorpID_0Corel-Layer"></metadata> <circle class="fil0" transform="matrix(1.14889 -0 -0.19059 1.14889 145.183 143.203)" r="124.64"></circle> <path class="fil1" d="M385.47 49.13l-50.24 0 -11.86 71.46 19.39 0 9.22 -55.82 30.84 0 2.65 -15.64zm7.19 0l-11.79 71.46 16.18 0 31.96 -37.55 0.41 0 -6.14 37.55 19.41 0 11.79 -71.46 -16.46 0 -31.65 37.4 -0.56 0 6.24 -37.4 -19.39 0zm54.07 88.62l18.7 0 2.8 -17.16 38.24 0 -2.8 17.16 18.72 0 5.29 -32.1 -7.53 0 9.35 -56.53 -50.52 0 -7.4 30.29c-4.32,17.44 -9.04,23.17 -14.51,26.23l-5.03 0 -5.3 32.1zm32.52 -32.1c3.91,-5.31 7.84,-13.12 11.02,-26.23l3.49 -14.66 14.38 0 -6.7 40.89 -22.19 0zm-155.88 133.84l26.64 0c18.01,0 31.69,-9.78 34.06,-24.01 2.38,-14.23 -8.09,-23.45 -26.1,-23.45l-7.4 0 1.41 -8.37 30.84 0 2.65 -15.64 -50.24 0 -11.86 71.46zm21.91 -15.21l2.93 -17.44 7.25 0c6.98,0 10.18,3.62 9.35,8.52 -0.84,5.16 -5.31,8.92 -12.28,8.92l-7.25 0zm60.28 15.21l6.42 -13.67 23.55 0 1.85 13.67 20.94 0 -11.73 -71.46 -26.53 0 -35.44 71.46 20.93 0zm13.23 -28.2l11.05 -23.58 0.56 0 3.18 23.58 -14.79 0zm46.38 28.2l19.39 0 4.6 -27.92 25.69 0 -4.62 27.92 19.4 0 11.87 -71.46 -19.41 0 -4.6 27.92 -25.69 0 4.62 -27.92 -19.4 0 -11.86 71.46zm117.71 0l24.37 0 -22.55 -37.12 32.87 -34.34 -24.42 0 -24.99 26.94 -2.51 0 4.47 -26.94 -19.41 0 -11.86 71.46 19.39 0 4.81 -28.89 2.72 0 17.1 28.89zm29.52 0l19.39 0 3.57 -21.21 10.68 0c16.46,0 28.89,-9.5 31.39,-24.99 2.52,-15.21 -6.42,-25.27 -22.32,-25.27l-30.85 0 -11.86 71.46zm25.46 -36.29l3.27 -19.68 6.84 0c6.83,0 10.19,3.64 9.2,9.78 -0.97,6.14 -5.58,9.91 -12.56,9.91l-6.76 0zm113.96 1.82c4.05,-24.43 -9.48,-37.96 -29.44,-37.96 -18.98,0 -35.86,12.41 -39.64,35.71 -4.05,24.28 9.5,37.7 29.59,37.7 18.85,0 35.6,-12.15 39.5,-35.45zm-19.54 -2.24c-2.23,13.26 -9.07,20.8 -19.26,20.8 -8.94,0 -12.99,-6.14 -10.74,-18.55 2.1,-13.26 9.07,-21.07 19.39,-21.07 9.07,0 12.56,6.55 10.61,18.83zm26.66 -19.11l21.48 0 -9.2 55.82 19.11 0 9.22 -55.82 21.48 0 2.65 -15.64 -62.1 0 -2.65 15.64z"></path> <path class="fil2" d="M205.91 133.63l-23.79 0.06 -13.09 -17.59c-6.49,-8.83 -7.38,-11.51 -19.3,-11.52l-26.28 -0.01c-5.04,0 -8.31,0.89 -9.81,4.22 -0.92,1.35 -1.41,2.6 -1.41,2.6l-12.24 25.18 11.52 5.15 11.39 -24.33 0 -0.01c0.09,-0.05 0.18,-0.1 0.27,-0.16l13.25 0.01c-4.36,11.62 -12.16,29.57 -13.26,34.07l-6.61 40.17 -34.57 0c-6.83,0.01 -16.23,3.93 -16.45,12.36l17.79 -0 47.32 0 6.47 -36.56 30.16 65.74 16.16 -0.01c-4.84,-11.19 -25.71,-59.55 -30.87,-71.4 -1.35,-3.11 -2.31,-3.29 -0.91,-6.45 3.94,-8.94 7.42,-17.13 11.28,-25.74 4.32,5.36 9.14,12.58 12,15.06 2.73,2.36 7.38,1.92 11.81,1.92l19.17 0 0 91.66c0,4.97 -4.06,9.03 -9.03,9.03l-18.66 0 -0.09 -0.02 5.62 -7.06 -16.72 0 -5.63 7.06 -69.31 0.03c-4.85,-0.13 -8.78,-4.14 -8.78,-9.03l0 -18.74 0 -10.14 -24.51 -0.04c-1.22,-16.35 11.73,-23.6 24.51,-23.7l0 -11.95 0 -121.56c0,-4.97 4.06,-9.03 9.03,-9.03l104.44 0 0.36 0c4.83,0.14 8.77,4.12 8.77,8.97 0,20.16 0,61.6 0,81.75zm-43.4 -57.16c6.7,0 12.13,5.43 12.13,12.13 0,6.7 -5.43,12.13 -12.13,12.13 -6.7,0 -12.13,-5.43 -12.13,-12.13 0,-6.7 5.43,-12.13 12.13,-12.13zm-70.28 -29.32l104.77 0c1.28,0 2.45,0.53 3.3,1.37 0.84,0.85 1.37,2.01 1.37,3.3l0 75.8 -2.83 0 0 -75.8c0,-0.5 -0.21,-0.96 -0.54,-1.3 -0.33,-0.33 -0.79,-0.54 -1.3,-0.54l-19.75 0c-6.32,0 -2.33,7.35 -9.28,7.35l-46.71 0c-6.68,0 -2.57,-7.35 -9.28,-7.35l-19.75 0c-0.5,0 -0.96,0.21 -1.3,0.54 -0.33,0.33 -0.54,0.79 -0.54,1.3l0 133.63 -2.83 0 0 -133.63c0,-1.29 0.53,-2.45 1.37,-3.3 0.85,-0.84 2.01,-1.37 3.3,-1.37zm-1.84 162.03l0 28.97c0,0.5 0.21,0.96 0.54,1.3 0.33,0.33 0.79,0.54 1.3,0.54l68.07 0 -2.26 2.83 -65.82 0c-1.29,0 -2.45,-0.53 -3.3,-1.37 -0.84,-0.84 -1.37,-2.01 -1.37,-3.3l0 -28.97 2.83 0zm111.27 -56.76l0 85.73c0,1.29 -0.52,2.45 -1.37,3.3 -0.85,0.85 -2.01,1.37 -3.3,1.37l-8.76 0 2.25 -2.83 6.51 0c0.5,0 0.96,-0.21 1.3,-0.54 0.33,-0.33 0.54,-0.8 0.54,-1.3l0 -85.73 2.83 0z"></path> </g> </svg> 