<?xml version="1.0" encoding="UTF-8"?> <!-- Creator: CorelDRAW 2021.5 --> <svg xmlns="http://www.w3.org/2000/svg" xmlns:xlink="http://www.w3.org/1999/xlink" xmlns:xodm="http://www.corel.com/coreldraw/odm/2003" xml:space="preserve" width="14.1111mm" height="14.1111mm" style="shape-rendering:geometricPrecision; text-rendering:geometricPrecision; image-rendering:optimizeQuality; fill-rule:evenodd; clip-rule:evenodd" viewBox="0 0 32.35 32.35"> <defs> <style type="text/css"> <![CDATA[ .fil0 {fill:#007336} .fil1 {fill:white} ]]> </style> </defs> <g id="Layer_x0020_1"> <metadata id="CorelCorpID_0Corel-Layer"></metadata> <rect class="fil0" x="-0" y="-0" width="32.35" height="32.35" rx="4.04" ry="4.04"></rect> <path class="fil1" d="M8.69 8.59l-0 1.75 -1.76 1.23c-0.48,0.34 -0.77,0.89 -0.77,1.47l0 10.72c0,0.99 0.8,1.79 1.79,1.79l16.43 0c0.99,0 1.8,-0.8 1.8,-1.79l0 -10.72c0,-0.59 -0.29,-1.13 -0.77,-1.47l-1.76 -1.23 0 -1.75c0,-0.99 -0.8,-1.79 -1.8,-1.79l-11.37 0c-0.99,0 -1.79,0.8 -1.79,1.79zm-1.47 14.81l0 -9.73 5.84 5.84 -5.84 3.89zm17.89 0l-5.84 -3.89 5.84 -5.84 0 9.73zm-6.74 -4.49l-1.21 -0.81c-0.6,-0.4 -1.39,-0.4 -1.99,0l-1.21 0.81 -4.21 -4.21 0 -6.1c0,-0.4 0.33,-0.73 0.73,-0.73l11.37 0c0.4,0 0.73,0.33 0.73,0.73l0 6.1 -4.21 4.21zm-4.63 -9.05c0,0.29 0.24,0.53 0.53,0.53l3.79 0c0.29,0 0.53,-0.24 0.53,-0.53 0,-0.29 -0.24,-0.53 -0.53,-0.53l-3.79 0c-0.29,0 -0.53,0.24 -0.53,0.53zm-2 1.36c-0.29,0 -0.53,0.24 -0.53,0.53 0,0.29 0.24,0.53 0.53,0.53l8.85 0c0.29,0 0.53,-0.24 0.53,-0.53 0,-0.29 -0.24,-0.53 -0.53,-0.53l-8.85 0zm9.38 2.43c0,-0.29 -0.24,-0.53 -0.53,-0.53l-8.85 0c-0.29,0 -0.53,0.24 -0.53,0.53 0,0.29 0.24,0.53 0.53,0.53l8.85 0c0.29,0 0.53,-0.24 0.53,-0.53z"></path> </g> </svg> 