<?xml version="1.0" encoding="UTF-8"?> <!-- Creator: CorelDRAW 2021.5 --> <svg xmlns="http://www.w3.org/2000/svg" xmlns:xlink="http://www.w3.org/1999/xlink" xmlns:xodm="http://www.corel.com/coreldraw/odm/2003" xml:space="preserve" width="14.1111mm" height="14.1111mm" style="shape-rendering:geometricPrecision; text-rendering:geometricPrecision; image-rendering:optimizeQuality; fill-rule:evenodd; clip-rule:evenodd" viewBox="0 0 320.98 320.98"> <defs> <style type="text/css"> <![CDATA[ .fil0 {fill:#007336} .fil1 {fill:white} ]]> </style> </defs> <g id="Layer_x0020_1"> <metadata id="CorelCorpID_0Corel-Layer"></metadata> <rect class="fil0" x="-0" y="-0" width="320.98" height="320.98" rx="40.12" ry="40.12"></rect> <path class="fil1" d="M244.38 185.85l0 81.72c0,2.9 -2.36,5.26 -5.26,5.26l-157.27 0c-2.9,0 -5.26,-2.36 -5.26,-5.26l0 -180.69c0,-1.51 0.65,-2.93 1.73,-3.89l33.11 -33.11c0.28,-0.31 0.63,-0.62 1.05,-0.89l0.02 -0.01c0.95,-0.63 2.12,-0.91 3.21,-0.82l123.42 -0c2.9,0 5.26,2.36 5.26,5.26l0 79.7 25.04 -25.04c7.25,-7.25 19.12,-7.31 26.37,-0.03 3.52,3.53 5.44,8.21 5.44,13.2 0,4.97 -1.92,9.68 -5.44,13.2l-51.4 51.4zm-134.32 -104.22l0 -15.52 -15.52 15.52 15.52 0zm123.84 180.69l-0 -65.86 -16.14 16.11c-0.44,0.44 -0.96,0.76 -1.62,1.06 -0.08,0.03 -0.14,0.05 -0.19,0.07 -0.13,0.07 -0.28,0.12 -0.46,0.18l-26 7.08c-0.41,0.16 -0.93,0.23 -1.46,0.23 -0.15,0 -0.31,-0.01 -0.46,-0.03 -0.96,0.93 -2.23,1.5 -3.62,1.5l-80.31 0c-2.9,0 -5.26,-2.36 -5.26,-5.26 0,-2.9 2.36,-5.26 5.26,-5.26l79.94 0 6.51 -23.85 0.07 -0.14c0.02,-0.04 0.04,-0.1 0.06,-0.15 0.02,-0.05 0.04,-0.12 0.08,-0.2 0.15,-0.35 0.32,-0.66 0.5,-0.94l0 -0.16 43.06 -43.06 0 -84.96 -113.28 0 0 28.2c0,2.9 -2.36,5.26 -5.26,5.26l-28.2 0 0 170.17 146.78 0zm-130.29 -140.06c-2.9,0 -5.26,-2.36 -5.26,-5.26 0,-2.9 2.36,-5.26 5.26,-5.26l113.77 0c2.9,0 5.26,2.36 5.26,5.26 0,2.9 -2.36,5.26 -5.26,5.26l-113.77 0zm-5.26 115.2c0,-2.9 2.36,-5.26 5.26,-5.26l113.77 0c2.9,0 5.26,2.36 5.26,5.26 0,2.9 -2.36,5.26 -5.26,5.26l-113.77 0c-2.9,0 -5.26,-2.36 -5.26,-5.26zm5.26 -34.89c-2.9,0 -5.26,-2.36 -5.26,-5.26 0,-2.9 2.36,-5.26 5.26,-5.26l68.59 0c2.9,0 5.26,2.36 5.26,5.26 0,2.9 -2.36,5.26 -5.26,5.26l-68.59 0zm0 -20.08c-2.9,0 -5.26,-2.36 -5.26,-5.26 0,-2.9 2.36,-5.26 5.26,-5.26l68.59 0c2.9,0 5.26,2.36 5.26,5.26 0,2.9 -2.36,5.26 -5.26,5.26l-68.59 0zm0 -20.08c-2.9,0 -5.26,-2.36 -5.26,-5.26 0,-2.9 2.36,-5.26 5.26,-5.26l95.41 0c2.9,0 5.26,2.36 5.26,5.26 0,2.9 -2.36,5.26 -5.26,5.26l-95.41 0zm0 -20.08c-2.9,0 -5.26,-2.36 -5.26,-5.26 0,-2.9 2.36,-5.26 5.26,-5.26l113.77 0c2.9,0 5.26,2.36 5.26,5.26 0,2.9 -2.37,5.26 -5.26,5.26l-113.77 0zm94.16 57.65l-2.3 8.41 8.41 -2.3 -6.12 -6.11zm16.23 1.37l63.54 -63.55 -11.48 -11.48 -63.54 63.54 11.48 11.48zm59.52 -82.48l11.48 11.48 3.37 -3.36c1.53,-1.54 2.38,-3.58 2.38,-5.74 0,-2.18 -0.84,-4.2 -2.38,-5.74 -3.17,-3.17 -8.31,-3.17 -11.48,0l-3.36 3.37z"></path> </g> </svg> 