<?xml version="1.0" encoding="UTF-8"?> <!-- Creator: CorelDRAW 2021.5 --> <svg xmlns="http://www.w3.org/2000/svg" xmlns:xlink="http://www.w3.org/1999/xlink" xmlns:xodm="http://www.corel.com/coreldraw/odm/2003" xml:space="preserve" width="14.1111mm" height="14.1111mm" style="shape-rendering:geometricPrecision; text-rendering:geometricPrecision; image-rendering:optimizeQuality; fill-rule:evenodd; clip-rule:evenodd" viewBox="0 0 34.63 34.63"> <defs> <style type="text/css"> <![CDATA[ .fil0 {fill:#007336} .fil1 {fill:white} ]]> </style> </defs> <g id="Layer_x0020_1"> <metadata id="CorelCorpID_0Corel-Layer"></metadata> <rect class="fil0" x="-0" y="-0" width="34.63" height="34.63" rx="4.33" ry="4.33"></rect> <path class="fil1" d="M11.82 20.61l1.65 -1.65c0.11,-0.11 0.25,-0.17 0.4,-0.17l0.72 0 0 -0.05c-1.6,-0.95 -2.58,-2.68 -2.58,-4.54l0 -7.39c0,-1.45 1.18,-2.63 2.63,-2.63l3.09 0c0.75,0 1.47,0.31 1.98,0.86l0.6 0c1.26,0 2.29,1.02 2.29,2.29l0 6.88c0,1.86 -0.98,3.6 -2.58,4.54l0 0.05 0.72 0c0.15,0 0.29,0.06 0.4,0.17l1.65 1.65 4.12 2.06c0.77,0.39 1.26,1.18 1.26,2.04l0 5.52 -1.13 0 0 -5.52c0,-0.44 -0.25,-0.84 -0.64,-1.03l-1.95 -0.98 -1.05 2.46c-0.05,0.12 -0.15,0.22 -0.27,0.28l-1.02 0.51 0.73 0.73c0.18,0.18 0.22,0.46 0.09,0.68l-1.79 3.13 -0.98 -0.56 1.57 -2.75 -1.9 -1.9 -1.99 2.84 0 2.11 -1.13 0 0 -2.11 -1.99 -2.84 -1.9 1.9 1.57 2.75 -0.98 0.56 -1.79 -3.13c-0.13,-0.22 -0.09,-0.5 0.09,-0.68l0.73 -0.73 -1.02 -0.51c-0.12,-0.06 -0.21,-0.16 -0.27,-0.28l-1.05 -2.46 -1.95 0.98c-0.39,0.2 -0.64,0.59 -0.64,1.03l0 5.52 -1.13 0 0 -5.52c0,-0.87 0.49,-1.66 1.26,-2.04l4.12 -2.06zm2.13 -0.52l-1.03 1.02 1.38 1.66 1.31 -1.57 -1.67 -1.11zm2.77 1.56l-0.51 0.62 0.55 0.83 1.11 0 0.55 -0.83 -0.51 -0.62 -1.19 0zm-0.86 2.14l-0.41 -0.61 -0.43 0.52 0.69 0.99 0.15 -0.89zm1.08 0.44l-0.3 1.78 0.68 0.97 0.68 -0.97 -0.3 -1.78 -0.76 0zm1.83 -0.44l0.15 0.89 0.69 -0.99 -0.43 -0.52 -0.41 0.61zm-5.43 1.33l0.77 -0.77 -0.24 -0.35 -1.85 -2.22 -0.84 0.42 1 2.33 1.17 0.58zm9.13 -0.58l1 -2.33 -0.84 -0.42 -1.85 2.21 -0.24 0.35 0.77 0.77 1.17 -0.58zm-0.76 -3.42l-1.03 -1.02 -1.67 1.11 1.31 1.57 1.38 -1.66zm-1.34 -14.94c0.07,0.24 0.1,0.48 0.1,0.72l0 0.54 1.02 0.61 0 -0.72c0,-0.62 -0.5,-1.13 -1.11,-1.15zm-7.21 1.87l1.29 -0.77c0.18,-0.11 0.4,-0.11 0.58,0l1.78 1.07c0.31,0.19 0.7,0.19 1.01,0l1.51 -0.9 0 -0.54c0,-0.87 -0.71,-1.58 -1.58,-1.58l-3.09 0c-0.83,0 -1.5,0.67 -1.5,1.5l0 1.23zm8.32 1.32l-1.58 -0.95 -1.49 0.89c-0.67,0.4 -1.51,0.4 -2.18,0l-1.49 -0.89 -1.58 0.95 0 4.84c0,2.3 1.86,4.16 4.16,4.16 2.3,0 4.16,-1.86 4.16,-4.16l0 -4.84zm-3.4 2.64l0.66 1.77c0.28,0.74 -0.64,1.43 -1.43,1.43 -0.57,0 -1.06,-0.34 -1.29,-0.82 -0.08,-0.17 -0.07,-0.34 0.03,-0.5 0.1,-0.15 0.26,-0.24 0.44,-0.24l0.11 0c0.2,0 0.37,0.1 0.46,0.27 0.05,0.09 0.15,0.16 0.26,0.16 0.16,0 0.35,-0.14 0.29,-0.29l-0.66 -1.77c-0.1,-0.27 0.23,-0.52 0.52,-0.52l0.09 0c0.29,0 0.42,0.25 0.52,0.52zm1.08 4.59c-1.02,1 -2.66,1 -3.69,0 -0.1,-0.1 -0.16,-0.22 -0.16,-0.37 -0,-0.14 0.05,-0.27 0.15,-0.37l0.07 -0.07c0.2,-0.2 0.53,-0.2 0.73,-0 0.59,0.57 1.52,0.57 2.11,-0 0.2,-0.2 0.53,-0.2 0.73,0.01l0.07 0.07c0.1,0.1 0.15,0.23 0.15,0.37 -0,0.14 -0.05,0.27 -0.16,0.37zm-0.26 -6.4l1.99 0 0 1.13 -1.99 0 0 -1.13zm-4.72 0l1.99 0 0 1.13 -1.99 0 0 -1.13zm5.72 1.72c0.31,0 0.57,0.25 0.57,0.57 0,0.31 -0.25,0.57 -0.57,0.57 -0.31,0 -0.57,-0.25 -0.57,-0.57 0,-0.31 0.25,-0.57 0.57,-0.57zm-4.73 0c0.31,0 0.57,0.25 0.57,0.57 0,0.31 -0.25,0.57 -0.57,0.57 -0.31,0 -0.57,-0.25 -0.57,-0.57 0,-0.31 0.25,-0.57 0.57,-0.57zm0.57 7.34l0 0.66 0.89 0.6 1.38 0 0.89 -0.6 0 -0.66c-0.51,0.16 -1.05,0.24 -1.58,0.24 -0.54,0 -1.07,-0.08 -1.58,-0.24z"></path> </g> </svg> 