<?xml version="1.0" encoding="UTF-8"?> <!-- Creator: CorelDRAW 2021.5 --> <svg xmlns="http://www.w3.org/2000/svg" xmlns:xlink="http://www.w3.org/1999/xlink" xmlns:xodm="http://www.corel.com/coreldraw/odm/2003" xml:space="preserve" width="14.1111mm" height="14.1111mm" style="shape-rendering:geometricPrecision; text-rendering:geometricPrecision; image-rendering:optimizeQuality; fill-rule:evenodd; clip-rule:evenodd" viewBox="0 0 694.59 694.59"> <defs> <style type="text/css"> <![CDATA[ .fil0 {fill:#007336} .fil1 {fill:white;fill-rule:nonzero} ]]> </style> </defs> <g id="Layer_x0020_1"> <metadata id="CorelCorpID_0Corel-Layer"></metadata> <rect class="fil0" x="-0" y="-0" width="694.59" height="694.59" rx="86.82" ry="86.82"></rect> <path class="fil1" d="M512.27 104.19l-329.94 0c-6.36,0 -11.57,5.21 -11.57,11.58l0 46.31 -17.37 0c-6.37,0 -11.58,5.21 -11.58,11.57 0,6.37 5.21,11.58 11.58,11.58l17.37 0 0 34.73 -17.37 0c-6.37,0 -11.58,5.21 -11.58,11.58 0,6.36 5.21,11.57 11.58,11.57l17.37 0 0 34.73 -17.37 0c-6.37,0 -11.58,5.21 -11.58,11.58 0,6.36 5.21,11.58 11.58,11.58l17.37 0 0 34.73 -17.37 0c-6.37,0 -11.58,5.21 -11.58,11.57 0,6.37 5.21,11.58 11.58,11.58l17.37 0 0 34.73 -17.37 0c-6.37,0 -11.58,5.21 -11.58,11.58 0,6.36 5.21,11.57 11.58,11.57l17.37 0 0 34.73 -17.37 0c-6.37,0 -11.58,5.21 -11.58,11.58 0,6.36 5.21,11.58 11.58,11.58l17.37 0 0 34.73 -17.37 0c-6.37,0 -11.58,5.21 -11.58,11.57 0,6.37 5.21,11.58 11.58,11.58l17.37 0 0 46.31c0,6.36 5.21,11.57 11.57,11.57l329.94 0c6.36,0 11.57,-5.21 11.57,-11.57l0 -463.07c0,-6.37 -5.21,-11.58 -11.58,-11.58l0 0zm-11.58 463.07l-306.78 0 0 -34.73 17.37 0c6.36,0 11.57,-5.21 11.57,-11.58 0,-6.36 -5.21,-11.57 -11.57,-11.57l-17.37 0 0 -34.73 17.37 0c6.36,0 11.57,-5.21 11.57,-11.58 0,-6.37 -5.21,-11.58 -11.57,-11.58l-17.37 0 0 -34.73 17.37 0c6.36,0 11.57,-5.21 11.57,-11.57 0,-6.37 -5.21,-11.58 -11.57,-11.58l-17.37 0 0 -34.73 17.37 0c6.36,0 11.57,-5.21 11.57,-11.58 0,-6.36 -5.21,-11.57 -11.57,-11.57l-17.37 0 0 -34.73 17.37 0c6.36,0 11.57,-5.21 11.57,-11.58 0,-6.37 -5.21,-11.58 -11.57,-11.58l-17.37 0 0 -34.73 17.37 0c6.36,0 11.57,-5.21 11.57,-11.57 0,-6.37 -5.21,-11.58 -11.57,-11.58l-17.37 0 0 -34.73 17.37 0c6.36,0 11.57,-5.21 11.57,-11.58 0,-6.36 -5.21,-11.57 -11.57,-11.57l-17.37 0 0 -34.73 306.78 0 0 439.91zm-231.54 -277.84l185.23 0c6.37,0 11.58,-5.21 11.58,-11.58l0 -104.19c0,-6.37 -5.21,-11.58 -11.58,-11.58l-185.23 0c-6.37,0 -11.58,5.21 -11.58,11.58l0 104.19c0,6.37 5.21,11.58 11.58,11.58l-0 0zm11.58 -104.19l162.07 0 0 81.04 -162.07 0 0 -81.04zm150.49 150.5c0,6.36 -5.21,11.57 -11.57,11.57l-115.77 0c-6.37,0 -11.58,-5.21 -11.58,-11.57 0,-6.37 5.21,-11.58 11.58,-11.58l115.77 0c6.36,0 11.57,5.21 11.57,11.58l0 0zm0 57.88c0,6.37 -5.21,11.58 -11.57,11.58l-115.77 0c-6.37,0 -11.58,-5.21 -11.58,-11.58 0,-6.37 5.21,-11.58 11.58,-11.58l115.77 0c6.36,0 11.57,5.21 11.57,11.58l0 0z"></path> </g> </svg> 