<?xml version="1.0" encoding="UTF-8"?> <!-- Creator: CorelDRAW 2021.5 --> <svg xmlns="http://www.w3.org/2000/svg" xmlns:xlink="http://www.w3.org/1999/xlink" xmlns:xodm="http://www.corel.com/coreldraw/odm/2003" xml:space="preserve" width="35.2778mm" height="35.2778mm" style="shape-rendering:geometricPrecision; text-rendering:geometricPrecision; image-rendering:optimizeQuality; fill-rule:evenodd; clip-rule:evenodd" viewBox="0 0 2579.74 2579.74"> <defs> <style type="text/css"> <![CDATA[ .fil2 {fill:#007336} .fil0 {fill:white;fill-opacity:0.501961} .fil1 {fill:url(#id0)} ]]> </style> <linearGradient id="id0" gradientUnits="userSpaceOnUse" x1="286.25" y1="219.12" x2="2310.77" y2="2243.64"> <stop offset="0" style="stop-opacity:1; stop-color:white"></stop> <stop offset="1" style="stop-opacity:1; stop-color:#E7F2EC"></stop> </linearGradient> </defs> <g id="Layer_x0020_1"> <metadata id="CorelCorpID_0Corel-Layer"></metadata> <path class="fil0" d="M257.98 0l2063.79 0c141.9,0 257.98,116.07 257.98,257.98l0 2063.79c0,141.9 -116.07,257.98 -257.98,257.98l-2063.79 0c-141.9,0 -257.98,-116.07 -257.98,-257.98l0 -2063.79c0,-141.9 116.07,-257.98 257.98,-257.98z"></path> <rect class="fil1" x="128.98" y="128.98" width="2321.78" height="2321.78" rx="128.99" ry="128.99"></rect> <path class="fil2" d="M2003.81 1120.44l-467.14 0c-15.9,0 -31.17,6.31 -42.41,17.56 -11.25,11.24 -17.56,26.49 -17.56,42.41l0 779.01c0,15.9 6.31,31.16 17.56,42.4 11.24,11.25 26.51,17.58 42.41,17.58l467.14 0c15.9,0 31.17,-6.33 42.41,-17.58 11.24,-11.24 17.57,-26.49 17.57,-42.4l0 -779.01c0,-15.91 -6.33,-31.17 -17.57,-42.41 -11.25,-11.25 -26.51,-17.56 -42.41,-17.56zm-186.63 856.28l-93.87 0c-12.29,-0.02 -22.26,-10.01 -22.26,-22.31 0,-12.31 9.97,-22.29 22.26,-22.31l93.87 0c12.3,0.02 22.27,10 22.27,22.31 0,12.3 -9.97,22.29 -22.27,22.31zm171.78 -112.29l0 0.01c0,13.8 -11.2,24.98 -24.99,24.98l-387.45 0c-13.81,0 -24.99,-11.18 -24.99,-24.98l0 -619.05c0,-6.63 2.64,-12.98 7.31,-17.67 4.69,-4.69 11.05,-7.33 17.68,-7.33l387.45 0c6.63,0 12.98,2.64 17.67,7.33 4.69,4.69 7.33,11.04 7.33,17.67l0 619.04zm-355.74 -56.65l274.04 -505.62 -274.04 0 0 505.62zm-1111.27 -219.17c15.92,27.88 38.93,51.06 66.69,67.19 27.76,16.13 59.28,24.65 91.4,24.68l714.94 0 -0.01 -158.94 -834.42 0c-15.96,0.04 -30.68,8.59 -38.65,22.4 -7.95,13.84 -7.93,30.86 0.06,44.67l0 0zm173.54 -935.87l1142.42 0 0 386.04 92.24 0 0 -431.5c-0.07,-8.29 -2.27,-16.42 -6.4,-23.63 -4.05,-7.12 -9.92,-13.03 -17.02,-17.14 -7.1,-4.1 -15.18,-6.22 -23.37,-6.18l-1233.34 0c-8.2,-0.03 -16.25,2.11 -23.35,6.21 -7.1,4.1 -12.98,10 -17.05,17.12 -4.12,7.2 -6.33,15.33 -6.38,23.62l0 826.94 92.24 0 0.01 -781.47zm101.6 781.46l57.94 0 316.97 -679.72 -374.9 0 -0.01 679.72zm779.69 -679.72l-184.64 0 -316.83 679.72 184.49 0 316.98 -679.72zm159.38 0l-58.08 0 -132.49 284.31 190.57 0 0 -284.31z"></path> </g> </svg> 