<?xml version="1.0" encoding="UTF-8"?> <!-- Creator: CorelDRAW 2021.5 --> <svg xmlns="http://www.w3.org/2000/svg" xmlns:xlink="http://www.w3.org/1999/xlink" xmlns:xodm="http://www.corel.com/coreldraw/odm/2003" xml:space="preserve" width="35.2778mm" height="35.2778mm" style="shape-rendering:geometricPrecision; text-rendering:geometricPrecision; image-rendering:optimizeQuality; fill-rule:evenodd; clip-rule:evenodd" viewBox="0 0 874.23 874.23"> <defs> <style type="text/css"> <![CDATA[ .fil2 {fill:#007336} .fil0 {fill:white;fill-opacity:0.501961} .fil1 {fill:url(#id0)} ]]> </style> <linearGradient id="id0" gradientUnits="userSpaceOnUse" x1="97.01" y1="74.26" x2="783.08" y2="760.33"> <stop offset="0" style="stop-opacity:1; stop-color:white"></stop> <stop offset="1" style="stop-opacity:1; stop-color:#E7F2EC"></stop> </linearGradient> </defs> <g id="Layer_x0020_1"> <metadata id="CorelCorpID_0Corel-Layer"></metadata> <path class="fil0" d="M87.42 0l699.38 0c48.09,0 87.42,39.34 87.42,87.42l0 699.38c0,48.09 -39.34,87.42 -87.42,87.42l-699.38 0c-48.09,0 -87.42,-39.34 -87.42,-87.42l0 -699.38c0,-48.09 39.34,-87.42 87.42,-87.42z"></path> <rect class="fil1" x="43.71" y="43.71" width="786.81" height="786.81" rx="43.71" ry="43.71"></rect> <path class="fil2" d="M626.2 368.67c0,-5.3 -2.11,-10.39 -5.86,-14.14 -3.75,-3.75 -8.84,-5.86 -14.14,-5.86l-411.35 0c-5.31,0 -10.39,2.11 -14.14,5.86 -3.75,3.75 -5.86,8.84 -5.86,14.14l0 41.78 451.35 0 0 -41.78zm-431.35 260.57l411.35 0c5.31,0 10.39,-2.11 14.14,-5.86 3.75,-3.75 5.86,-8.84 5.86,-14.15l0 -175.47 -451.35 0 0 175.47c0,5.31 2.11,10.39 5.86,14.15 3.75,3.75 8.84,5.86 14.14,5.86l0 0zm335.52 -55.08c0,1.52 -0.6,2.98 -1.68,4.06 -1.08,1.08 -2.54,1.68 -4.06,1.68l-87.59 0c-1.52,0 -2.98,-0.6 -4.06,-1.68 -1.08,-1.08 -1.68,-2.54 -1.68,-4.06l0 -11.82c0,-1.52 0.6,-2.99 1.68,-4.06 1.08,-1.08 2.54,-1.68 4.06,-1.68l87.59 0c1.52,0 2.98,0.6 4.06,1.68 1.08,1.08 1.68,2.54 1.68,4.06l0 11.82zm-139.88 -58.45c0,-1.52 0.61,-2.98 1.68,-4.06 1.08,-1.08 2.54,-1.68 4.06,-1.68l169.19 0c1.52,0 2.98,0.61 4.06,1.68 1.08,1.08 1.69,2.54 1.69,4.06l0 11.82c0,1.52 -0.61,2.99 -1.69,4.06 -1.08,1.08 -2.54,1.68 -4.06,1.68l-169.19 0c-1.52,0 -2.98,-0.6 -4.06,-1.68 -1.08,-1.08 -1.68,-2.54 -1.68,-4.06l0 -11.82zm-163.19 -29.06c0,-6.44 5.22,-11.66 11.66,-11.66l69.94 0c3.09,0 6.06,1.23 8.24,3.41 2.19,2.19 3.41,5.15 3.41,8.24l0 69.94c0,3.09 -1.23,6.06 -3.41,8.24 -2.18,2.19 -5.15,3.41 -8.24,3.41l-69.94 0c-6.44,0 -11.66,-5.22 -11.66,-11.66l0 -69.94zm422.2 -141.3l0 180.2 29.88 0c5.31,0 10.4,-2.1 14.14,-5.86 3.75,-3.75 5.86,-8.84 5.86,-14.14l0 -240.57c0,-5.31 -2.1,-10.39 -5.86,-14.15 -3.75,-3.75 -8.84,-5.86 -14.14,-5.86l-411.35 0c-5.31,0 -10.39,2.11 -14.15,5.86 -3.75,3.75 -5.86,8.84 -5.86,14.15l0 60.37 381.48 0c5.3,0 10.39,2.11 14.14,5.86 3.75,3.75 5.86,8.83 5.86,14.14l-0 -0z"></path> </g> </svg> 