<?xml version="1.0" encoding="UTF-8"?> <!-- Creator: CorelDRAW 2021.5 --> <svg xmlns="http://www.w3.org/2000/svg" xmlns:xlink="http://www.w3.org/1999/xlink" xmlns:xodm="http://www.corel.com/coreldraw/odm/2003" xml:space="preserve" width="35.2778mm" height="35.2778mm" style="shape-rendering:geometricPrecision; text-rendering:geometricPrecision; image-rendering:optimizeQuality; fill-rule:evenodd; clip-rule:evenodd" viewBox="0 0 874.23 874.23"> <defs> <style type="text/css"> <![CDATA[ .fil2 {fill:#007336} .fil0 {fill:white;fill-opacity:0.501961} .fil1 {fill:url(#id0)} ]]> </style> <linearGradient id="id0" gradientUnits="userSpaceOnUse" x1="97.01" y1="74.26" x2="783.08" y2="760.33"> <stop offset="0" style="stop-opacity:1; stop-color:white"></stop> <stop offset="1" style="stop-opacity:1; stop-color:#E7F2EC"></stop> </linearGradient> </defs> <g id="Layer_x0020_1"> <metadata id="CorelCorpID_0Corel-Layer"></metadata> <path class="fil0" d="M87.42 0l699.38 0c48.09,0 87.42,39.34 87.42,87.42l0 699.38c0,48.09 -39.34,87.42 -87.42,87.42l-699.38 0c-48.09,0 -87.42,-39.34 -87.42,-87.42l0 -699.38c0,-48.09 39.34,-87.42 87.42,-87.42z"></path> <rect class="fil1" x="43.71" y="43.71" width="786.81" height="786.81" rx="43.71" ry="43.71"></rect> <path class="fil2" d="M531.29 637.68c0,7.39 -6.17,13.37 -13.78,13.37 -7.61,0 -13.78,-5.98 -13.78,-13.37 0,-7.38 6.17,-13.37 13.78,-13.37 7.61,0 13.78,5.99 13.78,13.37zm-160.76 0c0,7.39 -6.18,13.37 -13.79,13.37 -7.61,0 -13.79,-5.98 -13.79,-13.37 0,-7.38 6.18,-13.37 13.79,-13.37 7.62,0 13.79,5.99 13.79,13.37zm66.6 -40.11c-22.46,0 -40.67,17.96 -40.67,40.12 0,22.16 18.21,40.12 40.67,40.12 22.46,0 40.68,-17.96 40.68,-40.12 0,-22.16 -18.21,-40.12 -40.68,-40.12zm114.32 77.55c-11.09,0 -20.09,8.98 -20.09,20.06l-188.17 -0c0,-11.07 -9.13,-20.06 -20.4,-20.06l0 -74.88c11.08,0 20.06,-8.98 20.06,-20.06l188.36 0c0,11.08 9.06,20.06 20.24,20.06l-0 74.88zm9.47 -117.67l-247.58 0c-8.75,0 -15.85,7.09 -15.85,15.84l0 128.77c0,8.75 7.09,15.85 15.85,15.85l247.58 0c8.75,0 15.85,-7.1 15.85,-15.85l0 -128.77c0,-8.75 -7.09,-15.84 -15.85,-15.84l0 0zm-29.41 -142.12c-0.26,-0.04 -0.51,-0.05 -0.75,-0.1 -2.01,-0.26 -4.03,-0.49 -6.07,-0.67 -0.01,0.2 -0.07,0.4 -0.07,0.6 -0.04,0.6 -0.13,1.18 -0.21,1.79 -0.36,3.37 -1.38,6.65 -2.96,9.81 -10.59,26.68 -44.9,77.25 -65.08,105.96l-4.17 -59.65c5.9,-3.01 10.98,-8.03 14.22,-13.84 2.35,-4.17 3.77,-8.73 3.77,-13.38 0,0 -15.07,6.67 -30.44,6.67 -0.87,0 -1.75,-0 -2.63,-0.06 -0.88,0.06 -1.77,0.06 -2.65,0.06 -15.38,0 -30.44,-6.67 -30.44,-6.67 0,4.65 1.43,9.21 3.77,13.38 3.25,5.81 8.35,10.81 14.23,13.84l-4.17 59.65c-20.18,-28.72 -54.48,-79.28 -65.08,-105.96 -1.58,-3.15 -2.58,-6.44 -2.96,-9.81 -0.07,-0.61 -0.16,-1.18 -0.19,-1.79 -0.02,-0.19 -0.07,-0.4 -0.07,-0.6 -2.05,0.19 -4.06,0.42 -6.07,0.67 -0.26,0.05 -0.52,0.06 -0.76,0.1 -70.17,9.77 -124.16,70.01 -124.16,142.87 0,49.47 24.92,68.14 62.87,75.19l0 -60.1c0,-17.58 14.31,-31.89 31.89,-31.89l247.58 0c17.58,0 31.89,14.3 31.89,31.89l0 60.1c37.95,-7.05 62.87,-25.72 62.87,-75.19 0.01,-72.87 -53.99,-133.11 -124.15,-142.87l-0 0zm-160.94 -178.77c-5.61,6.13 -6.41,23.43 -6.47,29.84 -0.06,7.31 0.39,14.68 1.16,21.95 0.33,3.14 1.38,8.21 1.38,11.19l0 16.77 -13.07 -9.14c4.17,23.5 13.04,46.92 27.54,65.57 13.7,17.64 32.98,31.31 56.02,31.31 23.03,0 42.31,-13.67 56.01,-31.31 14.49,-18.66 23.36,-42.09 27.53,-65.58l-16.44 11.46 3.48 -20.55c1.7,-10.09 5.85,-51.45 -3.96,-61.55 -19.83,8.71 -45.7,14.48 -66.39,15.05l-0.24 0 -0.24 -0c-20.66,-0.57 -46.5,-6.33 -66.32,-15.02zm-41.22 51.94c0.09,1.03 0.16,2.05 0.26,3.08 6.88,77.8 52.39,137.9 107.53,137.9 55.13,0 100.64,-60.1 107.51,-137.9 0.11,-1.02 0.18,-2.05 0.27,-3.08 0.5,-3.38 0.82,-6.8 1.02,-10.26 0.13,-2.36 0.23,-4.75 0.23,-7.15 0,-5.9 -0.42,-11.73 -1.25,-17.41 -7.97,-55.13 -53.21,-97.37 -107.79,-97.37 -54.6,0 -99.81,42.24 -107.78,97.37 -0.83,5.68 -1.24,11.51 -1.24,17.41 0,2.41 0.1,4.79 0.23,7.15 0.18,3.47 0.52,6.89 1.01,10.26l0 0z"></path> </g> </svg> 