<?xml version="1.0" encoding="UTF-8"?> <!-- Creator: CorelDRAW 2021.5 --> <svg xmlns="http://www.w3.org/2000/svg" xmlns:xlink="http://www.w3.org/1999/xlink" xmlns:xodm="http://www.corel.com/coreldraw/odm/2003" xml:space="preserve" width="35.2778mm" height="35.2778mm" style="shape-rendering:geometricPrecision; text-rendering:geometricPrecision; image-rendering:optimizeQuality; fill-rule:evenodd; clip-rule:evenodd" viewBox="0 0 2395.62 2395.62"> <defs> <style type="text/css"> <![CDATA[ .fil2 {fill:#007336} .fil0 {fill:white;fill-opacity:0.501961} .fil1 {fill:url(#id0)} ]]> </style> <linearGradient id="id0" gradientUnits="userSpaceOnUse" x1="265.82" y1="203.48" x2="2145.84" y2="2083.5"> <stop offset="0" style="stop-opacity:1; stop-color:white"></stop> <stop offset="1" style="stop-opacity:1; stop-color:#E7F2EC"></stop> </linearGradient> </defs> <g id="Layer_x0020_1"> <metadata id="CorelCorpID_0Corel-Layer"></metadata> <path class="fil0" d="M239.56 0l1916.49 0c131.77,0 239.56,107.79 239.56,239.56l0 1916.49c0,131.77 -107.79,239.56 -239.56,239.56l-1916.49 0c-131.77,0 -239.56,-107.79 -239.56,-239.56l0 -1916.49c0,-131.77 107.79,-239.56 239.56,-239.56z"></path> <rect class="fil1" x="119.77" y="119.77" width="2156.07" height="2156.07" rx="119.78" ry="119.78"></rect> <path class="fil2" d="M1584.78 1824.28c10.23,-16.18 11.61,-32.55 25.59,-41.09l19.11 41.61c15.41,-14.94 13.68,-30.36 26.96,-45.4l16.75 33.53c9.75,15.47 1.59,4.85 10.8,12.64 15.67,-40.98 26.71,-39.37 24.09,-67.15l-22.98 -117.81c4.12,-21.01 -5.95,-4.2 10.52,-18.42 6.27,36.66 14.57,74.6 22.46,114.02l19.18 91.04c4.94,29.87 -2.49,28.24 -4.04,30.63 -17.99,-10.1 -14.5,-22.49 -29.11,-42.41l-20.5 46.1c-18.07,-14.02 -11.03,-23.5 -27.16,-43.57l-25.59 40.07c-0.92,-1.11 -2.21,-4.3 -2.61,-3.46l-16.09 -36.94c-27.03,18.7 -9.82,32.53 -32.47,40.74l-19.22 -40.3c-22.16,18.84 -5.02,32.75 -31.96,41.1 -10.93,-17.19 36.3,-203.67 42.5,-236.74 14.92,12.85 12.75,-18.76 10.38,27.48 -1.69,33.11 -54.04,139.15 3.42,174.35zm571.28 -612.65l0 -27.65 -944.42 0 0 -944.42 -27.66 0 0 944.42 -64.84 0 -879.57 0 0 27.65 879.57 0 64.84 0 0 944.42 27.66 0 0 -944.42 944.42 0zm-1493.48 -504.75l54.6 0.96 0.81 -69.69 -55.24 0.12 -0.18 68.61zm844.85 709.04c7.22,13.58 -6.99,10.02 56.95,12.25l169.08 8.47c34.09,1.29 16.64,0.68 27.42,-3.36 0.86,-0.33 2.32,-1.3 3.42,-2.04 -6.3,-22.1 -66.83,-14.05 -120.56,-17.5 -22.99,-1.48 -46.14,-2.14 -69.2,-3.24 -30.76,-1.46 -52.23,-7.24 -67.11,5.42zm0.24 -30.63c7.9,13.16 -1.31,9.26 51.93,11.67 43.35,1.96 186.66,13.91 204.11,3.65 -3.2,-19.48 8.45,-12.46 -56.31,-15.64l-169 -8.42c-50.56,-2.19 -20.62,0.83 -30.73,8.74zm0.61 -35.73c5.04,22.55 23.31,13.45 50.61,15.31l189.81 8.26c24.23,-4.45 6.57,0.46 15.82,-8.26 -6.63,-13.17 12.47,-9.77 -53.26,-12.7 -43.66,-1.94 -186.08,-14.84 -202.97,-2.61zm-7.84 112.3l238.14 8.37c34.92,-0.35 27.79,-4.69 32.34,-8.37 -10.6,-14.95 -2.3,-9.59 -25.99,-12.16 -10.13,-1.09 -25.54,-0.96 -37.1,-1.39l-185.07 -8.63c-21.04,2.11 -17.96,-0.89 -22.32,22.18zm16.21 -137.82c13.9,9.22 37.48,7.35 54.17,8.17 21.74,1.08 43.45,2.21 65.19,3.1 42.18,1.72 82.53,4.24 125.05,5.45 -7.03,-40.08 -25.46,-22.91 -57.27,-32.64 -19.98,-6.1 -19.03,-25.41 -58.28,-29.2 -34.08,-3.29 -43.24,4.67 -64.29,21.04 -29.11,22.61 -40.97,-6.95 -64.57,24.08zm476.96 -602.31c12.01,-19.65 9.45,-32.54 7.84,-57.42l-171.83 0.1c-5.2,59.34 -3.79,61.62 51.85,61.03 26.47,-0.28 91.17,3.98 112.14,-3.71zm-516.86 0c12.12,-18.19 9.51,-33.51 8.24,-57.75l-172.56 0.96c-3.41,58.31 -4.44,61.12 52.08,60.47 27.99,-0.31 89.77,5.02 112.24,-3.68zm-848.47 -132.45c45.74,64.93 100.07,43.41 121.75,-0.09 34.82,-0.58 36.45,-6.8 53.54,13.19 47.68,55.73 120.87,17.64 117.36,-44.04 -3.3,-57.97 -74.32,-84.65 -115.22,-36.91 -18.64,21.76 -19.39,15.62 -53.99,14.63 -41.83,-57.63 -82.56,-50.48 -124.06,-0.45l-39.43 0.67c-17.48,-22.85 -36.81,-48.61 -81.38,-36.46 -71.71,19.56 -55.42,142.86 32.69,128.18 19.42,-3.23 27.28,-11.53 37.18,-23.16 18.46,-21.72 14.8,-16.71 51.56,-15.54zm688.63 65.92l167.23 2.04c17.95,-65.16 116.09,-59.13 172.3,-58.78 43.13,0.27 138.84,-1.49 166.26,38.77l12.88 19.85 165.08 0.14c-12.69,-100.58 -49.35,-98.6 -122.8,-115.64 -145.75,-33.81 -288.9,-33.69 -433.36,-1.36 -20.74,4.64 -79.79,17.52 -92.54,25.53 -17.3,10.87 -36.21,61.67 -35.05,89.45zm-868.96 832.18c5.49,88.37 0.92,190.82 0.94,280.74 0.01,87.37 -16.97,151.05 30.83,177.81 38.66,21.64 10.23,18.99 35.33,32.39 23.77,-14.34 1.68,-12.12 26.46,-30.89 15.42,-11.69 28.11,-10.93 34.33,-47.12l31.11 -4.57c0.43,-120.07 2.61,-75.29 -30.08,-91.89 -6.65,-85.5 -1.18,-192.84 -1.11,-280.74 0.03,-34.65 4.1,-107.17 -0.85,-137.42 -3.59,-21.93 -13,-27.84 -30.36,-39.85 -31.09,-21.52 -5.91,-25.4 -29.5,-35.68 -22.21,10.33 -6.58,7.33 -17.09,22.12 -8.2,11.53 -8.2,7.61 -21.25,15.16 -18.51,10.71 -24.1,20.9 -27.94,43.12 -37.84,2.66 -31.46,-13.23 -30.98,88.92l30.16 7.91zm476.61 -10.21c23.37,14.01 19.77,-7.07 30.63,15.32 -0.14,91.86 0.07,183.76 0.03,275.63 -0.05,94.21 -17.55,148.92 31.27,177.78 41.74,24.67 7.38,19.88 35.26,32.32 12.65,-8.8 3.21,-1.49 10.36,-11.97 28.07,-41.06 40.48,-15.88 50.16,-66.09l31.04 -4.43c0.56,-119.39 2.82,-75.75 -30.24,-91.89 -5.77,-87.63 -0.96,-191.34 -0.96,-280.74 0,-239.18 -7.02,-124.25 -47.73,-197.15 -7.49,-13.4 2.7,-8.34 -12.63,-15.95 -16.85,7.36 -9.23,13.06 -19.36,25.19 -7.61,9.12 -17.19,8.75 -28.39,18.02 -13.04,10.82 -11.06,18.93 -17.57,27.73 -16.58,22.43 -6.93,2.09 -32.51,14.56l0.62 81.67zm-141.96 -86.05l-30.63 2.13 -0.35 83.92 31.03 7.85c6.1,87.78 0.78,195.27 0.67,283.1 -0.1,82.39 -18.36,148.44 30.15,176.84 14.27,8.35 10.55,2.76 20.2,15.01 12.54,15.92 -8.75,11.17 21.87,18.73 18.27,-28.96 -5.75,-13.07 29.05,-35.94 19.66,-12.93 19.15,-17.57 27.88,-43.69 33.36,-2.17 29.23,14.97 29.07,-85l-30.75 -10.21c-2.94,-71.02 5.89,-408.46 -6.22,-434.24 -5.66,-12.07 -12.11,-15.86 -20.07,-21.06 -30.61,-20.02 -9.19,1.2 -22.4,-23.92 -20.81,-39.55 -19.1,1.69 -38.35,16.28 -20.16,15.28 -34.3,12.3 -41.14,50.2zm-166 96.27c2.7,92.17 0.75,188.2 0.41,280.74 -0.33,90.45 -17.02,150.56 31.73,177.84 35.8,20.03 10.97,20.67 35.22,32.56 24.32,-15.32 0.65,-9.05 20.45,-27.37 6.91,-6.39 15,-7.4 23.79,-16.33 32.45,-32.98 -11.48,-28.46 47.48,-38.87l-0.15 -81.88c-17.2,-12.52 -11.85,-0.94 -30.27,-10.21 -7.59,-92.35 4.8,-377.27 -1.91,-417.32 -3.95,-23.62 -12.24,-28.15 -30.15,-40.72 -31.15,-21.87 -7.76,-24.93 -29.25,-35.58 -21.24,7.59 -6.76,6.34 -17.51,21.62 -15.97,22.71 -40.55,8.45 -49.32,58.17l-31.22 5.48 0.45 84.17 30.25 7.71zm-45.25 -721.62l-89.77 2.37 0.37 134.23 84.29 1.66c7.56,8.69 -0.31,-1.7 6.83,10.82 5.78,10.14 11.74,25.13 27.99,31.43 14.09,5.47 151.91,5.47 167.92,1.99 26.9,-5.83 26.41,-25.51 37.82,-43.53 54.68,-2.11 115.03,-8.43 144.72,35.02 24.15,35.33 12.65,66.63 17.11,110.71l146.95 0.92c9.41,-88.35 -7.22,-157.3 -54.04,-211.01 -68.35,-78.4 -146.54,-72.88 -254.74,-73.51 -27.77,-46.43 8,-49.12 -117.72,-48.57 -21.13,0.1 -61.49,-2.34 -80.31,1.11 -31.04,5.7 -26.54,21.38 -37.42,46.34zm1059.14 -36.05c151.04,-38.73 193.69,193.26 55.6,225.04 -151.4,34.86 -202.31,-187.42 -55.6,-225.04zm295.55 327.4c10.06,-111.7 -0.16,-143.49 -48.94,-223.71 -16.62,-27.34 -33.92,-53.74 -53.11,-84.54 -41.79,-67.07 -15.91,-36.29 -30.76,-112.16l-78.42 0 -2.72 45.08 -109.42 1.86 -0.54 -45.5 -82.66 -2.58c-9.91,120.75 8.7,45.72 -82.14,194.52 -16.96,27.77 -37.77,60.78 -46.93,90.43 -5.72,18.48 -14.72,106.59 -7.52,126.04 6.25,16.89 233.49,9.91 263.32,9.96 86.04,0.16 197.07,7.59 279.83,0.59zm-177.11 419.96c-38.54,-5.03 -97.81,-1.03 -138.56,-0.47 -164.22,2.27 -49.25,-4.7 -142.2,134.01 -19.94,29.76 -40.06,52.36 -57.63,80.8 -146.14,236.64 116.18,448.95 352.11,335.31 62.52,-30.12 106.36,-81.04 125.47,-149.84 35.81,-128.94 -63.58,-214.88 -105.85,-290.19 -21,-37.4 -16.6,-73.56 -33.34,-109.61z"></path> </g> </svg> 