<?xml version="1.0" encoding="UTF-8"?> <!-- Creator: CorelDRAW 2021.5 --> <svg xmlns="http://www.w3.org/2000/svg" xmlns:xlink="http://www.w3.org/1999/xlink" xmlns:xodm="http://www.corel.com/coreldraw/odm/2003" xml:space="preserve" width="35.2778mm" height="35.2778mm" style="shape-rendering:geometricPrecision; text-rendering:geometricPrecision; image-rendering:optimizeQuality; fill-rule:evenodd; clip-rule:evenodd" viewBox="0 0 2579.74 2579.74"> <defs> <style type="text/css"> <![CDATA[ .fil2 {fill:#007336} .fil0 {fill:white;fill-opacity:0.501961} .fil1 {fill:url(#id0)} ]]> </style> <linearGradient id="id0" gradientUnits="userSpaceOnUse" x1="286.25" y1="219.12" x2="2310.77" y2="2243.64"> <stop offset="0" style="stop-opacity:1; stop-color:white"></stop> <stop offset="1" style="stop-opacity:1; stop-color:#E7F2EC"></stop> </linearGradient> </defs> <g id="Layer_x0020_1"> <metadata id="CorelCorpID_0Corel-Layer"></metadata> <path class="fil0" d="M257.98 0l2063.79 0c141.9,0 257.98,116.07 257.98,257.98l0 2063.79c0,141.9 -116.07,257.98 -257.98,257.98l-2063.79 0c-141.9,0 -257.98,-116.07 -257.98,-257.98l0 -2063.79c0,-141.9 116.07,-257.98 257.98,-257.98z"></path> <rect class="fil1" x="128.98" y="128.98" width="2321.78" height="2321.78" rx="128.99" ry="128.99"></rect> <path class="fil2" d="M1410.61 1430.12l553.51 0 0 -525.83 -553.51 0.01 0 525.82zm387.45 276.75l0 332.1 304.43 0 0 -332.1 -304.43 0zm110.7 276.75l-55.35 0 0 -55.36 55.35 0 0 55.36zm191.77 -498.16l-1545.89 0c6.72,46.08 29.78,88.22 64.99,118.71 35.2,30.49 80.2,47.3 126.76,47.35l415.13 0 206.02 -0.5c62.76,-34.5 133.24,-52.55 204.86,-52.47 71.62,0.09 142.05,18.32 204.73,52.97l131.62 0c46.57,-0.06 91.57,-16.87 126.78,-47.35 35.21,-30.49 58.27,-72.61 64.98,-118.71l0.01 0zm-706.52 214.18l-7.09 3.85c-4.05,2.21 -8.6,3.38 -13.23,3.38l-212.16 0c-14.68,0 -28.75,5.82 -39.13,16.21 -10.38,10.38 -16.22,24.45 -16.22,39.14 0,14.68 5.84,28.75 16.22,39.14 10.38,10.38 24.45,16.21 39.13,16.21l221.4 0c7.34,0 14.38,2.92 19.57,8.11 5.2,5.19 8.1,12.23 8.1,19.57 0,7.33 -2.9,14.38 -8.1,19.56 -5.19,5.19 -12.23,8.11 -19.57,8.11l-276.75 0c-3.98,0 -7.91,-0.86 -11.53,-2.52l-314.7 -144.16c-9.56,-4.39 -20.07,-6.29 -30.57,-5.56 -10.5,0.75 -20.64,4.11 -29.49,9.8 -8.84,5.68 -16.13,13.5 -21.17,22.74 -5.04,9.23 -7.67,19.59 -7.66,30.11l0 6.01c-0.04,11.66 3.19,23.12 9.32,33.04 6.14,9.92 14.93,17.94 25.39,23.12l322.69 161.32c42.28,21.11 88.88,32.12 136.14,32.16l558.12 0 0 -343.34c-53.95,-28.12 -114.02,-42.45 -174.85,-41.75 -60.84,0.69 -120.56,16.41 -173.85,45.76l-0.01 0zm404.05 -601.63l-221.4 0 0 110.71 221.4 0 0 -110.71zm118.17 -249.08l-256.54 -217.08 0 51.03c0,7.34 -2.92,14.38 -8.11,19.57 -5.18,5.18 -12.23,8.1 -19.57,8.1l-166.05 0c-7.34,0 -14.38,-2.92 -19.57,-8.1 -5.18,-5.19 -8.11,-12.23 -8.11,-19.57l0 -83.03 -339.57 0 294.35 249.08 523.17 0zm-810.05 249.08l-166.05 0 0 332.1 166.05 0 0 -332.1zm498.15 -608.85l-110.7 0 0 166.05 110.7 0 0 -166.05zm-719.55 581.18c0,-7.34 2.92,-14.38 8.1,-19.57 5.19,-5.18 12.23,-8.11 19.57,-8.11l221.4 0c7.34,0 14.38,2.92 19.57,8.11 5.18,5.19 8.1,12.23 8.1,19.57l0 359.77 193.73 0 0 -540.66 -332.1 -281.02 -332.1 281.02 0 540.66 193.73 0 0 -359.77zm636.53 0c0,-7.34 2.92,-14.38 8.1,-19.57 5.19,-5.18 12.23,-8.11 19.57,-8.11l276.75 0c7.34,0 14.38,2.92 19.57,8.11 5.18,5.19 8.1,12.23 8.1,19.57l0 166.05c0,7.34 -2.92,14.38 -8.1,19.57 -5.19,5.18 -12.23,8.11 -19.57,8.11l-276.75 0c-7.34,0 -14.38,-2.92 -19.57,-8.11 -5.18,-5.18 -8.1,-12.23 -8.1,-19.57l0 -166.05z"></path> </g> </svg> 