<?xml version="1.0" encoding="UTF-8"?> <!-- Creator: CorelDRAW 2021.5 --> <svg xmlns="http://www.w3.org/2000/svg" xmlns:xlink="http://www.w3.org/1999/xlink" xmlns:xodm="http://www.corel.com/coreldraw/odm/2003" xml:space="preserve" width="35.2778mm" height="35.2778mm" style="shape-rendering:geometricPrecision; text-rendering:geometricPrecision; image-rendering:optimizeQuality; fill-rule:evenodd; clip-rule:evenodd" viewBox="0 0 2395.62 2395.62"> <defs> <style type="text/css"> <![CDATA[ .fil2 {fill:#007336} .fil0 {fill:white;fill-opacity:0.501961} .fil1 {fill:url(#id0)} ]]> </style> <linearGradient id="id0" gradientUnits="userSpaceOnUse" x1="265.82" y1="203.48" x2="2145.84" y2="2083.5"> <stop offset="0" style="stop-opacity:1; stop-color:white"></stop> <stop offset="1" style="stop-opacity:1; stop-color:#E7F2EC"></stop> </linearGradient> </defs> <g id="Layer_x0020_1"> <metadata id="CorelCorpID_0Corel-Layer"></metadata> <path class="fil0" d="M239.56 0l1916.49 0c131.77,0 239.56,107.79 239.56,239.56l0 1916.49c0,131.77 -107.79,239.56 -239.56,239.56l-1916.49 0c-131.77,0 -239.56,-107.79 -239.56,-239.56l0 -1916.49c0,-131.77 107.79,-239.56 239.56,-239.56z"></path> <rect class="fil1" x="119.77" y="119.77" width="2156.07" height="2156.07" rx="119.78" ry="119.78"></rect> <path class="fil2" d="M1833.97 772.6l-658.96 0 -338.21 -198.64c-16.18,-9.42 -35.43,-12.07 -53.57,-7.36 -18.12,4.71 -33.65,16.39 -43.19,32.5l-101.88 173.5 -76.63 -0.01c-21.85,0.01 -42.8,8.7 -58.26,24.15 -15.46,15.46 -24.14,36.41 -24.15,58.26l0 685.45c0.01,21.86 8.69,42.83 24.15,58.3 15.44,15.48 36.41,24.18 58.26,24.22l659.07 0 338.1 198.64c16.18,9.47 35.46,12.11 53.6,7.38 18.14,-4.73 33.66,-16.47 43.16,-32.64l101.77 -173.39 76.74 0 0.01 0.01c21.87,-0.03 42.85,-8.74 58.32,-24.2 15.47,-15.48 24.17,-36.45 24.2,-58.32l0 -685.44c-0.04,-21.87 -8.75,-42.82 -24.21,-58.28 -15.48,-15.46 -36.45,-24.13 -58.31,-24.15l0 0.01zm-33.59 553.31c-84.72,29.72 -151.34,96.34 -181.07,181.06l-275.93 0c-92.22,43.3 -198.93,43.3 -291.17,0l-276.03 0c-29.73,-84.72 -96.35,-151.34 -181.06,-181.06l0 -256.24c84.7,-29.76 151.3,-96.36 181.06,-181.06l276.03 0c92.22,-43.3 198.93,-43.3 291.17,0l275.93 0c29.76,84.7 96.37,151.3 181.07,181.06l0 256.24zm-112.45 -128.17c0,41.02 -33.24,74.26 -74.26,74.26 -41.02,0 -74.26,-33.24 -74.26,-74.26 0,-41.02 33.25,-74.26 74.26,-74.26 41.02,0 74.26,33.24 74.26,74.26zm-906.09 -74.25c-19.69,0 -38.58,7.83 -52.51,21.75 -13.93,13.93 -21.75,32.82 -21.75,52.51 0,19.69 7.82,38.58 21.75,52.51 13.92,13.93 32.82,21.75 52.51,21.75 19.69,0 38.58,-7.82 52.51,-21.75 13.92,-13.93 21.75,-32.82 21.75,-52.51 0,-19.69 -7.83,-38.58 -21.75,-52.51 -13.93,-13.92 -32.82,-21.75 -52.51,-21.75zm415.91 -197.77c-72.16,0 -141.36,28.66 -192.37,79.68 -51.03,51.02 -79.69,120.22 -79.69,192.38 0,72.15 28.66,141.36 79.69,192.38 51.03,51.02 120.22,79.68 192.37,79.68 72.15,0 141.36,-28.66 192.38,-79.68 51.02,-51.03 79.68,-120.23 79.68,-192.38 0,-72.16 -28.66,-141.36 -79.68,-192.38 -51.03,-51.03 -120.23,-79.68 -192.38,-79.68zm-176.12 171.47c-1.32,-16.73 1.64,-33.51 8.58,-48.8 4.85,-7.8 11.69,-14.17 19.83,-18.45 8.13,-4.28 17.26,-6.32 26.44,-5.89 39.26,0 56.76,36.52 56.76,71.23 0,36.28 -14.99,69.48 -55.89,69.48 -44.02,0 -55.72,-42.41 -55.72,-67.57l0 0zm121.4 267.54l-0.73 1.32 0.01 0c-3.74,6.99 -9.28,12.86 -16.03,17 -6.77,4.14 -14.51,6.41 -22.44,6.55 -10.21,0.12 -20.09,-3.59 -27.69,-10.4 -7.6,-6.81 -12.37,-16.22 -13.36,-26.37 -0.99,-10.16 1.86,-20.32 7.99,-28.47 0,0 179.73,-290.39 180.06,-290.95 15.4,-24.89 44.17,-37.52 69.63,-17.71 16.97,14.78 17.26,35.4 1.03,61.3 0.01,0 -63.03,101.66 -178.45,287.74l0 -0.01zm214.23 -11.33c-5.63,6.72 -12.98,11.8 -21.26,14.67 -8.28,2.87 -17.19,3.43 -25.77,1.64 -34.21,-5.21 -48.42,-35.35 -48.42,-67.29 -1.01,-16.31 1.78,-32.64 8.14,-47.69 4.64,-8.25 11.55,-15.01 19.9,-19.47 8.35,-4.45 17.81,-6.42 27.25,-5.69 39.95,0 56.76,35.22 56.76,70.94l0.01 0c0.67,19 -5.19,37.67 -16.6,52.89l0 0z"></path> </g> </svg> 