<?xml version="1.0" encoding="UTF-8"?> <!-- Creator: CorelDRAW 2021.5 --> <svg xmlns="http://www.w3.org/2000/svg" xmlns:xlink="http://www.w3.org/1999/xlink" xmlns:xodm="http://www.corel.com/coreldraw/odm/2003" xml:space="preserve" width="15.4013mm" height="16.9137mm" style="shape-rendering:geometricPrecision; text-rendering:geometricPrecision; image-rendering:optimizeQuality; fill-rule:evenodd; clip-rule:evenodd" viewBox="0 0 484.32 531.88"> <defs> <style type="text/css"> <![CDATA[ .fil0 {fill:#444444} ]]> </style> </defs> <g id="Layer_x0020_1"> <metadata id="CorelCorpID_0Corel-Layer"></metadata> <path class="fil0" d="M484.28 342.31c-51.01,109.65 -165.91,189.57 -286.23,189.57 -89.3,0 -161.01,-44.02 -198.04,-111.54 45.72,49.72 112.74,80.09 191.9,80.09 114.85,0 225.38,-63.92 292.37,-158.12z"></path> <path class="fil0" d="M286.28 0c89.3,0 161.02,44.02 198.05,111.54 -45.72,-49.72 -112.74,-80.1 -191.91,-80.1 -114.85,0 -225.38,63.92 -292.37,158.11 51.01,-109.65 165.91,-189.56 286.23,-189.56z"></path> <g id="_1906729569264"> <path class="fil0" d="M91.9 242.93l0.53 0.53 -0.53 1.06 -1.59 1.06 -2.12 -2.65 1.06 -1.59 -1.06 -3.7 1.06 -1.06 0.53 -2.64 2.12 -2.12 1.06 -1.06 1.06 -3.18 -1.06 -1.06 1.06 -1.06 0 -1.06 1.06 0c0,0 0.53,1.58 0.53,2.11l0.53 1.06 1.59 3.7 1.59 1.59 0 2.11 3.7 2.65 2.12 0.53 3.17 0 1.59 0 3.7 -4.76 0.53 -4.23 -1.59 -1.06 0 -2.12 -0.53 -1.06 0.53 -2.64 -1.06 -1.59 -1.59 -2.65 0 -2.12 -1.06 -0.53 0 -1.59 -2.11 -0.53 -0.53 -2.64 2.64 1.06 -1.58 -2.64 -2.65 -0.53 0 -0.53 -1.06 -0.53 -1.06 -0.53 -1.06 0 -1.59 -1.06 -5.82 2.65 0 3.7 -1.06 2.12 -3.71 0 -2.64 2.11 -0.53 1.59 -2.64 4.24 -1.06 0 -2.12 2.12 -1.58 0 0 2.11 -1.06 0.53 0 1.59 -1.59 1.59 -1.06 0 -1.06 1.59 -0.53 4.76 -2.12 1.06 -9.53 -0.53 -2.12 0.53 -2.64 0 -1.59 1.06 0 0.53 -0.53 1.06 0 2.12 1.59 1.59 0 2.64 -1.59 -2.12 -1.59 -1.06 -2.12 -1.59 -1.59 1.06 0 1.06 -2.12 -0.53 -1.59 1.06 -1.58 0 -1.59 1.58 -1.59 0.53 0 1.59 -0.53 0.53 -1.59 0 -0.53 1.06 0 2.12 -1.58 0.53 -1.06 0 0.53 1.59 -2.12 2.64 0 1.59 1.59 1.59 -1.06 2.12 1.59 0.53 1.06 1.06 0 2.12 -1.59 1.59 0 0.53 -1.59 0.53 -1.59 3.7 0 2.64 -0.53 1.06 0.53 1.06 0 1.59 -0.53 1.06 -1.59 0 -1.06 -1.06 -1.06 -1.06 -1.59 0 -0.53 1.58 -1.59 1.59 -0.53 1.59 0.53 1.59 1.06 1.06 1.06 0 1.06 1.06 1.59 0.53 1.06 2.12 -0.53 2.12 -1.06 0.53 -1.06 0 -0.53 1.59 -0.53 0.53 1.06 1.59 0.53 2.64 -1.06 2.11 -1.06 1.06 0 1.06 0.53 1.06 0.53 0.53 0.53 1.59 1.59 1.59 1.05 0 0.53 1.59 0 1.59 0 0.53 1.06 1.06 1.06 1.06 0 1.06 0.53 0.53 1.06 1.06 -0 1.06 0.53 1.06 1.06 0.53 -0.53 1.06 -2.11 0 -1.06 0.53 0 0.53 -1.59 1.58 0 1.59 -1.59 1.06 -1.06 0 -2.12 -2.12 -1.59 0 -1.58 -0.53 -1.06 1.06 -1.06 1.06 -0.53 1.06 0 1.06 1.06 0.53 1.06 1.06 -1.59 -0.53 -1.06 -0.53 -1.06 0 -1.59 -1.06 -0.53 0 -0.53 0.53 0 1.06 0.53 0.53 0 1.06 -2.12 0 -1.59 0.53 -1.06 1.06 -1.06 -0 -1.06 -1.06 -1.06 -0.53 -0.53 0.53 -0.53 1.06 0 1.06 -0.53 1.06 0 1.06 1.06 1.06 0 2.64 0.53 1.06 0.53 1.58 0 2.65 0 2.64 0.53 1.59 0.53 0.53 1.06 -0 1.06 1.06 0.53 0.53 0.53 1.06 0.53 1.06 0.53 1.06 0 1.06 1.59 1.06 1.59 1.06 0 1.06 0.53 1.06 1.06 0.53 0 1.59 0.53 0.53 0.53 0.53 0 1.59 0.53 0.53 1.06 0.53 1.58 -0 1.06 1.59 0 1.06 1.06 -0 0.53 1.06 1.06 0.53 0 0.53 -0.53 1.59 0 1.06 0.53 1.06 0.53 1.59 0 0.53 1.06 0.53 0.53 1.06 0 1.06 1.06 1.59 -0 2.11 0.53 1.06 1.06 0 1.06 0 1.58 0 1.06 0 1.59 -0.53 0.53 -1.06 -0.53 -1.59 0.53 -1.06 -0.53 -2.12 0 -2.65 0.53 -2.64 1.59 -1.06 0.53 -1.06 0.53 -1.06 0.53 -2.64 -1.06 -1.59 -0.53 -0 0 -1.06 0.53 -0.53 1.59 0.53 1.06 -0.53 1.06 0 1.06 -1.06 1.06 -1.06 0.53 0 0 -1.06 1.06 0.53 0.53 1.06 1.06 0 2.12 0 1.59 0 1.59 0 1.59 -1.06 0 -1.06 -0.53 -0.53 -0.53 -1.06 0 -1.06 0.53 0.53 0 0.53 1.06 -0.53 0.53 -1.06 0 -2.64 -0.53 -1.06 0 -0.53 0.53 -1.59 -0.53 -0.53 -2.64 -2.12 0 -1.06 0.53 -1.59 0 -1.06 -1.06 -1.06 0 -0.53 1.59 -1.06 1.58 0 1.06 -0.53 0.53 -1.59 1.59 -1.59 1.06 0 1.06 -0.53 0.53 -1.06 1.06 0 0 0.53 -0.53 1.59 0.53 1.59 1.06 1.06 1.59 0 1.06 0 0 -1.59 1.06 -0.53 0.53 -0.53 2.64 0 1.06 -0.53 0 -0.53 1.59 0 0.53 0.53 1.58 0 1.06 -1.06 1.06 -0.53 1.06 0.53 0.53 1.06 0 1.06 0.53 0.53 2.12 0 0.53 -0.53 1.06 0.53 0 0.53 0 0.53 1.59 0.53 1.06 1.59 0 1.06 0.53 1.58 1.06 1.59 -0.53 1.06 0 0.53 0.53 1.06 0.53 -0 1.06 -0.53 1.06 1.06 0 0.53 1.06 1.06 1.59 0 1.06 -0.53 1.06 -0.53 1.06 1.06 1.06 1.59 1.06 0 1.06 0 1.59 0 1.06 1.06 0 1.06 1.06 1.06 0 1.06 1.06 1.06 1.06 0.53 1.59 0 1.06 -0.53 1.06 1.06 1.06 0.53 1.06 0 1.59 0 1.06 -0.53 1.59 -1.59 0 -1.06 -1.06 -1.06 0 -1.06 -2.65 -2.12 0 -0.53 0 -1.06 1.06 0.53 1.06 -0.53 1.06 -0.53 0.53 -1.59 -0.53 -1.06 0.53 -0.53 1.59 0 1.06 0.53 0.53 0.53 1.06 -0 1.06 0 0.53 -0.53 0 -1.06 -2.12 -1.59 0.53 -1.06 0 -1.06 0 -0.53 1.06 -0.53 1.59 0.53 0.53 0.53 0.53 0.53 1.06 0 1.06 -0.53 1.59 1.06 2.12 0 1.06 0 0.53 0.53 1.06 -0 1.06 0.53 1.06 0 1.06 -0.53 1.06 -1.06 1.06 0.53 1.06 0.53 2.12 -0 1.06 -0.53 1.06 0 0.53 0.53 1.59 -0 0.53 -0.53 2.12 0 0.53 -0.53 1.06 -0.53 1.06 0 1.06 0.53 1.06 0.53 1.06 -0.53 0.53 0.53 0.53 1.06 1.59 0.53 1.06 0 0.53 1.06 0 1.06 -0.53 1.06 0 1.06 -2.65 0.53 0 0.53 0.53 1.06 1.06 0.53 1.59 0 1.06 -0.53 0.53 0.53 -0.53 0.53 0 1.06 1.06 0.53 0.53 -0 0.53 -0.53 0.53 0.53 0.53 0.53 1.06 0 0 1.06 -1.59 0.53 0 0.53 -0.53 0.53 0.53 1.06 1.06 0 1.06 -0.53 1.06 1.06 1.06 0 1.06 -1.06 2.12 -0 1.06 -1.59 1.59 0 1.06 -0.53 1.06 -0.53 0.53 0 0 0.53 -0.53 0.53 -1.06 0 0 0.53 0.53 1.06 1.06 0.53 1.06 1.06 0 1.06 0.53 1.59 1.06 0.53 1.06 1.06 0.53 1.06 0 1.06 0 1.59 0 1.59 0.53 0.53 0.53 -0 0.53 0.53 0 1.06 0.53 0.53 0.53 0.53 0.53 1.06 0 0.53 0.53 2.12 0.53 1.06 0.53 1.59 0.53 0.53 1.06 0.53 1.58 -0 1.06 -2.12 0.53 0 0 1.06 0.53 1.06 1.59 1.06 1.58 0 0.53 0.53 1.58 0 1.06 -0.53 0.53 -1.06 1.59 0 0.53 1.06 1.59 0.53 1.06 1.06 0 1.59 1.06 1.06 0.53 0 0.53 1.59 1.06 0.53 0.53 0 0 2.12 0.53 0.53 2.12 0 1.06 0.53 2.11 -0.53 0.53 -1.06 1.06 0.53 0.53 1.06 1.06 1.59 2.12 0 1.06 -0.53 1.59 -1.06 1.06 0.53 1.06 -0.53 1.06 -1.06 1.59 -0.53 1.06 -0.53 0 -0.53 0.53 -0.53 1.06 0 1.59 -1.59 2.12 -1.06 1.06 0 1.06 0 0.53 -1.59 1.06 0 1.06 0 0.53 -1.06 1.59 1.06 1.06 0.53 1.06 -0 1.59 -0.53 1.06 0 1.06 1.06 0.53 1.06 0.53 0.53 1.06 0.53 3.17 1.06 1.59 -0.53 1.59 0.53 1.58 0 2.12 0 1.06 -0.53 2.12 -2.12 1.06 -0.53 0 -2.12 -1.59 -1.06 0 -1.59 -0.53 -1.06 0 -1.06 1.06 -1.59 1.06 -1.59 1.59 -1.59 1.59 0.53 2.12 0 1.06 0.53 1.06 1.06 2.12 -0 1.06 -0.53 2.12 0.53 1.59 1.06 0.53 1.06 0.53 1.59 1.06 1.06 1.59 0.53 1.59 0.53 3.18 0.53 1.59 -0.53 1.06 0 1.59 -1.59 2.12 0 1.59 0 0.53 0 1.06 0.53 2.64 0.53 2.12 -0 1.06 0.53 0.53 1.06 1.06 1.06 2.12 0.53 2.12 0 1.59 0 2.12 0 1.59 -0.53 2.12 0 1.59 -1.06 1.59 -1.59 2.12 -1.59 2.12 -1.06 1.06 -1.06 0.53 -1.59 0.53 -1.59 1.06 -1.59 1.06 -0.53 1.06 -0.53 1.58 0.01 1.06 1.06 1.06 -0.53 1.06 -1.06 1.59 -0.53 1.59 0 2.12 0 1.58 0 1.59 -1.06 1.59 -1.59 1.06 -2.12 1.59 -0.53 0 -1.59 0 -1.06 -1.06 -1.06 -0.53 -1.06 1.06 -1.06 0 -1.59 0.53 -2.65 0 -1.59 0.53 -1.06 -0.53 -3.18 -2.12 -1.59 -1.58 0.53 -2.12 -1.59 1.06 -2.65 2.12 -1.59 1.59 -1.06 2.65 -2.12 1.59 0 2.11 -0.53 1.59 0 1.59 0 1.59 -1.06 3.18 0.53 1.06 0.53 1.06 1.06 1.06 0 0 1.06 0.53 0.53 1.06 0 1.59 1.06 1.59 1.06 0 1.59 1.06 0.53 1.06 -0 1.06 1.06 0.53 1.06 1.06 0.53 1.06 1.06 1.06 1.59 1.59 0 2.64 -0.53 1.59 -1.06 2.64 -0.53 1.59 0 1.59 0.53 1.06 -0 1.06 -0.53 1.06 0 1.06 1.06 0.53 1.06 0 1.06 0.53 0.53 1.59 0.53 1.59 0.53 2.12 -0.53 -0 -1.06 1.59 -0.53 1.59 -1.59 1.06 -0.53 -1.06 -1.06 1.06 -2.12 1.59 -2.12 1.06 -1.06 1.59 -0 0.53 0.53 1.58 2.12 0 1.06 -1.06 0.53 0 1.06 1.06 1.06 0.53 0.53 0.53 1.59 0 1.06 0 0.53 0.53 1.06 0.53 1.06 0 1.06 0.53 1.06 0 1.06 -0.53 1.06 0.53 1.06 0.53 0.53 -0.53 1.59 -1.59 0.53 -1.59 -0 -1.06 1.06 0 1.06 0 1.06 -2.12 1.59 0.53 1.59 1.06 0.53 1.59 1.06 0.53 1.06 0.53 1.06 1.59 1.06 0.53 1.59 0.53 2.12 -0.53 1.59 -1.06 1.06 0 1.06 0 1.06 1.06 0.53 1.58 0 0.53 -0.53 0 -1.59 1.06 -1.06 -0 -1.59 0 -2.12 0.53 0.53 0.53 0 0.53 -1.06 1.06 1.06 2.64 -1.06 1.59 -0.53 0.53 0 2.12 -3.7 1.59 -2.65 0 -2.12 0 -4.23 -0.53 -1.59 0.53 -2.64 0 -1.59 0 -4.24 0.53 -2.11 0 -1.06 -0 -2.64 -1.06 -6.35 -1.06 -1.59 0 -3.18 -0.53 -3.18 0.53 -2.65 0 -2.64 -2.65 -3.7 -0.53 -1.59 -1.59 -1.58 -0.53 -2.12 -3.18 -3.7 -1.06 -2.64 0 -3.18 2.12 0 2.12 1.59 1.06 0.53 1.06 1.59 1.06 1.59 1.06 1.06 2.11 2.12 1.59 1.59 1.59 2.12 0 0.53 0.53 0.53 1.06 0.53 1.59 0.53 1.06 1.59 0.53 2.12 1.06 1.06 1.59 1.06 0.53 0.53 -0 1.58 1.06 1.06 1.06 0.53 2.12 2.12 1.06 0 0.53 -1.06 0 -1.06 -2.65 -1.59 -0.53 -0.53 0 -1.59 1.06 0 0.53 0 0.53 -0.53 1.59 0.53 1.06 -0.53 -0.53 -1.06 -1.06 -1.59 -1.59 -0.53 -1.06 0.53 -0.53 0 -1.06 -1.59 -1.06 0 -1.06 -1.06 -1.59 0 -1.59 -1.59 -0.53 -1.06 -0.53 -2.12 -2.12 -3.18 0.53 -1.59 0 -1.59 2.12 0 0.53 -1.06 0 -1.06 -1.06 -0.53 -1.59 0.53 -2.12 -1.06 -2.11 -1.06 -1.06 -1.06 -2.12 -1.06 -0.53 -1.06 -2.12 -0.53 -1.06 0 -3.18 -3.18 -1.06 -2.64 -1.58 0 -1.59 -1.06 0 -1.06 -1.06 -0.53 -1.06 -0.53 -0.53 -1.59 -2.65 -1.06 -0.53 0 0 1.06 0 1.59 1.06 0 1.06 0.53 0.53 1.06 0.53 1.06 0 0.53 -1.06 -0.53 0 2.12 -1.06 0.53 2.12 0.53 1.06 1.59 1.59 1.59 0 1.06 -1.06 0 -1.59 -0.53 0 -1.06 -2.12 0 1.06 -1.06 -1.06 -1.06 -2.12 0 -2.11 -0.53 -4.24 0 -1.59 1.06 -1.06 0.53 -0.53 0.53 0.53 1.59 1.06 1.59 0.53 1.06 -0.53 0.53 -1.06 -0 -0.53 1.06 0 1.06 -0.53 0 -0.53 -1.59 -1.06 -0.53 -0.53 -1.06 -1.06 1.06 -0.53 -0.53 0 0.53 1.06 0.53 -0.53 1.06 -1.06 -1.06 -0.53 -0.53 0 -1.06 -1.06 -1.59 -2.12 2.12 -1.06 0 -0.53 0.53 -0.53 -0 -0.53 -1.06 0.53 -1.06 0 -1.59 0.53 -1.59 1.06 -1.06 0 -1.06 0 -1.59 1.06 -1.59 0 -1.59 0 -2.12 0 -1.06 -1.06 -1.06 0 -2.12 0.53 -1.06 0 -2.12 0.53 -1.06 -0.53 -1.59 0.53 -1.59 0.53 -0.53 -2.12 1.06 -0.53 -1.59 0 -2.11 1.06 -1.06 0.53 -0.53 -1.06 -2.12 -0.53 -1.06 0.53 -2.11 0.53 -1.06 0.53 -1.59 1.06 -1.06 0.53 -1.06 1.06 -1.06 0.53 -1.06 1.06 -0.53 0.53 -0.53 1.58 0 1.58 -1.06 -1.58 -1.59 1.58 -0.53 1.59 -2.11 0 -1.06 1.06 0.53 1.59 -1.59 -1.06 -1.06 0 -1.06 0.53 -1.59 1.06 0 2.12 -2.12 1.06 -0 0.53 -0.53 1.06 0 0 2.11 0.53 0 0 1.06 1.59 0 1.06 -1.59 0 -0.53 0 -1.06 1.59 -0.53 0 -2.11 -0.53 -1.06 2.12 -1.06 0 -1.59 1.06 -1.06 0.53 -1.59 -2.12 0 -1.06 1.59 -1.06 -0.53 -0.53 -1.06 0 -1.06 -1.06 -1.06 0 -5.29 -1.59 -1.59 0 -2.11 -1.06 -1.06 0 -2.12 0.53 -1.06 0.53 -0.53 0.53 -2.12 0 -1.58 1.58 -0 0.53 -1.06 1.58 0.53 0.53 1.06 0.53 1.06 1.06 1.59 0.53 0 0 -2.12 1.06 1.59 1.06 0.53 0.53 -1.59 0 -3.18 -0.53 -1.06 0 -3.18 -1.59 -1.59 0.53 0 0.53 -0.53 -0.53 -1.06 -1.59 0 -2.12 -3.17 -0.53 -0.53 0.53 -1.06 0 -1.59 1.06 0 0 1.59 1.06 0.53 1.59 1.59 1.06 1.06 1.59 -0 1.06 2.12 0.53 0.53 0 1.59 -0.53 2.12 0.53 1.59 0.53 0.53 1.06 3.7 1.06 3.18 0 2.12 1.06 0.53 1.06 1.59 0.53 0.53 0.53 2.11 0.53 3.7 -0.53 2.12 0 0.53 0 0.53 0 1.06 -0.53 0.53 0 1.06 1.59 0.53 1.06 0.53 0 1.59 0.53 1.59 0.53 0.53 0 1.06 0.53 1.06 2.12 2.12 1.59 1.59 0 1.06 1.59 1.06 2.64 1.59 1.59 0.53 1.58 -0 1.59 0.53 1.06 0.53c0,0 0.53,1.06 1.06,1.06l1.59 0.53 2.64 1.06 2.12 0.53 0.53 0.53 1.59 0.53 0.53 1.06 0.53 0.53 0.53 -0.01 1.06 0 1.59 1.59 1.06 0 1.58 0 1.06 0.53 0.53 1.06 0.53 -1.06 0 -2.12 -0.53 -2.64 -0.53 -3.18 0 -1.59 -3.18 0.53 -1.59 -2.12 -2.12 -1.06 0 -2.64 0.53 -1.06 0 -0.53 2.12 0 -1.06 -2.12 -2.12 -0.53 -1.06 -0.53 -0.53 -0.53 -1.06 -3.7 0.53 -1.59 1.06 -0.53 1.06 -1.06 -1.06 -2.12 -1.06 -1.06 -2.64 -0 -1.06 -1.06 -1.06 0 -1.06 -1.06 -1.06 -1.06 0 -1.06 1.06 -0.53 0.53 -1.06 0 -1.06 -1.06 -1.59 -1.59 0 -0.53 1.06 -1.59 -1.06 -1.59 -1.06 0 -1.06 -2.12 -2.12 -1.06 -0.53 -0.53 1.06 -1.06 1.06 0 1.06 -0.53 0.53 -1.06 -1.06 -2.12 -1.06 0 -1.59 -0.53 -2.65 -2.65 -2.11 -1.58 -2.12 0.53 -0.53 0 -1.59 0.53 -0.53 1.06 -1.06 -0.53 -0.53 -0.53 -1.06 0 -1.59 0 -1.59 1.06 0.53 1.06 1.06 0.53 -0.53 0 -1.06 -1.06 -1.06 0 -1.59 0.53 -1.59 -1.06 -0.53 1.06 -1.59 1.06 -1.59 0.53 -1.05 1.06 0 1.06 0 1.06 0.53 1.06 -1.06 -1.06 -1.06 -1.06 -1.59 -0.53 -2.64 0.53 -2.12 -0.53 -0.53 -1.06 -0.53 -0.53 -2.12 -0.53 -2.12 -0.53 -2.12 -1.05 -0.53 0 -3.7 0 -2.64 -1.06 -1.06 -1.06 -1.06 0 -1.06 -0.53 -0.53 0 -0.53 0.53 -0.53 1.05 0 0.53 -1.59 1.06 -0.53 1.06 -1.06 0 -1.06 -1.06 -1.06 -0.53 -1.06 -1.06 0.53 -0.53 -0.53 -1.06 0 -0.53 0.53 -1.06 0 -1.06 1.06 -1.06 0 -0.53 -1.59 -2.12 0.53 -1.59 0 -0.53 1.06 -1.06 0 -1.06 0.53 0 1.59 -0.53 0.53 -1.06 -0.53 0 -1.06 -0.53 0 0 -1.06 1.06 -0.53 0 -1.06 1.06 0 1.06 0 0.53 -1.06 0 -1.59 -1.06 -3.18 -1.06 -1.05 -0.53 -0.53 -0.53 0.53 -0.53 -1.59 -1.06 0.53 -1.06 0 -0.53 -0.53 0 -1.06 -2.12 0.53 0 -1.06 1.59 0.53 1.06 -0.53 0.53 -0.53 1.06 1.06 1.06 -1.06 1.06 -3.18 -1.58 0 0 -1.59 1.06 -0.53c0,0 0.53,0 1.06,0 0.53,0 1.59,0.53 1.59,0.53l1.06 -0.53 0.53 -1.06 1.06 -1.59 1.59 -1.06 1.06 0 0.53 -1.06 0 -1.59 -1.06 0 0.53 -1.06 -1.06 -0.53 -1.06 -1.06 -1.06 -1.06 -1.59 0 -1.06 0.53 -1.06 -0.53 1.06 -1.06 0 -1.59 -1.06 0 0.53 -1.06 0 -0.53 -1.06 -2.12 -1.59 0.53 -1.06 1.59 0 1.06 -3.18 0 0 1.06 -1.06 1.06 0 0.53 0 0.53 0.53 0.53 -1.06 0.53 -0.53 0.53 0 1.06 1.59 0.53 1.59 -0 1.06 0 0 1.06 -1.06 0.53 -1.06 1.06 -1.59 -1.06 -1.06 0 -1.06 0 -1.06 -0.53 -3.18 1.06 0 1.06 -1.06 0.53 -1.06 0.53 -1.06 0 -0.53 1.06 -1.58 0.53 -0.53 0.53 -1.58 1.58 -1.06 1.06 -1.06 1.06 -1.59 0.53 -1.59 1.06 -2.12 2.12 -2.12 2.12 -2.12 1.06 0 1.59 -0.53 1.59 -0.53 0.53 -0.53 1.59 0.53 0.53 -1.06 0.53 -2.12 1.06 0 1.06 -1.06 1.59 0 1.59 1.06 0 0.53 0.53 1.58 0 1.06 0 1.06 0.53 1.06 0.53 0.53 1.59 -0.53 1.06 -2.12 0 -1.06 0.53 -2.12 0 -1.06 -1.06 0.53 -1.59 -1.59 -1.59 -0.53 1.06 -0.53 1.59 0.53 1.06 0 1.59 1.06 0.53 -0.53 1.06 -1.59 1.58 0 0.53 -0.53 1.06 -1.58 0 -0.53 1.06 0 1.06 -0.53 4.23 -1.06 0.53 0 1.06 0 1.06 -1.06 1.06 -2.12 1.59 -1.59 -1.06 -2.12 -2.12 -1.06 0 -2.12 0.53 -1.06 -0 -1.06 1.59 -2.64 2.12 -1.06 2.12 0 1.59 -0.53 1.59 -1.59 1.06 -0.53 0.53 -1.58 0 -1.59 -0.53 -1.06 0.53 -0.53 1.06 0 1.06 -1.06 -1.06 -0.53 0.53 -1.59 0.53 -1.06 -1.06 1.59 -1.59 -2.12 -1.06 -2.12 2.11 -1.59 0.53 0 1.58 0 0.53 0 1.59 0.53 1.59 -1.58 1.58 0 -1.59 -0.53 -1.06 -1.06 0 -1.59 1.59 -0.53 -1.06 0.53 -0.53 1.59 -0.53 0 -1.06 -2.12 0.53 -1.59 1.06 -1.59 0 -0.53 1.59 -1.59 0.53 -1.05 0 -1.06 1.58 1.59 1.59 -1.06 1.06 -0.53 1.06 0.53 1.06 0.53 0 1.06 -1.06 0 0.53 0 1.06 1.06 0.53 1.59 1.06 -0.53 0.53 -1.06 0 -0.53 0.53 -0.53 0.53 -0.53 1.06 0.53 1.06 -0.53 0.53 -1.06 -0.53 -1.59 0.53 -1.59 0 -0.53 1.06 -0.53 1.06 0 1.06 -0.53 0.53 -1.59 0.53 -0.53 0 -1.59 -1.06 -1.58 0 -0.53 0.53 0.53 2.12 1.06 0.53 0 1.06 0.53 1.06 0.53 1.06 0 1.06 -1.06 0 -1.06 0 -1.06 0 -1.59 -1.06 -1.06 -1.06 -1.06 -0 -0.53 -1.06 -2.12 0 0.53 -1.06 -0 -2.64 -0.53 0 -0.53 0 -0.53 -1.06 -1.06 -0.53 0 -1.59 -1.59 -1.06 -1.06 0.53 -1.58 -1.06 -0.53 1.06 -0.53 0.53 0 0.53 -1.06 -0.53 -0.53 0.53 -1.59 0 -0.53 -0.53 -1.58 0 -1.06 -1.06 -0.53 1.59 -0.53 1.06 0.53 1.06 0.53 1.06 0 1.59 0.53 0.53 -1.59 0.53 -1.06 1.06 -1.59 1.06 -1.06 -1.58 0 1.58 -0.53 0 -1.59 0 -0.53 -0.53 0.53 -0.53 -1.06 -1.06 -2.11 0.53 -3.18 1.06 -1.59 1.59 -1.59 1.59 -1.59 -2.12 0 -0.53 -0.53 -0.53 -1.06 1.06 -0.53 0.53 -2.12 0 -1.59 0 -0.53 1.06 0 0.53 0.53 0.53 -0.53 1.06 -1.59 0.53 -1.06 1.06 -0.53 1.06 -1.59 0 -1.06 0.53 -0.53 -0 0 -0.53 1.06 -1.06 0.53 -1.59 1.58 0 0 -1.59 1.06 -1.06 1.06 -1.59 0 -2.11 2.65 -2.65 1.58 -2.12 0 -1.59 1.06 -0.53 -0.53 -1.06 -1.59 -1.58 0 -1.06 0 -1.59 -1.59 -1.06 -1.05 0 -1.06 -1.59 -1.06 -0.53 -1.06 0.53 -0.53 -1.06 -1.06 1.59 -1.59 0 -1.06 0.53 -0.53 0.53 0 0.53 -1.06 1.06 -0.53 -0.53 -0.53 -1.06 1.06 -1.59 -1.06 -0.53 -1.58 0 -1.06 0.53 -1.06 0 0.53 -1.59 1.06 -1.06 0 -1.06 -1.59 -0.53 -0.53 0 -1.59 1.06 -1.59 1.06 -0.53 1.59 -1.06 1.59 0 0.53 0 1.06 0.53 0.53 0 1.59 -1.06 0.53 -2.12 0 0 1.06 0.53 0.53 -1.06 0.53 -0.53 0 0 1.06 -1.59 0 0 -1.59 -2.11 0.53 -0.53 0.53 -1.59 0.53 -2.12 0.53 -0.53 1.06 0.53 0.53 -1.06 0.53 -1.06 1.06 -1.59 -0.53 -1.59 0.53 -0.53 0.53 -1.58 -0 -1.06 1.59 0 0.53 -1.06 0.53 -1.06 0.53 0 1.05 -0.53 1.06 -0.53 1.06 1.06 0.53 -1.59 1.06 -0.53 1.06 2.65 1.59 -0.53 1.06 -1.58 0 -1.59 0.53 -3.7 0 -2.65 -0.53 -3.18 1.06 -0.53 1.58 1.06 1.59 -1.06 2.12 0.53 1.59c0,0 1.06,1.06 1.06,1.59l1.06 1.06 0.53 1.06 0.53 1.06 -1.06 0.53 -2.12 -1.06 0.53 -1.59 -1.59 -2.12 -2.12 -1.59 -2.12 0.53 1.06 -1.06 -1.06 -0.53 -1.59 0 -1.06 1.06 1.06 1.06 1.06 1.59 -1.59 0 -2.12 -1.06 -1.06 1.59 0.53 2.64 1.06 1.06 1.59 0.53 0 1.59 -1.59 -1.06 -1.59 0.53 -1.59 -1.59 0 -3.18 1.59 -2.12 0 -2.12 0.53 -2.64 -1.59 0 0 -1.06 -1.06 -1.58 -1.06 0.53 0 1.06 1.06 1.06 0 1.06 0 1.06 -1.59 3.18 -1.59 0.53 -1.59 1.59 0 1.06 0 1.06 1.06 3.18 -1.59 1.06 -1.06 2.12 0.53 2.12 0 1.59 -0.53 1.59 0 2.12 2.12 0 0.53 0.53 1.59 -0.53 1.59 1.06 2.64 1.59 0 1.06 0 1.06 0 1.59 -1.06 0.53 -1.06 -0.53 0.53 -1.59 -0.53 -2.12 -1.06 -1.06 -2.64 0 -2.65 1.59 0 1.06 0 3.18 -0.53 1.06 -1.06 1.06 -1.06 1.59 0 1.06 -1.59 0.53 -1.59 0.53 -1.06 0.53 -1.06 1.06 -0.53 0.53 -1.06 0 -0.53 -0.53 -1.06 0 -1.06 -1.06 -1.06 -0.53 -1.06 -1.59 2.12 0 0.53 0.53 1.06 -0.53 1.59 0 2.12 -1.59 2.64 -2.12 1.06 0 0.53 -2.12 0.53 -1.06 1.59 -1.06 0.53 -1.59 -1.06 -1.59 -0.53 -1.59 1.06 -2.64 0 -4.23 1.59 -2.12 1.06 -2.65 0 -2.11 -1.59 -0.53 0.53 -1.59 1.59 -2.12 0.53 -2.12 0.53 -1.06 0.53 -1.06 -0.53 -2.65 -2.12 0 -1.06 -0.53 -1.59 0 -0.53 -1.06 -1.59 0.53 -1.06 1.59 -1.06 2.64 -1.06 2.12 -2.11 1.06 -2.65 1.59 -1.06 1.59 0.53 1.06 -0.53 2.11 0 3.18 -2.12 1.06 0.53 1.59 0.53 1.59 1.06 0 0 1.59 1.06 1.59 0.53 1.06 -1.06 1.06 0 1.06 -1.06 0.53 -0.53 -1.06 0 -2.11 -2.64 -3.7 -2.12 -1.59 -1.06 -1.59 -4.24 -4.76 -1.06 -0 -1.06 -1.06 -1.59 0 0.53 -1.59 -0.53 -1.59 0 -2.12 -1.06 -1.06 -2.12 0.53 0 2.12 0 1.59 1.06 -0 0 1.59 0.53 0 0 2.12 0 3.18 -1.06 0.53 -0.53 1.06 -1.59 0 -1.06 1.59 -0.53 -1.06 1.06 -2.12 0 -1.59 -1.06 0 -1.59 0.53 -1.59 0 0 0.53 -2.64 -2.12 -1.58 -0 -2.12 0.53 -1.59 -0.53 0.53 -1.59 1.58 0 0 -1.58 -1.06 -0.53 -3.7 -0.53 -0.53 0.53 -1.06 -0.53 -5.29 0 -3.7 -0.53 -1.06 1.06 -2.65 0 0 1.59 -2.64 0 -2.12 -1.06 0 -2.64 1.06 -1.59 2.65 0 1.06 1.06 1.06 -1.06 0.53 -4.24 -2.12 -2.64 -1.59 -1.59 -2.12 0 0.53 2.12 0 1.06 -1.59 1.59 0 1.59 -2.11 0.53 -0.53 1.59 0 1.59 -1.06 1.06 -1.59 0.53 -1.59 0 -1.59 -1.59 -1.59 -0.53 -1.58 0.53 -1.59 -1.06 -1.59 0.53 -3.18 -0.53 -0.53 2.12 -1.06 1.59 0.53 1.59 -1.05 -0 -1.59 -1.58 -1.06 -1.06 -0.53 -5.29 -1.59 0 -2.12 1.06 -1.06 1.06 1.06 2.64z"></path> <polygon class="fil0" points="135.82,236.05 135.82,236.58 136.88,237.64 135.82,239.76 134.23,239.76 133.17,239.76 131.06,238.7 130.53,237.64 131.59,236.05 133.17,234.47 134.76,235 "></polygon> <polygon class="fil0" points="189.26,205.89 189.79,207.48 188.73,210.66 186.09,211.71 185.03,212.77 182.38,212.24 180.79,212.77 176.56,212.77 175.5,213.3 172.86,213.83 171.8,214.36 171.8,215.42 170.21,216.48 168.1,216.48 166.51,218.59 164.92,219.65 163.86,220.71 162.81,220.71 160.69,222.3 159.63,224.94 157.51,224.94 156.99,226 155.93,227.59 154.34,230.23 154.34,232.88 154.34,233.94 155.4,236.58 153.81,239.23 152.75,238.17 150.63,237.11 149.05,235 146.93,233.41 147.99,231.82 148.52,231.82 147.99,228.64 145.87,227.59 145.87,225.47 146.93,223.35 149.05,223.35 151.69,222.3 150.63,220.71 151.69,220.18 154.34,220.18 154.34,218.06 156.46,218.06 157.51,217 156.99,215.94 158.57,215.42 161.22,214.36 162.27,213.83 163.33,212.24 165.45,212.24 165.45,210.66 165.98,208.54 167.04,209.07 168.63,209.6 169.68,208.54 170.74,208.54 172.33,208.54 173.92,208.01 174.98,208.54 176.56,207.48 177.62,207.48 178.68,208.54 180.27,208.54 181.33,209.6 182.91,208.54 185.56,206.42 188.21,206.42 189.26,205.89 "></polygon> <polygon class="fil0" points="228.42,181.02 227.89,182.61 225.24,183.67 225.77,185.26 224.18,187.37 226.3,189.49 224.18,190.02 224.18,192.14 225.77,192.14 226.83,190.55 228.42,188.96 231.59,188.96 231.59,186.31 232.12,184.73 230.54,183.14 "></polygon> <polygon class="fil0" points="229.48,190.02 228.42,192.14 227.36,193.19 226.83,194.25 228.42,194.78 228.42,196.37 230.54,197.43 232.12,197.43 233.18,198.49 235.83,197.43 235.83,196.9 234.77,194.78 235.83,193.19 235.3,191.08 233.71,190.55 232.12,192.14 231.59,190.02 "></polygon> <polygon class="fil0" points="239,193.72 238.47,194.25 237.94,196.37 237.41,196.37 237.41,198.49 236.89,198.49 236.89,200.6 236.36,203.25 236.89,203.78 239,202.19 241.65,201.66 243.23,199.54 243.23,197.43 242.17,196.37 240.59,195.31 239.53,196.9 239.53,194.78 "></polygon> <polygon class="fil0" points="315.2,182.08 314.14,182.61 313.08,184.2 312.02,183.14 310.96,184.73 309.91,185.26 308.85,185.26 309.38,187.37 311.49,187.37 312.55,186.31 314.14,186.31 315.73,185.78 316.26,184.2 316.79,182.61 315.73,182.08 "></polygon> <polygon class="fil0" points="311.49,198.49 309.91,200.07 309.91,202.19 312.55,202.72 315.2,201.13 315.2,199.54 313.08,198.49 "></polygon> <polygon class="fil0" points="305.14,186.31 304.08,187.37 304.08,189.49 305.14,191.08 307.79,190.55 307.79,188.96 306.73,188.96 307.26,187.37 "></polygon> <polygon class="fil0" points="301.97,187.37 303.03,188.96 302.5,190.02 304.08,191.61 305.67,192.14 306.73,192.14 307.26,192.66 306.73,194.25 305.14,193.72 304.08,196.37 303.03,196.9 303.56,198.49 301.97,198.49 299.32,197.43 297.21,196.9 297.21,195.84 296.15,195.31 296.15,192.66 296.68,191.08 297.73,190.55 300.38,191.08 301.44,191.61 301.44,191.08 299.85,188.96 300.38,187.9 "></polygon> <polygon class="fil0" points="366.52,139.75 364.94,140.81 362.82,142.4 362.82,143.45 362.82,144.51 363.88,146.1 364.41,147.69 366,147.69 367.05,146.63 366,145.57 367.05,143.99 367.05,141.34 "></polygon> <polygon class="fil0" points="419.44,211.18 418.91,212.77 418.91,215.42 419.97,215.42 420.5,217 421.56,216.48 421.02,215.42 421.56,213.3 421.02,211.18 "></polygon> <polygon class="fil0" points="445.9,218.06 444.31,218.59 442.72,218.59 442.19,219.65 442.72,220.18 445.9,220.18 447.48,218.59 "></polygon> <polygon class="fil0" points="449.6,214.36 447.48,215.42 448.01,217 450.13,215.42 450.13,214.36 "></polygon> <polygon class="fil0" points="447.48,265.16 446.42,266.74 446.42,267.8 446.96,269.92 448.54,270.98 449.6,270.45 450.13,267.8 449.07,265.69 "></polygon> <polygon class="fil0" points="454.89,301.67 453.83,304.31 454.36,306.43 454.89,307.49 456.48,306.43 456.48,303.79 456.48,301.67 "></polygon> <polygon class="fil0" points="452.25,313.84 451.72,314.9 451.72,315.95 451.72,318.07 452.25,318.6 453.3,318.07 452.77,316.48 453.83,315.43 453.83,313.84 "></polygon> <polygon class="fil0" points="450.13,322.83 450.13,323.89 450.13,325.48 451.72,325.48 451.72,324.95 452.25,324.42 452.25,322.83 451.19,322.3 "></polygon> <polygon class="fil0" points="455.42,292.67 455.42,294.79 455.95,295.85 457.01,295.32 456.48,293.73 456.48,291.08 "></polygon> <polygon class="fil0" points="453.3,310.13 453.83,312.25 454.36,312.25 454.36,311.19 454.36,309.6 "></polygon> <polygon class="fil0" points="455.42,323.36 454.36,323.89 454.36,325.48 456.48,324.95 455.95,323.89 "></polygon> <polygon class="fil0" points="10.94,238.7 9.35,239.23 7.77,239.76 8.82,242.4 11.47,246.64 13.59,248.75 16.23,247.69 17.29,246.11 16.76,243.99 16.23,242.93 16.23,241.88 14.64,239.76 13.06,239.76 "></polygon> <polygon class="fil0" points="381.34,295.85 380.81,296.38 379.75,296.38 379.22,297.44 379.22,299.02 379.75,299.55 380.28,299.02 380.81,299.55 381.87,299.55 382.4,297.96 382.4,296.9 "></polygon> </g> </g> </svg> 