<?xml version="1.0" encoding="UTF-8"?> <!-- Creator: CorelDRAW 2021.5 --> <svg xmlns="http://www.w3.org/2000/svg" xmlns:xlink="http://www.w3.org/1999/xlink" xmlns:xodm="http://www.corel.com/coreldraw/odm/2003" xml:space="preserve" width="15.4013mm" height="16.9137mm" style="shape-rendering:geometricPrecision; text-rendering:geometricPrecision; image-rendering:optimizeQuality; fill-rule:evenodd; clip-rule:evenodd" viewBox="0 0 30789.21 33812.69"> <defs> <style type="text/css"> <![CDATA[ .fil0 {fill:#444444} ]]> </style> </defs> <g id="Layer_x0020_1"> <metadata id="CorelCorpID_0Corel-Layer"></metadata> <path class="fil0" d="M30786.41 21761.33c-3242.79,6970.57 -10547.01,12051.36 -18196.48,12051.36 -5677.13,0 -10235.95,-2798.38 -12589.92,-7090.92 2906.54,3160.63 7167.08,5091.78 12199.69,5091.78 7301.42,0 14327.57,-4063.43 18586.71,-10052.23zm-12587.32 -21761.33c5677.13,0 10236.15,2798.58 12590.12,7091.12 -2906.54,-3160.82 -7167.28,-5091.98 -12199.89,-5091.98 -7301.42,0 -14327.57,4063.23 -18586.51,10051.63 3242.79,-6970.37 10547.01,-12050.76 18196.28,-12050.76z"></path> <path class="fil0" d="M16114.39 19938.73c930.99,0 930.99,-1448.37 0,-1448.37 -930.99,0 -956.98,1448.37 0,1448.37zm-5715.71 1396.59l11431.43 0c155.13,-439.61 517.18,-801.65 956.98,-956.98l0 -2327.39c-439.81,-155.33 -801.85,-517.37 -956.98,-956.98l-11431.43 -0.4c-155.13,439.61 -517.18,801.85 -956.78,956.98l0 2327.59c439.61,155.33 801.65,517.37 956.78,957.18l0 0zm5715.71 -3879.51c2276.01,0 2250.02,3517.47 0,3517.47 -2276.01,-0.2 -2301.8,-3517.47 0,-3517.47zm-9439.89 -2638.05l0 8767.59c0,284.48 232.7,517.37 517.18,517.37l17845.44 0c284.48,0 517.18,-232.9 517.18,-517.37l0.2 -8767.59c0,-284.48 -232.7,-517.18 -517.18,-517.18l-17845.44 0c-310.27,0 -517.37,232.7 -517.37,517.37l0 -0.2zm1732.65 2793.38c0,-594.94 594.94,-388.03 879.42,-672.51 284.48,-284.48 103.36,-879.22 672.31,-879.22l12285.06 0c594.74,0 387.83,594.74 672.31,879.22 284.48,284.48 879.22,103.36 879.22,672.51l0 3207c0,594.74 -594.74,387.83 -879.22,672.31 -284.48,284.48 -103.36,879.42 -672.31,879.42l-12285.06 0c-594.74,0 -387.83,-594.94 -672.31,-879.42 -284.48,-284.48 -879.42,-103.36 -879.42,-672.31l0 -3207zm-2250.02 4112.21l0 -6905.4c0,-232.9 77.57,-439.81 206.91,-620.93l-1577.51 414.02c-284.68,77.57 -439.81,362.04 -362.24,620.73l1732.85 6491.58zm15879.89 -11716.1l-14147.05 3775.96 6698.49 0 5198.54 -1396.39c568.95,-155.33 543.16,491.39 879.22,672.31 362.04,206.91 879.42,-129.34 1034.55,413.82l77.57 284.48 1784.62 0 -905.41 -3413.91c-25.79,-129.34 -129.34,-232.7 -232.7,-310.27 -128.94,-51.78 -258.29,-77.57 -387.63,-25.79l-0.2 -0.2zm-10241.74 2198.44l4655.37 -2689.63c517.18,-284.48 646.52,336.25 1034.35,439.61 387.83,103.36 827.84,-362.04 1112.12,129.34l155.13 258.69 1732.85 -465.4 -1758.63 -3077.86c-129.34,-232.7 -465.4,-336.25 -698.3,-181.12l-12672.89 7319.22 6440 -1732.85zm-6103.74 9853.71l-1784.42 -6672.5c-51.78,-206.91 -51.78,-465.6 51.78,-672.51l-1422.58 827.64c-232.7,129.34 -336.25,465.4 -181.12,698.3l3336.35 5819.07z"></path> </g> </svg> 