<?xml version="1.0" encoding="UTF-8"?> <!-- Creator: CorelDRAW 2021.5 --> <svg xmlns="http://www.w3.org/2000/svg" xmlns:xlink="http://www.w3.org/1999/xlink" xmlns:xodm="http://www.corel.com/coreldraw/odm/2003" xml:space="preserve" width="15.4013mm" height="16.9137mm" style="shape-rendering:geometricPrecision; text-rendering:geometricPrecision; image-rendering:optimizeQuality; fill-rule:evenodd; clip-rule:evenodd" viewBox="0 0 469.33 515.42"> <defs> <style type="text/css"> <![CDATA[ .fil0 {fill:#444444} ]]> </style> </defs> <g id="Layer_x0020_1"> <metadata id="CorelCorpID_0Corel-Layer"></metadata> <path class="fil0" d="M234.66 275.63c0,-55.33 45.01,-100.34 100.34,-100.34 8.67,0 17.05,1.22 25.09,3.31l0 -40.94c-83.61,-34.69 -173.32,-32.19 -250.85,0l0 87.79c0,27.58 5.55,53.91 15.48,77.93 10.31,24.9 25.33,47.3 44.05,66.08 18.74,18.78 41.09,33.82 65.9,44.13 24.72,-10.28 46.97,-25.26 65.68,-43.92 -38.27,-14.16 -65.68,-50.92 -65.68,-94.04l0 -0zm94.07 38l-37.63 -37.63 13.3 -13.3 24.33 24.32 61.93 -61.93c-13.77,-15.15 -33.56,-24.73 -55.66,-24.73 -41.57,0 -75.25,33.68 -75.25,75.25 0,41.57 33.68,75.25 75.25,75.25 41.57,0 75.25,-33.69 75.25,-75.25 0,-12.6 -3.14,-24.46 -8.61,-34.91l-72.92 72.92z"></path> <path class="fil0" d="M469.29 331.72c-49.43,106.26 -160.77,183.7 -277.38,183.7 -86.54,0 -156.03,-42.66 -191.91,-108.09 44.31,48.18 109.25,77.62 185.97,77.62 111.3,0 218.4,-61.94 283.33,-153.23zm-191.87 -331.72c86.54,0 156.03,42.66 191.92,108.09 -44.31,-48.18 -109.25,-77.62 -185.97,-77.62 -111.3,0 -218.4,61.94 -283.32,153.22 49.43,-106.25 160.77,-183.69 277.37,-183.69z"></path> </g> </svg> 