<?xml version="1.0" encoding="UTF-8"?> <!-- Creator: CorelDRAW 2021.5 --> <svg xmlns="http://www.w3.org/2000/svg" xmlns:xlink="http://www.w3.org/1999/xlink" xmlns:xodm="http://www.corel.com/coreldraw/odm/2003" xml:space="preserve" width="15.4013mm" height="16.9137mm" style="shape-rendering:geometricPrecision; text-rendering:geometricPrecision; image-rendering:optimizeQuality; fill-rule:evenodd; clip-rule:evenodd" viewBox="0 0 243.01 266.88"> <defs> <style type="text/css"> <![CDATA[ .fil0 {fill:#444444} ]]> </style> </defs> <g id="Layer_x0020_1"> <metadata id="CorelCorpID_0Corel-Layer"></metadata> <path class="fil0" d="M242.99 171.76c-25.59,55.02 -83.25,95.12 -143.62,95.12 -44.81,0 -80.79,-22.09 -99.37,-55.97 22.94,24.95 56.57,40.19 96.29,40.19 57.63,0 113.08,-32.07 146.7,-79.34zm-99.35 -171.76c44.81,0 80.79,22.09 99.37,55.97 -22.94,-24.95 -56.57,-40.19 -96.29,-40.19 -57.63,0 -113.08,32.07 -146.7,79.34 25.59,-55.02 83.25,-95.11 143.62,-95.11z"></path> <path class="fil0" d="M75.12 190.11l0 0c0.11,-0 0.22,-0 0.33,0l35.42 0c0.95,-0.01 1.86,0.35 2.54,1.02 0.68,0.67 1.05,1.57 1.05,2.52 0,0.95 -0.38,1.86 -1.05,2.52 -0.68,0.67 -1.59,1.03 -2.54,1.02l-35.42 0c-0.94,0.04 -1.86,-0.29 -2.55,-0.92 -0.7,-0.63 -1.11,-1.52 -1.15,-2.46 -0.09,-1.95 1.42,-3.61 3.38,-3.71l-0 0zm0 -12.7l0 0c0.11,-0 0.22,-0 0.33,0l35.42 0c0.95,-0.01 1.86,0.36 2.54,1.02 0.68,0.67 1.05,1.57 1.05,2.52 0,0.95 -0.38,1.86 -1.05,2.52 -0.68,0.66 -1.59,1.03 -2.54,1.02l-35.42 0c-0.94,0.04 -1.86,-0.29 -2.55,-0.92 -0.7,-0.63 -1.11,-1.52 -1.15,-2.46 -0.09,-1.95 1.42,-3.62 3.38,-3.71l-0 0zm0 -12.69l0 0c0.11,-0 0.22,-0 0.33,0l35.42 0c0.95,-0.01 1.86,0.36 2.54,1.02 0.68,0.66 1.05,1.57 1.05,2.52 0,0.95 -0.38,1.86 -1.05,2.52 -0.68,0.67 -1.59,1.03 -2.54,1.02l-35.42 0c-0.94,0.04 -1.86,-0.29 -2.55,-0.92 -0.7,-0.64 -1.11,-1.52 -1.15,-2.46 -0.09,-1.96 1.42,-3.62 3.38,-3.71l-0 0zm0 -12.69l0 0c0.11,-0.01 0.22,-0.01 0.33,0l35.42 0c0.95,-0.01 1.86,0.35 2.54,1.02 0.68,0.67 1.05,1.58 1.05,2.52 0,0.95 -0.38,1.86 -1.05,2.52 -0.68,0.67 -1.59,1.03 -2.54,1.02l-35.42 0c-0.94,0.04 -1.86,-0.29 -2.55,-0.92 -0.7,-0.63 -1.11,-1.52 -1.15,-2.46 -0.09,-1.95 1.42,-3.61 3.38,-3.71l-0 0zm0 -12.7l0 0c0.11,-0.01 0.22,-0.01 0.33,0l35.42 0c0.95,-0.01 1.86,0.36 2.53,1.02 0.67,0.67 1.05,1.57 1.05,2.52 0,0.95 -0.38,1.85 -1.05,2.52 -0.67,0.67 -1.58,1.03 -2.53,1.02l-35.42 0c-1.96,0.09 -3.62,-1.42 -3.71,-3.38 -0.09,-1.96 1.42,-3.62 3.38,-3.71l-0 -0zm0 -12.69l0 0c0.11,-0 0.22,-0 0.33,0l35.42 0c0.95,-0.01 1.86,0.35 2.54,1.02 0.68,0.67 1.05,1.57 1.05,2.52 0,0.95 -0.38,1.86 -1.05,2.52 -0.68,0.67 -1.59,1.04 -2.54,1.02l-35.42 0c-0.94,0.04 -1.86,-0.29 -2.55,-0.92 -0.7,-0.63 -1.11,-1.51 -1.15,-2.46 -0.09,-1.95 1.42,-3.61 3.38,-3.71l-0 0zm0 -12.7l0 0c0.11,-0 0.22,-0 0.33,0l35.42 0c0.95,-0.01 1.86,0.35 2.54,1.02 0.68,0.67 1.05,1.57 1.05,2.52 0,0.95 -0.38,1.86 -1.05,2.52 -0.68,0.66 -1.59,1.03 -2.54,1.02l-35.42 0c-0.94,0.04 -1.86,-0.29 -2.55,-0.92 -0.7,-0.63 -1.11,-1.51 -1.15,-2.46 -0.09,-1.96 1.42,-3.62 3.38,-3.71l-0 -0zm72.95 -3.54l15.94 0 0 76.16 -7.08 0 0 -63.76c0,-1.13 -1.19,-2.7 -1.77,-3.54l-7.08 -8.86zm-15.94 -8.85l14.17 19.48 -14.17 0 0 -19.48zm31.88 -7.08l14.17 0 0 76.16 -7.08 0 0 -63.76c0,-1.77 -0.28,-3.38 -1.77,-5.31l-5.31 -7.08zm-15.94 -8.86l12.4 17.71 -12.4 0 0 -17.71zm-67.3 -7.08l60.22 0 0 23.02 -8.85 -10.63c-1.01,-1.25 -2.28,-1.77 -3.54,-1.77l-47.82 0 0 -10.63 0 0zm79.7 -8.85l14.17 17.71 -14.17 0 0 -17.71zm-67.3 -7.08l60.22 0 0 17.71 -6.36 -7.08c-0.77,-0.93 -1.61,-1.77 -2.49,-1.77l-51.36 0 0 -8.86zm-3.54 -7.08c-1.85,0 -3.54,1.69 -3.54,3.54l0 12.4 -8.85 0c-1.86,0 -3.54,1.69 -3.54,3.54l0 14.17 -12.4 0c-1.87,-0.02 -3.52,1.7 -3.54,3.54l0 115.12c-0.01,1.86 1.66,3.56 3.54,3.54l92.1 0c1.88,0.02 3.55,-1.68 3.54,-3.54l0 -14.17 10.63 0c1.88,0.02 3.61,-1.68 3.6,-3.54l-0.05 -12.4 10.63 0c1.85,0 3.54,-1.69 3.54,-3.54l0 -83.24c0,-1.5 -0.53,-2.47 -1.27,-3.43l-23.86 -29.89c-0.66,-0.77 -2.48,-2.09 -4.98,-2.1l-65.53 0z"></path> </g> </svg> 