<?xml version="1.0" encoding="UTF-8"?> <!-- Creator: CorelDRAW 2021.5 --> <svg xmlns="http://www.w3.org/2000/svg" xmlns:xlink="http://www.w3.org/1999/xlink" xmlns:xodm="http://www.corel.com/coreldraw/odm/2003" xml:space="preserve" width="15.4013mm" height="16.9137mm" style="shape-rendering:geometricPrecision; text-rendering:geometricPrecision; image-rendering:optimizeQuality; fill-rule:evenodd; clip-rule:evenodd" viewBox="0 0 166.43 182.77"> <defs> <style type="text/css"> <![CDATA[ .fil0 {fill:#444444} ]]> </style> </defs> <g id="Layer_x0020_1"> <metadata id="CorelCorpID_0Corel-Layer"></metadata> <path class="fil0" d="M166.42 117.63c-17.53,37.68 -57.01,65.14 -98.36,65.14 -30.69,0 -55.33,-15.13 -68.05,-38.33 15.71,17.08 38.74,27.52 65.95,27.52 39.47,0 77.45,-21.96 100.47,-54.34zm-68.04 -117.63c30.69,0 55.33,15.13 68.06,38.33 -15.71,-17.09 -38.74,-27.52 -65.95,-27.52 -39.47,0 -77.45,21.96 -100.47,54.33 17.53,-37.68 57.01,-65.14 98.36,-65.14z"></path> <path class="fil0" d="M96.36 134.89c-0,1.04 -0.42,2.04 -1.16,2.78 -0.74,0.74 -1.74,1.15 -2.78,1.16l-61.39 0c-1.04,-0 -2.04,-0.42 -2.78,-1.16 -0.74,-0.74 -1.16,-1.74 -1.16,-2.78l0 -7.15c0,-1.04 0.42,-2.04 1.16,-2.78 0.74,-0.74 1.74,-1.15 2.78,-1.16l61.39 0c1.04,0 2.04,0.42 2.78,1.16 0.74,0.74 1.15,1.74 1.16,2.78l0 7.15zm-22.93 -21.44c-1.22,0 -2.39,-0.48 -3.25,-1.35l-26.49 -26.49c-1.16,-1.16 -1.61,-2.85 -1.19,-4.43 0.42,-1.58 1.66,-2.82 3.25,-3.25 1.58,-0.43 3.27,0.03 4.43,1.18l26.5 26.49c0.86,0.86 1.34,2.03 1.34,3.25 0,1.22 -0.48,2.39 -1.35,3.25 -0.86,0.86 -2.03,1.35 -3.25,1.35l-0 0zm60.76 8.22l-36.84 -36.84 8.99 -8.99 -26.3 -26.29 -24.61 24.61 26.29 26.29 9.13 -9.13 36.84 36.84c1.16,1.16 2.85,1.61 4.43,1.18 1.58,-0.43 2.82,-1.66 3.24,-3.25 0.42,-1.58 -0.03,-3.27 -1.19,-4.43l0 0zm-19.31 -49.67c-1.22,0 -2.39,-0.48 -3.25,-1.35l-26.49 -26.49 0 0c-0.86,-0.86 -1.35,-2.03 -1.35,-3.25 -0,-1.22 0.48,-2.39 1.34,-3.25 0.86,-0.86 2.03,-1.35 3.25,-1.35 1.22,0 2.39,0.49 3.25,1.35l26.49 26.49c0.86,0.86 1.35,2.03 1.35,3.25 0,1.22 -0.48,2.39 -1.34,3.25 -0.86,0.86 -2.03,1.35 -3.25,1.35l0 0z"></path> </g> </svg> 