<?xml version="1.0" encoding="UTF-8"?> <!-- Creator: CorelDRAW 2021.5 --> <svg xmlns="http://www.w3.org/2000/svg" xmlns:xlink="http://www.w3.org/1999/xlink" xmlns:xodm="http://www.corel.com/coreldraw/odm/2003" xml:space="preserve" width="29.9862mm" height="25.3983mm" style="shape-rendering:geometricPrecision; text-rendering:geometricPrecision; image-rendering:optimizeQuality; fill-rule:evenodd; clip-rule:evenodd" viewBox="0 0 610.35 516.96"> <defs> <style type="text/css"> <![CDATA[ .fil2 {fill:none} .fil1 {fill:#007336} .fil0 {fill:white;fill-rule:nonzero} ]]> </style> </defs> <g id="Layer_x0020_1"> <metadata id="CorelCorpID_0Corel-Layer"></metadata> <path class="fil0" d="M442.62 212.2c4.01,0 7.26,-3.24 7.26,-7.26l0 -29.02c0,-4.01 -3.25,-7.26 -7.26,-7.26l-79.82 0 0 -14.51 29.02 0c3.44,0 6.41,-2.41 7.1,-5.78 0.7,-3.37 -1.06,-6.77 -4.21,-8.13l-166.89 -72.56c-1.85,-0.81 -3.94,-0.81 -5.79,0l-166.89 72.56c-3.15,1.36 -4.91,4.77 -4.21,8.13 0.7,3.37 3.66,5.78 7.1,5.78l29.03 0 0 14.51 -79.82 0c-4.01,0 -7.26,3.24 -7.26,7.26l0 29.02c0,4.01 3.25,7.26 7.26,7.26l7.25 0 0 261.22 -7.25 0c-4.01,0 -7.26,3.24 -7.26,7.26l0 29.03c0,4.01 3.25,7.26 7.26,7.26l435.37 0c4.01,0 7.26,-3.24 7.26,-7.26l0 -29.03c0,-4.01 -3.25,-7.26 -7.26,-7.26l-7.26 0 0 -261.22 7.26 0zm-391.83 101.59l29.03 0c4.01,0 7.26,-3.24 7.26,-7.26l0 -43.54c0,-4.01 -3.25,-7.26 -7.26,-7.26l-29.03 0c-4.01,0 -7.26,3.24 -7.26,7.26l0 43.54c0,4.01 3.25,7.26 7.26,7.26zm7.26 -43.54l14.51 0 0 29.02 -14.51 0 0 -29.02zm304.76 -7.26l0 43.54c0,4.01 3.25,7.26 7.26,7.26l29.02 0c4.01,0 7.26,-3.24 7.26,-7.26l0 -43.54c0,-4.01 -3.25,-7.26 -7.26,-7.26l-29.03 0c-4,0 -7.25,3.24 -7.25,7.26zm14.51 7.26l14.51 0 0 29.02 -14.51 0 0 -29.02zm-101.58 -7.26c0,-4.01 -3.25,-7.26 -7.26,-7.26l-29.03 0c-4.01,0 -7.26,3.24 -7.26,7.26l0 43.54c0,4.01 3.25,7.26 7.26,7.26l29.03 0c4,0 7.26,-3.24 7.26,-7.26l0 -43.54zm-14.51 36.28l-14.51 0 0 -29.02 14.51 0 0 29.02zm-50.79 -43.54l-29.02 0c-4.01,0 -7.26,3.24 -7.26,7.26l0 43.54c0,4.01 3.25,7.26 7.26,7.26l29.02 0c4.01,0 7.26,-3.24 7.26,-7.26l0 -43.54c0,-4.01 -3.25,-7.26 -7.26,-7.26zm-7.26 43.54l-14.51 0 0 -29.02 14.51 0 0 29.02zm21.77 -217.02l132 57.39 -264.01 0 132 -57.39zm-123.35 71.9l246.71 0 0 14.51 -246.71 0 0 -14.51zm-87.08 29.03l420.86 0 0 14.51 -79.82 0 -72.56 0 -116.1 0 -72.56 0 -79.82 0 0 -14.51zm348.3 290.24l0 -21.77c0,-4.01 -3.25,-7.26 -7.26,-7.26l-7.26 0 0 -58.05 43.54 0 0 87.07 -29.02 0zm-101.59 0l0 -123.35c0,-4.01 -3.25,-7.26 -7.26,-7.26l-58.05 0c-4.01,0 -7.26,3.24 -7.26,7.26l0 123.35 -14.51 0 0 -21.77c0,-4.01 -3.25,-7.26 -7.26,-7.26l-7.26 0 0 -203.17 7.26 0c4.01,0 7.26,-3.24 7.26,-7.26l0 -21.77 101.59 0 0 21.77c0,4.01 3.25,7.26 7.26,7.26l7.25 0 0 203.17 -7.26 0c-4,0 -7.26,3.24 -7.26,7.26l0 21.77 -14.51 -0zm-14.51 -101.58l-43.54 0 0 -14.51 43.54 0 0 14.51zm-43.54 14.51l43.54 0 0 87.07 -43.54 0 0 -87.07zm-145.12 87.07l0 -87.07 43.54 0 0 58.05 -7.26 0c-4.01,0 -7.26,3.24 -7.26,7.26l0 21.77 -29.03 -0zm94.33 -246.71l-43.54 0 -7.25 0 0 -14.51 58.05 0 0 14.51 -7.26 0zm-7.26 14.51l0 203.17 -29.03 0 0 -203.17 29.03 0zm-43.54 130.61l-43.54 0 0 -14.51 43.54 0 0 14.51zm0 87.07l7.25 0 43.54 0 7.26 0 0 14.51 -58.05 0 0 -14.51zm188.66 0l7.26 0 43.54 0 7.26 0 0 14.51 -58.05 0 0 -14.51zm101.59 -87.07l-43.54 0 0 -14.51 43.54 0 0 14.51zm-58.05 72.56l-29.03 0 0 -203.17 29.03 0 0 203.17zm7.26 -217.68l-43.54 0 -7.26 0 0 -14.51 58.05 0 0 14.51 -7.26 0zm-312.01 -14.51l58.05 0 0 21.77c0,4.01 3.25,7.26 7.26,7.26l7.26 0 0 101.59 -50.79 0c-4.01,0 -7.26,3.24 -7.26,7.26l0 123.35 -14.51 0 0 -261.22zm406.34 290.25l-420.86 0 0 -14.51 79.82 0 72.56 0 116.1 0 72.56 0 79.82 0 0 14.51zm-14.51 -29.03l-14.51 0 0 -123.35c0,-4.01 -3.25,-7.26 -7.26,-7.26l-50.79 0 0 -101.59 7.26 0c4.01,0 7.26,-3.24 7.26,-7.26l0 -21.77 58.05 0 0 261.22z"></path> <path class="fil1" d="M519.01 130.51c59.49,0 99.71,48.22 89.84,107.71 -9.87,59.49 -66.09,107.71 -125.58,107.71 -59.49,0 -99.71,-48.22 -89.84,-107.71 9.87,-59.49 66.09,-107.71 125.57,-107.71z"></path> <path class="fil0" d="M461.77 239.43l17 -62.44 69.85 0 -3.53 21.88 -46.88 0 -7.5 24.73c4.54,-2.93 10.2,-4.45 16.92,-4.57 10.77,0 19.07,3.73 24.87,11.17 5.8,7.47 8.19,17.2 7.18,29.27 -1.01,12.44 -5.86,22.55 -14.56,30.36 -8.67,7.84 -19.19,11.63 -31.54,11.4 -7.24,-0.17 -13.81,-1.84 -19.73,-5.03 -5.92,-3.19 -10.51,-7.52 -13.76,-13.01 -3.25,-5.51 -4.85,-11.66 -4.8,-18.47l27.6 0c0.12,4.37 1.21,7.87 3.27,10.51 2.07,2.61 5,3.99 8.76,4.11 4.59,0.17 8.41,-1.55 11.43,-5.17 3.04,-3.62 4.97,-9.1 5.8,-16.52 0.58,-6.2 -0.26,-10.94 -2.53,-14.16 -2.24,-3.22 -5.75,-4.82 -10.51,-4.82 -6.12,0 -11.09,2.07 -14.88,6.2l-22.49 -5.46z"></path> <polygon class="fil2" points="-0,0 610.34,0 610.34,516.96 -0,516.96 "></polygon> </g> </svg> 