<?xml version="1.0" encoding="UTF-8"?> <!-- Creator: CorelDRAW 2021.5 --> <svg xmlns="http://www.w3.org/2000/svg" xmlns:xlink="http://www.w3.org/1999/xlink" xmlns:xodm="http://www.corel.com/coreldraw/odm/2003" xml:space="preserve" width="29.9862mm" height="25.3983mm" style="shape-rendering:geometricPrecision; text-rendering:geometricPrecision; image-rendering:optimizeQuality; fill-rule:evenodd; clip-rule:evenodd" viewBox="0 0 610.35 516.96"> <defs> <style type="text/css"> <![CDATA[ .fil2 {fill:none} .fil1 {fill:#007336} .fil0 {fill:white;fill-rule:nonzero} ]]> </style> </defs> <g id="Layer_x0020_1"> <metadata id="CorelCorpID_0Corel-Layer"></metadata> <path class="fil0" d="M28.67 347.1c0.75,1.32 2.18,2.14 3.72,2.14 0.76,0 1.49,-0.2 2.16,-0.59 2.11,-1.22 2.8,-3.85 1.62,-5.92 -0.79,-1.34 -2.23,-2.17 -3.79,-2.17 -0.75,0 -1.46,0.19 -2.18,0.61 -0.99,0.57 -1.71,1.49 -2,2.59 -0.3,1.12 -0.14,2.28 0.47,3.34zm-13.56 7.72c3.26,5.64 9.29,9.15 15.72,9.15 3.08,0 6.08,-0.85 8.69,-2.46l139.56 -88.25 -11.55 -20 -145.98 77.09c-3.98,2.16 -6.88,5.84 -8.16,10.36 -1.34,4.75 -0.71,9.89 1.72,14.12zm186.86 -67.36l13.03 -7.79 -29.62 -51.39 -5.31 -9.19 -13.09 7.83 8.12 14.05c0.13,0.18 0.25,0.37 0.37,0.57l17.72 30.7c0.07,0.13 0.14,0.26 0.2,0.4l8.57 14.82zm39.36 36.97c1.16,1.98 3.82,2.8 5.93,1.56l104.62 -60.36c0.98,-0.56 1.68,-1.48 1.97,-2.59 0.29,-1.11 0.14,-2.26 -0.47,-3.29 -0.74,-1.31 -2.17,-2.12 -3.7,-2.12 -0.76,0 -1.49,0.2 -2.14,0.57l-99.8 57.59 -3.38 1.95c-0.01,0 -0.02,0.01 -0.03,0.01l-1.4 0.81c-2.06,1.18 -2.76,3.85 -1.6,5.87zm22.91 -194.53l-90.73 52.41 14.24 24.67c0.04,0.06 0.08,0.11 0.11,0.17l8.56 14.84 47.09 81.57 90.75 -52.42 -70.02 -121.23zm2.14 -20.92c-0.75,-1.3 -2.16,-2.11 -3.7,-2.11 -0.77,0 -1.5,0.2 -2.19,0.6l-104.59 60.38c-0.97,0.55 -1.66,1.46 -1.96,2.55 -0.31,1.13 -0.16,2.3 0.43,3.33 0.76,1.33 2.19,2.16 3.75,2.16 0.75,0 1.45,-0.19 2.09,-0.55l1.06 -0.61c0.13,-0.09 0.24,-0.19 0.38,-0.27l101.75 -58.72c0,0 0.01,-0 0.01,-0l1.43 -0.83c2.05,-1.18 2.75,-3.84 1.56,-5.92zm-265.21 228.27c2.22,-7.85 7.31,-14.26 14.33,-18.07l145.68 -76.92 -8.32 -14.4c-1.73,-3.01 -0.74,-6.85 2.24,-8.63l18.62 -11.14 -11.56 -20.01c-1.32,0.33 -2.68,0.5 -4.06,0.5 -6.11,0 -11.77,-3.28 -14.77,-8.55 -2.27,-3.95 -2.86,-8.56 -1.66,-12.97 1.19,-4.37 4.01,-8.01 7.9,-10.23l104.54 -60.35c2.6,-1.51 5.56,-2.31 8.56,-2.31 6.08,0 11.72,3.26 14.73,8.5 3.84,6.73 2.6,14.99 -2.5,20.3l70.73 122.46c1.32,-0.33 2.68,-0.5 4.05,-0.5 6.09,0 11.74,3.27 14.7,8.47 2.3,3.92 2.92,8.5 1.75,12.91 -1.17,4.41 -3.98,8.08 -7.9,10.34l-104.57 60.34c-2.59,1.52 -5.54,2.32 -8.54,2.32 -6.04,0 -11.69,-3.24 -14.78,-8.5 -3.83,-6.72 -2.58,-14.98 2.51,-20.29l-11.46 -19.85 -18.43 11.02c-0.99,0.6 -2.12,0.9 -3.26,0.9 -0.54,0 -1.07,-0.07 -1.6,-0.2 -1.65,-0.43 -3.05,-1.5 -3.9,-2.97l-8.75 -15.14 -139.26 88.06c-4.6,2.84 -9.91,4.35 -15.36,4.35 -10.95,0 -21.19,-5.93 -26.73,-15.5 -4.13,-7.18 -5.2,-15.9 -2.93,-23.92zm239.59 -54.06l-51.06 -87.56c-1.77,-3.03 -0.74,-6.92 2.29,-8.69 3.03,-1.77 6.92,-0.74 8.69,2.29l51.06 87.56c1.77,3.03 0.74,6.92 -2.29,8.69 -1.01,0.59 -2.11,0.87 -3.19,0.87 -2.19,0 -4.31,-1.13 -5.49,-3.15zm-216.92 47c2.58,-1.52 5.54,-2.32 8.54,-2.32 6.04,0 11.68,3.23 14.77,8.49 4.68,8.14 1.88,18.59 -6.23,23.29 -2.6,1.5 -5.54,2.3 -8.53,2.3 -6.09,0 -11.74,-3.27 -14.72,-8.5 -2.3,-3.95 -2.91,-8.56 -1.72,-12.97 1.19,-4.4 4.02,-8.06 7.9,-10.28z"></path> <path class="fil0" d="M182.25 504.26l247.75 0 0 -22.73 -26.72 0 -194.31 0 -26.72 0 0 22.73zm214.68 -46.8c0,-6.27 -5.1,-11.37 -11.37,-11.37l-17.55 0 -123.77 0 -17.55 0c-6.27,0 -11.37,5.1 -11.37,11.37l0 11.37 181.61 0 0 -11.37zm-35.27 -35.45c0,-6.24 -5.1,-11.31 -11.37,-11.31l-88.32 0c-6.27,0 -11.37,5.07 -11.37,11.31l0 11.37 111.06 0 0 -11.37zm-185.76 46.81l26.72 0 0 -11.37c0,-13.27 10.8,-24.07 24.07,-24.07l11.2 0 0 -11.37c0,-13.24 10.8,-24.01 24.07,-24.01l88.32 0c13.27,0 24.07,10.77 24.07,24.01l0 11.37 11.2 0c13.28,0 24.07,10.8 24.07,24.07l0 11.37 26.72 0c3.51,0 6.35,2.85 6.35,6.35l0 35.43c0,3.5 -2.84,6.35 -6.35,6.35l-260.45 0c-3.51,0 -6.35,-2.84 -6.35,-6.35l0 -35.43c0,-3.5 2.85,-6.35 6.35,-6.35z"></path> <path class="fil1" d="M519.01 113.28c59.49,0 99.71,48.22 89.84,107.71 -9.87,59.49 -66.09,107.71 -125.58,107.71 -59.49,0 -99.71,-48.22 -89.84,-107.71 9.87,-59.49 66.09,-107.71 125.57,-107.71z"></path> <path class="fil0" d="M536.68 157.87l-2.18 22.4 -2.53 0c-9.54,0.12 -17.92,2.64 -25.13,7.58 -7.21,4.94 -12.95,12.06 -17.21,21.4 6.89,-6.58 14.96,-9.74 24.16,-9.51 6.55,0.11 12.12,1.98 16.66,5.6 4.54,3.62 7.9,8.59 10.05,14.96 2.15,6.38 2.93,13.3 2.33,20.82 -0.63,7.55 -2.93,14.56 -6.92,21.02 -3.96,6.43 -9.22,11.6 -15.71,15.45 -7.47,4.45 -15.48,6.58 -23.98,6.41 -8.36,-0.12 -15.57,-2.35 -21.63,-6.72 -6.06,-4.39 -10.51,-10.34 -13.3,-17.9 -2.81,-7.55 -3.73,-15.8 -2.78,-24.79l1.26 -10.34c1.64,-12.41 5.77,-23.69 12.41,-33.89 6.66,-10.17 15.17,-18.09 25.59,-23.81 10.4,-5.69 21.65,-8.59 33.78,-8.7l5.14 0zm-33.58 63.42c-6.29,-0.23 -11.69,2.79 -16.26,9.02 -1.06,7.84 -1.58,13.24 -1.58,16.17 0,4.94 1.01,8.76 3.02,11.49 2.01,2.73 4.94,4.11 8.76,4.16 5.6,0.11 10.17,-2.7 13.67,-8.47 3.5,-5.74 4.91,-12.15 4.25,-19.24 -0.4,-3.91 -1.64,-7.07 -3.7,-9.45 -2.07,-2.41 -4.8,-3.62 -8.16,-3.68z"></path> <polygon class="fil2" points="-0,0 610.34,0 610.34,516.96 -0,516.96 "></polygon> </g> </svg> 