<?xml version="1.0" encoding="UTF-8"?> <!-- Creator: CorelDRAW 2021.5 --> <svg xmlns="http://www.w3.org/2000/svg" xmlns:xlink="http://www.w3.org/1999/xlink" xmlns:xodm="http://www.corel.com/coreldraw/odm/2003" xml:space="preserve" width="29.9972mm" height="25.3991mm" style="shape-rendering:geometricPrecision; text-rendering:geometricPrecision; image-rendering:optimizeQuality; fill-rule:evenodd; clip-rule:evenodd" viewBox="0 0 610.7 517.09"> <defs> <style type="text/css"> <![CDATA[ .fil2 {fill:none} .fil1 {fill:#007336} .fil0 {fill:white;fill-rule:nonzero} ]]> </style> </defs> <g id="Layer_x0020_1"> <metadata id="CorelCorpID_0Corel-Layer"></metadata> <path class="fil0" d="M337.89 108.41l14.6 0 0 -14.6 -14.6 0 0 14.6zm-170.08 364.9c-0.23,-9.64 -1.49,-19.51 -2.02,-29.19l-4.57 -64.07c5.36,-1.68 10.55,-3.72 15.57,-6.09l0 84.76c0,16.1 13.09,29.19 29.19,29.19l117.04 0 117.04 0c16.1,0 29.19,-13.09 29.19,-29.19l0 -350.3c0,-16.1 -13.09,-29.19 -29.19,-29.19l-58.38 0c0,-8.05 -6.55,-14.6 -14.6,-14.6l-44.06 0 -44.06 0c-8.05,0 -14.6,6.55 -14.6,14.6l-58.38 0c-16.1,0 -29.19,13.09 -29.19,29.19l0 40.98c-0.87,-0.41 -1.75,-0.82 -2.63,-1.21 -21.57,-9.55 -44.33,-12.51 -67.69,-9.18 -60.09,8.58 -106.46,60.24 -106.46,122.66 0,55.47 36.6,102.55 86.92,118.37l-6.54 91.49c-1.64,24.61 17.67,45.57 42.43,45.57l2.52 0c18.79,0 34.74,-12.26 40.36,-29.19 1.58,-5.91 2.12,-8.83 2.12,-14.6zm23.57 -107.48c5.14,-3.33 10.02,-7.03 14.6,-11.07l0 89.36c0,8.05 6.55,14.6 14.6,14.6l102.45 0 102.45 0c8.05,0 14.6,-6.55 14.6,-14.6l0 -321.11c0,-8.05 -6.55,-14.6 -14.6,-14.6l-43.79 0 0 -14.6 58.38 0c8.05,0 14.6,6.55 14.6,14.6l0 350.3c0,8.05 -6.55,14.6 -14.6,14.6l-117.04 0 -117.04 0c-8.05,0 -14.6,-6.55 -14.6,-14.6l0 -92.89zm29.19 -26.28c17.23,-21.3 27.56,-48.4 27.56,-77.88 0,-29.47 -10.33,-56.56 -27.56,-77.86l0 -60.8 43.79 0c0,8.05 6.55,14.6 14.6,14.6l44.06 0 44.06 0c8.05,0 14.6,-6.55 14.6,-14.6l43.79 0 0 321.11 -102.45 0 -102.45 0 0 -104.57zm-14.6 -170.96c-4.58,-4.03 -9.46,-7.74 -14.6,-11.07l0 -49.1c0,-8.05 6.55,-14.6 14.6,-14.6l58.38 0 0 14.6 -43.79 0c-8.05,0 -14.6,6.55 -14.6,14.6l0 45.57zm-80.65 333.92l-2.52 0c-16.12,0 -29.08,-13.83 -27.85,-29.92l4.27 -59.73c16.62,2.75 33.07,2.76 49.7,-0.01l4.27 59.74c1.28,16.07 -11.81,29.92 -27.86,29.92zm-1.25 -116.77c7.78,0 15.37,-0.81 22.76,-2.19l1.04 14.63c-15.92,2.8 -31.69,2.8 -47.61,0l1.04 -14.63c7.39,1.38 14.98,2.19 22.76,2.19zm-109.47 -124.07c0,-60.36 49.11,-109.47 109.47,-109.47 60.36,0 109.47,49.11 109.47,109.47 0,60.36 -49.11,109.47 -109.47,109.47 -60.36,0 -109.47,-49.11 -109.47,-109.47zm29.19 0c0,-44.26 36.02,-80.28 80.28,-80.28 44.26,0 80.28,36.01 80.28,80.28 0,44.26 -36.01,80.28 -80.28,80.28 -44.26,0 -80.28,-36.02 -80.28,-80.28zm175.15 0c0,-52.31 -42.56,-94.87 -94.87,-94.87 -52.31,0 -94.87,42.56 -94.87,94.87 0,52.31 42.56,94.87 94.87,94.87 52.31,0 94.87,-42.56 94.87,-94.87zm161.01 80.28l18.97 0 0 -14.6 -18.97 0 0 14.6zm-127.02 -29.19l70.1 0 0 -14.6 -65.21 0c-1.36,4.97 -2.99,9.84 -4.88,14.6zm127.02 -87.57l18.97 0 0 -14.6 -18.97 0 0 14.6zm-37.95 -29.19l56.92 0 0 -14.6 -56.92 0 0 14.6zm-94.88 175.15l151.8 0 0 -14.6 -151.8 0 0 14.6zm0 -29.19l113.85 0 0 -14.6 -113.85 0 0 14.6zm94.88 -29.19l56.92 0 0 -14.6 -56.92 0 0 14.6zm-81.03 -29.19l137.95 0 0 -14.6 -136.4 0c-0.26,4.92 -0.78,9.8 -1.55,14.6zm1.55 -29.19l136.4 0 0 -14.6 -137.95 0c0.77,4.8 1.29,9.67 1.55,14.6zm-4.7 -29.19l103.16 0 0 -14.6 -108.04 0c1.89,4.76 3.52,9.63 4.88,14.6zm-10.69 -29.19l75.9 0 0 -14.6 -75.9 0 0 14.6zm0 -29.19l18.98 0 0 -14.6 -18.98 0 0 14.6zm37.95 0l113.85 0 0 -14.6 -113.85 0 0 14.6zm37.95 -43.79l-44.07 0 0.01 -43.79 44.06 0 44.06 0 0.01 43.79 -44.07 0zm-14.87 -14.6l0 -14.6 -14.6 0 0 14.6 14.6 0z"></path> <path class="fil1" d="M519.35 100.9c59.5,0 99.73,48.23 89.86,107.73 -9.87,59.5 -66.1,107.73 -125.6,107.73 -59.5,0 -99.73,-48.23 -89.86,-107.73 9.87,-59.5 66.1,-107.73 125.6,-107.73z"></path> <path class="fil0" d="M534.32 269.95l-83.08 0 3.05 -19.54 43.58 -40.51 5.98 -5.95c9.39,-9.4 13.67,-18.27 12.9,-26.6 -0.63,-6.46 -3.99,-9.8 -10.11,-9.97 -4.31,-0.11 -7.99,1.64 -10.98,5.23 -3.02,3.59 -4.88,8.27 -5.6,14.05l-27.52 0.17c0.46,-7.7 2.79,-14.71 6.98,-21.09 4.22,-6.38 9.83,-11.35 16.89,-14.94 7.04,-3.59 14.54,-5.37 22.49,-5.32 11.95,0.23 21.23,3.48 27.78,9.74 6.58,6.23 9.42,14.71 8.59,25.37 -0.52,6.29 -2.59,12.41 -6.21,18.36 -3.59,5.95 -8.88,12.21 -15.77,18.79l-12.78 11.78 -19.02 18.36 46.28 0.17 -3.45 21.89z"></path> <polygon class="fil2" points="0.22,0 610.7,0 610.7,517.07 0.22,517.07 "></polygon> </g> </svg> 