<?xml version="1.0" encoding="UTF-8"?> <!-- Creator: CorelDRAW 2021.5 --> <svg xmlns="http://www.w3.org/2000/svg" xmlns:xlink="http://www.w3.org/1999/xlink" xmlns:xodm="http://www.corel.com/coreldraw/odm/2003" xml:space="preserve" width="29.9862mm" height="25.4mm" style="shape-rendering:geometricPrecision; text-rendering:geometricPrecision; image-rendering:optimizeQuality; fill-rule:evenodd; clip-rule:evenodd" viewBox="0 0 610.35 517"> <defs> <style type="text/css"> <![CDATA[ .fil3 {fill:none} .fil1 {fill:#007336} .fil0 {fill:white} .fil2 {fill:white;fill-rule:nonzero} ]]> </style> </defs> <g id="Layer_x0020_1"> <metadata id="CorelCorpID_0Corel-Layer"></metadata> <path class="fil0" d="M384.87 484.74c3.57,0 7.11,-3.53 7.11,-7.11l0 -276.18c0,-4.25 -2.86,-7.11 -7.11,-7.11l-213.01 0c-4.25,0 -7.11,2.86 -7.11,7.11l0 276.18c0,4.25 2.86,7.11 7.11,7.11l213.01 0zm-40.7 -351.44l0 28.79 -132.27 0 0 -28.79 33.21 0c4.25,0 7.11,-2.86 7.11,-7.11 0,-14.25 11.6,-25.82 25.82,-25.82 14.25,0 25.82,11.6 25.82,25.82 0,4.25 2.86,7.11 7.11,7.11l33.21 0zm-230.38 277.84c0,-35.53 0.04,-71.07 -0.1,-106.6 -0.15,-35.48 -0.39,-70.97 -0.57,-106.45 -0.05,-10.95 -8.9,-19.87 -19.87,-19.87l-28.89 0c-10.96,0 -19.87,8.91 -19.87,19.87l0 214.36c0,0.08 0,0.16 0,0.24 0.02,0.77 0.31,1.54 0.58,2.25 0.89,2.34 1.97,4.69 2.98,6.99 8.15,18.43 16.47,36.78 24.69,55.17 2.21,5.9 10.07,5.49 12.8,0.02 4.91,-10.42 9.58,-21.03 14.26,-31.56 3.42,-7.7 6.82,-15.41 10.11,-23.16 1.08,-2.56 2.17,-5.13 3.18,-7.72 0.28,-0.73 0.57,-1.47 0.81,-2.22 0.11,-0.34 0.41,-1.09 -0.04,-1.3 -0.02,-0.01 -0.03,-0.01 -0.05,-0.02zm-55.1 -5.8l0 -163.19 40.89 0 0 163.19 -40.89 0zm20.44 51.18l-16.86 -36.97 33.08 0 -16.21 36.97zm20.45 -228.58l-40.89 0 0 -30.52c0,-3.15 2.51,-5.66 5.66,-5.66l28.89 0c3.05,0 6.33,2.43 6.33,5.66l0 30.52zm171 194.75c10.84,0 20.21,-9.05 20.29,-20.29 -0.08,-11.08 -9.45,-20.13 -20.29,-20.13 -11.16,0 -20.41,9.06 -20.33,20.13 -0.08,11.24 9.17,20.29 20.33,20.29zm-16.68 -54.13l32.09 0 0 -2.9c0.16,-16.48 6.08,-24.18 19.46,-32.2 15.81,-9.41 26.13,-21.84 26.13,-41.74 0,-29.63 -23.87,-46.86 -57.46,-46.86 -30.7,0 -55.75,16.04 -56.51,49.92l34.51 0c0.52,-13.82 10.76,-21.17 21.84,-21.17 11.43,0 20.65,7.62 20.65,19.38 0,11.08 -8.02,18.47 -18.47,25.06 -14.22,8.97 -22.16,18.03 -22.24,47.61l0 2.9zm104.48 -226.63l0 -15.74c0,-4.25 -2.86,-7.11 -7.11,-7.11l-33.95 0c-3.54,-18.98 -19.87,-32.93 -39.3,-32.93 -19.43,0 -35.75,13.95 -39.3,32.93l-33.95 0c-4.25,0 -7.11,2.86 -7.11,7.11l0 15.74 -39.26 0c-14.64,0 -26.59,11.91 -26.59,26.59l0 321.87c0,14.64 11.92,26.59 26.59,26.59l239.22 0c14.33,0 26.59,-12.27 26.59,-26.59l0 -321.87c0,-14.64 -11.91,-26.59 -26.59,-26.59l-39.26 0z"></path> <path class="fil1" d="M519.01 122.43c59.49,0 99.71,48.22 89.84,107.71 -9.87,59.49 -66.09,107.71 -125.58,107.71 -59.49,0 -99.71,-48.22 -89.84,-107.71 9.87,-59.49 66.09,-107.71 125.57,-107.71z"></path> <polygon class="fil2" points="511.2,291.45 483.42,291.45 499.08,201.35 470.56,209.42 474.43,187.01 528.63,168.92 531.74,168.83 "></polygon> <polygon class="fil3" points="-0,0 610.34,0 610.34,517 -0,517 "></polygon> </g> </svg> 