<?xml version="1.0" encoding="UTF-8"?> <!-- Creator: CorelDRAW 2021.5 --> <svg xmlns="http://www.w3.org/2000/svg" xmlns:xlink="http://www.w3.org/1999/xlink" xmlns:xodm="http://www.corel.com/coreldraw/odm/2003" xml:space="preserve" width="29.9862mm" height="25.3983mm" style="shape-rendering:geometricPrecision; text-rendering:geometricPrecision; image-rendering:optimizeQuality; fill-rule:evenodd; clip-rule:evenodd" viewBox="0 0 610.35 516.96"> <defs> <style type="text/css"> <![CDATA[ .fil2 {fill:none} .fil1 {fill:#007336} .fil0 {fill:white;fill-rule:nonzero} ]]> </style> </defs> <g id="Layer_x0020_1"> <metadata id="CorelCorpID_0Corel-Layer"></metadata> <path class="fil0" d="M409.14 99.25l-349.36 0c-2,0.01 -4,0.29 -5.92,0.83 -4.83,1.3 -9.1,4.16 -12.15,8.12 -3.05,3.97 -4.71,8.83 -4.72,13.83l0 167.09c0,6.04 2.4,11.84 6.67,16.11 4.27,4.27 10.07,6.67 16.11,6.67l220.25 0 0 -15.19 -189.87 0c-4.19,0 -7.59,-3.4 -7.59,-7.59 0,-6.04 -2.4,-11.84 -6.67,-16.11 -4.27,-4.27 -10.07,-6.67 -16.11,-6.67 -4.2,0 -7.59,-3.4 -7.59,-7.59l0 -106.33c0,-4.2 3.4,-7.6 7.59,-7.6 6.04,0 11.84,-2.4 16.11,-6.67 4.27,-4.27 6.67,-10.07 6.67,-16.11 0,-4.2 3.4,-7.6 7.59,-7.6l288.6 0c2.01,0 3.95,0.8 5.37,2.22 1.42,1.42 2.22,3.36 2.22,5.37 0,6.04 2.4,11.84 6.67,16.11 4.27,4.27 10.07,6.67 16.11,6.67 2.01,0 3.95,0.8 5.37,2.22 1.42,1.42 2.22,3.36 2.22,5.37l0 106.33c0,2.01 -0.8,3.95 -2.22,5.37 -1.42,1.42 -3.36,2.22 -5.37,2.22 -6.04,0 -11.84,2.4 -16.11,6.67 -4.27,4.27 -6.67,10.07 -6.67,16.11 0,2.01 -0.8,3.95 -2.22,5.37 -1.42,1.42 -3.36,2.22 -5.37,2.22l-22.78 0 0 15.19 53.16 0c2,-0.01 4,-0.29 5.92,-0.83 4.83,-1.3 9.1,-4.16 12.15,-8.12 3.05,-3.97 4.71,-8.83 4.72,-13.83l0 -167.09c0,-6.04 -2.4,-11.84 -6.67,-16.11 -4.27,-4.27 -10.07,-6.67 -16.11,-6.67zm-92.2 136.71c-5.86,0.27 -11.38,2.79 -15.43,7.04 -4.04,4.24 -6.3,9.88 -6.29,15.75l0 60.76c0,2.02 -0.8,3.95 -2.22,5.37 -1.42,1.42 -3.36,2.22 -5.37,2.22 -18.13,0 -35.52,7.2 -48.33,20.02 -12.82,12.82 -20.02,30.2 -20.02,48.33 0,4.19 -3.4,7.59 -7.59,7.59 -4.2,0 -7.59,-3.4 -7.59,-7.59 -0.08,-22.17 8.73,-43.45 24.46,-59.09 3.4,-3.4 7.09,-6.5 11.01,-9.27l-103.82 0 0 68.35c0,12.09 4.8,23.68 13.35,32.22 8.55,8.54 20.14,13.35 32.22,13.35l113.92 0c12.09,0 23.68,-4.8 32.22,-13.35 8.54,-8.55 13.35,-20.14 13.35,-32.22l0 -134.96c0.05,-6.88 -2.69,-13.48 -7.59,-18.3 -4.27,-4.32 -10.19,-6.58 -16.25,-6.23l-0 0zm39.04 45.57l15.95 0c1.49,-7.29 5.09,-14 10.36,-19.26 5.27,-5.27 11.96,-8.87 19.26,-10.36l0 -92.66c-7.3,-1.49 -14,-5.09 -19.26,-10.36 -5.27,-5.27 -8.87,-11.97 -10.36,-19.26l-274.93 0c-1.49,7.29 -5.09,14 -10.36,19.26 -5.27,5.27 -11.96,8.87 -19.26,10.36l0 92.65c7.3,1.49 14,5.09 19.26,10.36 5.27,5.27 8.87,11.97 10.36,19.26l183.04 0 0 -22.78c-0.01,-9.77 3.74,-19.16 10.47,-26.23 6.73,-7.07 15.93,-11.28 25.68,-11.75 10.11,-0.43 19.95,3.34 27.19,10.41 8.04,7.63 12.6,18.23 12.61,29.31l-0 21.04zm-121.52 -15.19c-29.31,0 -53.16,-27.27 -53.16,-60.76 0,-33.49 23.85,-60.76 53.16,-60.76 29.31,0 53.16,27.27 53.16,60.76 0,33.49 -23.85,60.76 -53.16,60.76zm37.97 -60.76c0,25.17 -17,45.57 -37.97,45.57 -20.97,0 -37.97,-20.4 -37.97,-45.57 0,-25.17 17,-45.57 37.97,-45.57 20.97,0 37.97,20.4 37.97,45.57zm-106.33 250.63l144.3 0c8.39,0 15.19,8.39 15.19,15.19l0 30.38c0,8.39 -6.8,15.19 -15.19,15.19l-144.3 0c-8.39,0 -15.19,-8.39 -15.19,-15.19l0 -30.38c0,-8.39 6.8,-15.19 15.19,-15.19z"></path> <path class="fil1" d="M519.01 121.94c59.49,0 99.71,48.22 89.84,107.71 -9.87,59.49 -66.09,107.71 -125.58,107.71 -59.49,0 -99.71,-48.22 -89.84,-107.71 9.87,-59.49 66.09,-107.71 125.57,-107.71z"></path> <path class="fil0" d="M531.19 243.05l12.04 0 -3.79 21.88 -12.04 0 -4.54 26.02 -27.69 0 4.57 -26.02 -45.87 0 1.52 -18.7 60.14 -77.55 0 -0.6 28.61 0.43 -12.95 74.54zm-48.54 -0.17l20.85 0.17 7.41 -38.03 -28.26 37.86z"></path> <polygon class="fil2" points="-0,0 610.34,0 610.34,516.96 -0,516.96 "></polygon> </g> </svg> 