<?xml version="1.0" encoding="UTF-8"?> <!-- Creator: CorelDRAW 2021.5 --> <svg xmlns="http://www.w3.org/2000/svg" xmlns:xlink="http://www.w3.org/1999/xlink" xmlns:xodm="http://www.corel.com/coreldraw/odm/2003" xml:space="preserve" width="29.9862mm" height="25.3983mm" style="shape-rendering:geometricPrecision; text-rendering:geometricPrecision; image-rendering:optimizeQuality; fill-rule:evenodd; clip-rule:evenodd" viewBox="0 0 610.35 516.96"> <defs> <style type="text/css"> <![CDATA[ .fil2 {fill:none} .fil1 {fill:#007336} .fil0 {fill:white;fill-rule:nonzero} ]]> </style> </defs> <g id="Layer_x0020_1"> <metadata id="CorelCorpID_0Corel-Layer"></metadata> <path class="fil0" d="M296.99 313.76c0,2.07 -0.82,4.06 -2.29,5.53 -1.46,1.47 -3.45,2.29 -5.53,2.29l-109.41 0c-4.32,0 -7.82,-3.5 -7.82,-7.82l0 -23.45c0,-4.31 3.5,-7.81 7.82,-7.81 4.32,0 7.81,3.5 7.81,7.81l0 15.63 93.79 0 0 -15.63c0,-4.31 3.5,-7.81 7.81,-7.81 4.32,0 7.82,3.5 7.82,7.81l-0 23.45zm-91.5 -60.23c1.46,-1.47 3.45,-2.29 5.52,-2.29 2.07,0 4.06,0.83 5.52,2.29l10.11 10.1 0 -43.66c0,-4.32 3.5,-7.81 7.81,-7.81 4.32,0 7.82,3.5 7.82,7.81l0 43.66 10.1 -10.1 0 0c3.06,-3.02 7.98,-3.01 11.02,0.03 3.04,3.04 3.05,7.96 0.03,11.02l-23.45 23.45c-1.46,1.46 -3.45,2.29 -5.52,2.29 -2.07,0 -4.06,-0.82 -5.53,-2.29l-23.45 -23.45c-1.47,-1.47 -2.29,-3.45 -2.29,-5.52 0,-2.07 0.82,-4.06 2.29,-5.52l0 0zm114.94 -57l-171.94 0c-4.31,0.01 -7.81,3.5 -7.81,7.82l0 125.04c0,4.32 3.5,7.81 7.81,7.82l171.94 0c4.32,-0 7.81,-3.5 7.82,-7.82l0 -125.04c-0.01,-4.32 -3.5,-7.81 -7.82,-7.82zm-320.43 234.46c0,6.22 2.47,12.19 6.87,16.58 4.4,4.4 10.36,6.87 16.58,6.87l164.12 0c0,31.26 -22.43,34.82 -36.79,49.18 -2.23,2.24 -2.9,5.6 -1.69,8.52 1.21,2.92 4.06,4.82 7.22,4.82l156.3 0c3.16,0 6.01,-1.91 7.22,-4.82 1.21,-2.92 0.54,-6.28 -1.69,-8.52 -14.36,-14.36 -36.78,-17.92 -36.79,-49.18l164.12 0c6.22,0 12.18,-2.47 16.58,-6.87 4.4,-4.4 6.87,-10.36 6.87,-16.58l0 -7.81 -468.92 0 0 7.81zm447.75 -54.61c0,2.48 -0.89,4.86 -2.5,6.62 -1.6,1.75 -3.77,2.74 -6.03,2.74l-409.52 0c-4.71,0 -8.53,-4.19 -8.53,-9.37l0 -225.79c0,-5.17 3.82,-9.36 8.53,-9.36l409.52 0c2.26,0 4.43,0.99 6.03,2.74 1.6,1.76 2.5,4.14 2.5,6.62l-0 225.79zm-2.28 -258l-422.03 0c-6.22,0 -12.18,2.47 -16.58,6.87 -4.4,4.4 -6.87,10.36 -6.87,16.58l-0 266.76 468.92 0 0 -266.76c0,-6.22 -2.47,-12.18 -6.87,-16.58 -4.4,-4.4 -10.36,-6.87 -16.58,-6.87l0 0z"></path> <path class="fil1" d="M519.01 132.78c59.49,0 99.71,48.22 89.84,107.71 -9.87,59.49 -66.09,107.71 -125.58,107.71 -59.49,0 -99.71,-48.22 -89.84,-107.71 9.87,-59.49 66.09,-107.71 125.57,-107.71z"></path> <path class="fil0" d="M487.45 228.64l12.35 0.09c5.06,-0.11 9.22,-1.58 12.47,-4.39 3.24,-2.84 5.2,-6.81 5.8,-11.89 0.46,-3.82 -0.29,-6.95 -2.27,-9.39 -1.95,-2.47 -4.91,-3.73 -8.82,-3.79 -3.65,-0.11 -6.89,0.89 -9.68,3.02 -2.81,2.12 -4.62,4.97 -5.4,8.47l-27.78 0.17c0.35,-6.63 2.47,-12.49 6.41,-17.61 3.93,-5.11 9.16,-9.08 15.68,-11.86 6.55,-2.76 13.58,-4.14 21.08,-4.08 12.35,0.29 22.06,3.53 29.12,9.74 7.07,6.2 10.28,14.48 9.68,24.79 -0.75,11.58 -8.27,20.74 -22.63,27.46 5.43,2.7 9.51,6.43 12.21,11.2 2.67,4.77 3.88,10.17 3.62,16.17 -0.4,7.52 -2.79,14.07 -7.15,19.67 -4.39,5.57 -10.25,9.85 -17.61,12.87 -7.35,3.02 -15.22,4.42 -23.64,4.25 -7.35,-0.06 -14.02,-1.61 -19.99,-4.65 -5.98,-3.07 -10.57,-7.27 -13.76,-12.67 -3.19,-5.37 -4.77,-11.55 -4.71,-18.5l27.6 0c0.06,3.99 1.24,7.29 3.53,9.88 2.3,2.58 5.51,3.94 9.68,4.05 4.65,0.11 8.79,-1.26 12.38,-4.14 3.59,-2.87 5.72,-6.64 6.38,-11.29 0.69,-5.03 -0.06,-8.93 -2.21,-11.77 -2.18,-2.84 -5.77,-4.34 -10.83,-4.51l-14.79 -0.09 3.27 -21.2z"></path> <polygon class="fil2" points="-0,0 610.34,0 610.34,516.96 -0,516.96 "></polygon> </g> </svg> 