<?xml version="1.0" encoding="UTF-8"?> <!-- Creator: CorelDRAW 2021.5 --> <svg xmlns="http://www.w3.org/2000/svg" xmlns:xlink="http://www.w3.org/1999/xlink" xmlns:xodm="http://www.corel.com/coreldraw/odm/2003" xml:space="preserve" width="16.6812mm" height="16.6814mm" style="shape-rendering:geometricPrecision; text-rendering:geometricPrecision; image-rendering:optimizeQuality; fill-rule:evenodd; clip-rule:evenodd" viewBox="0 0 96.2 96.2"> <defs> <style type="text/css"> <![CDATA[ .fil1 {fill:#5181B8} .fil0 {fill:white} ]]> </style> </defs> <g id="Layer_x0020_1"> <metadata id="CorelCorpID_0Corel-Layer"></metadata> <path class="fil0" d="M-0 48.1c0,-26.56 21.53,-48.1 48.1,-48.1 26.56,0 48.1,21.54 48.1,48.1 0,26.56 -21.54,48.1 -48.1,48.1 -26.56,0 -48.1,-21.54 -48.1,-48.1z"></path> <path class="fil1" d="M6.22 48.1c0,-23.13 18.75,-41.88 41.88,-41.88 23.13,0 41.88,18.75 41.88,41.88 0,23.13 -18.75,41.88 -41.88,41.88 -23.13,0 -41.88,-18.75 -41.88,-41.88z"></path> <path class="fil0" d="M36.91 33.94c0,0 -0.67,-2.19 7.78,-2.19 8.45,0 6.93,2.19 6.93,4.09 0,1.9 -0.11,6.74 -0.11,8.11 0,1.36 0.11,3.69 1.58,3.69 1.47,0 5.54,-6.34 6.63,-8.8 1.1,-2.46 1.87,-5.59 3.61,-5.59 1.74,0 10.62,0 10.62,0 0,0 2.51,0.37 1.23,2.78 -1.28,2.41 -4.01,6.23 -6.34,9.5 -2.33,3.26 -3.83,4.28 -2.09,6.21 1.74,1.93 7.01,6.98 8.16,9.26 1.15,2.27 0.54,3.48 -3.45,3.48 -3.99,0 -6.74,0 -6.74,0 0,0 -2.3,0.08 -4.55,-2.09 -2.25,-2.17 -4.44,-5.54 -5.99,-5.54 -1.55,0 -2.62,1.74 -2.62,4.25 0,2.51 -0.05,3.34 -4.41,3.34 -4.36,0 -9.56,-0.79 -14.78,-5.95 -5.22,-5.16 -11.13,-15.86 -12.92,-19.96 -1.79,-4.09 -2.25,-5.35 0.03,-5.35 2.27,0 8.48,0 8.48,0 0,0 1.55,0.03 2.19,1.5 0.64,1.47 3.69,8.91 6.02,11.39 2.33,2.49 3.34,1.93 4.01,-0.43 0.67,-2.35 0.45,-9.15 -0.67,-10.27 -1.12,-1.12 -2.61,-1.43 -2.61,-1.43z"></path> </g> </svg> 